<?xml version="1.0" encoding="utf-8"?>
<!-- Generator: Adobe Illustrator 22.0.1, SVG Export Plug-In . SVG Version: 6.00 Build 0)  -->
<svg version="1.1" id="Layer_1" xmlns="http://www.w3.org/2000/svg" xmlns:xlink="http://www.w3.org/1999/xlink" x="0px" y="0px"
	 viewBox="0 0 330 250" style="enable-background:new 0 0 330 250;" xml:space="preserve">
<style type="text/css">
	.st0{fill:#F5F9FF;}
	.st1{opacity:0.6;}
	.st2{fill:#D0DBF1;}
	.st3{fill:#E6F0FF;}
	.st4{fill:#339967;}
	.st5{fill:#3EAF73;}
	.st6{fill:#B2594D;}
	.st7{fill:#9E4C3D;}
	.st8{fill:#2B2A2A;}
	.st9{fill:#FF9045;}
	.st10{fill:#FF7F29;}
	.st11{fill:#FFAC88;}
	.st12{fill:#FFC464;}
	.st13{fill:#1C1B1B;}
	.st14{fill:#FF9A66;}
	.st15{opacity:0.1;}
	.st16{fill:#FFFFFF;}
	.st17{fill:#353535;}
	.st18{fill:#FF3B3B;}
	.st19{fill:#ED0F0F;}
	.st20{fill:#2E2EFF;}
	.st21{fill:#0000FE;}
	.st22{fill:#0505D8;}
	.st23{fill:#9B9BF9;}
	.st24{fill:#C2C2FF;}
	.st25{fill:#AAAAF9;}
	.st26{fill:#E27950;}
	.st27{fill:#5D5DF4;}
	.st28{fill:#5555E5;}
	.st29{fill:#8888FF;}
	.st30{fill:#A4DEF7;}
	.st31{fill:#86D4EF;}
	.st32{fill:#FFDECF;}
	.st33{fill:#FFCDB2;}
	.st34{fill:#6766FF;}
	.st35{fill:#1E1313;}
	.st36{fill:#F9B57D;}
	.st37{fill:#FFDA3E;}
	.st38{fill:#EFC203;}
	.st39{fill:#424242;}
	.st40{fill:#BFCCE2;}
	.st41{fill:#F48A5B;}
	.st42{fill:#934237;}
	.st43{fill:#E81313;}
	.st44{fill:#2E8E5B;}
	.st45{fill:#A56C3D;}
	.st46{fill:#89562C;}
	.st47{fill:#0C0302;}
	.st48{fill:#FCA93F;}
	.st49{fill:#8F8FE5;}
	.st50{fill:#FFCC9A;}
	.st51{fill:#F9BA9D;}
	.st52{fill:#EAA98F;}
	.st53{fill:#ED6203;}
	.st54{fill:#FFCC00;}
	.st55{fill:#873830;}
	.st56{fill:#F48427;}
	.st57{fill:#494BAF;}
	.st58{fill:#423A83;}
	.st59{fill:#7B9DED;}
	.st60{fill:#5F6BD6;}
	.st61{fill:#E2E0EE;}
	.st62{fill:#4D424F;}
	.st63{fill:#FF6600;}
	.st64{fill:#FCC088;}
	.st65{fill:#F91919;}
	.st66{fill:#492B26;}
	.st67{fill:#381B1B;}
	.st68{fill:#FEC200;}
	.st69{fill:#FF2929;}
	.st70{fill:#7878DD;}
	.st71{fill:#6766CC;}
	.st72{fill:#0000EA;}
	.st73{fill:#ABAAF8;}
	.st74{fill:#EFAE95;}
	.st75{fill:#774825;}
	.st76{fill:#162C3A;}
	.st77{fill:#574841;}
	.st78{fill:#6060BF;}
	.st79{fill:#3E333E;}
	.st80{fill:#FFC081;}
	.st81{fill:#F49A38;}
	.st82{fill:#504D52;}
	.st83{fill:#313133;}
	.st84{fill:#E7F0FF;}
	.st85{fill:#FE9E5D;}
	.st86{fill:#FFDAA9;}
	.st87{fill:#FFD9AB;}
	.st88{fill:#160B0A;}
</style>
<g id="MetaTag">
	<g>
		<g>
			<g>
				<path class="st0" d="M288.714386,169.9357147c6.5599976,10.4897461,6.9200439,24.5598145,0.9200439,35.3798828
					c-0.0200195,0.0300293-0.0300293,0.0600586-0.0499878,0.0800781c-2.6400146,4.7399902-7.75,7.5698242-13.1800537,7.5698242
					H64.9643784c-3.789978,0-7.4599609-1.3898926-10.25-3.9599609c-4.9299927-4.5200195-11.0199585-12.0898438-13.1599731-19
					c-2.9799805-9.6398926,0.3300171-20.9199219,8.039978-27.4299316
					c3.9800415-3.3601074,9.1100464-5.6899414,11.6000366-10.2600098c2.6900024-4.9299316,1.4400024-11.1999512-1.460022-16
					c-2.8999634-4.8000488-7.2299805-8.5300369-11.1499634-12.5400467c-9.3800049-9.6000977-16.8800049-21.6599121-18.3500366-35
					C28.7544174,75.4454727,34.314415,60.8656425,45.9043808,54.095623
					c10.9100342-6.380127,24.5400391-4.9599609,37.0200195-2.9299316
					c12.1600342,1.9799805,23.9401016,7.4761276,36.2700195,7.119873c1.6036987-0.0463371,3.0396881-1.0106659,4.5100098-1.6699219
					c4.5990524-2.0621071,8.7500076-5.0500488,13.4199905-6.9401855c10.2700195-4.1398926,21.960022-2.579834,32.5899658,0.5200195
					c10.6300049,3.1101074,20.8600464,7.7001953,31.7700195,9.5900879
					c8.6699829,1.4899902,15.0599976,0.5800781,21.4799805-3.5300293c1.6500244-1.3100586,3.3099976-2.6000977,5.0100098-3.8300781
					c0.0100098,0,0.0100098-0.0097656,0.0200195-0.0097656c0.0100098-0.0102539,0.0100098-0.0102539,0.0200195-0.0200195
					c3.1199951-2.25,6.3499756-4.2900391,9.8099976-5.9001465c19.3299561-9,44.8099976-1.369873,56.0199585,16.7600098
					c11.2200317,18.1301231,6.6500244,44.3300743-10.0299683,57.6101036
					c-4.5599976,3.6298828-10.0700073,6.619873-12.5700073,11.8899002
					c-3.0999756,6.5400391-0.4199829,14.4501953,3.7799683,20.3400879
					C279.2344055,158.9955292,284.8844299,163.795578,288.714386,169.9357147z"/>
			</g>
			<g class="st1">
				<g>
					<path class="st2" d="M41.4268837,189.5106354c0.046875,0.1642456,0.0811157,0.3314209,0.1315918,0.494751
						c2.1362305,6.913208,8.2262573,14.4754639,13.1515503,19.0046387
						c2.7921753,2.5675659,6.4641724,3.9578247,10.2573891,3.9578247H276.404541
						c5.427002,0,10.5359497-2.8301392,13.1833496-7.5675659c0.0157471-0.0281982,0.0314941-0.0564575,0.0471191-0.0847168
						c2.6765747-4.8244629,4.0786133-10.2942505,4.2388306-15.8049316H41.4268837z"/>
				</g>
			</g>
		</g>
		<g>
			<g>
				<g>
					<g>
						<path class="st6" d="M210.3542328,52.3720322v134.8442688c0,8.4719849-6.8679047,15.3398895-15.3398895,15.3398895
							h-76.4776917c-8.4719849,0-15.3398819-6.8679047-15.3398819-15.3398895V52.3720322
							c0-8.4719849,6.867897-15.3398857,15.3398819-15.3398857h76.4776917
							C203.4863281,37.0321465,210.3542328,43.9000473,210.3542328,52.3720322z"/>
					</g>
					<g>
						<path class="st3" d="M200.946167,58.6100464V181.919342c0,4.6367493-3.7588196,8.3955688-8.3955688,8.3955688H120.996048
							c-4.6367416,0-8.3955688-3.7588196-8.3955688-8.3955688V58.6101646c0-4.6466827,3.7686386-8.4054451,8.4054489-8.4054451
							h21.0779953c1.3276215,0,2.5419617,0.7480164,3.1392212,1.9337082l1.685318,3.345768
							c0.4200592,0.8339119,1.2741241,1.3600044,2.2078552,1.3600044h15.321991
							c0.9347839,0,1.7896271-0.5272636,2.2091675-1.3626099l1.6772156-3.3394585
							c0.5965271-1.1877289,1.8119659-1.9374123,3.1410828-1.9374123h21.0750732
							C197.1829834,50.2047195,200.946167,53.9679146,200.946167,58.6100464z"/>
					</g>
				</g>
				<g>
					<g>
						<g>
							<path class="st2" d="M188.3418274,69.1884232v49.2820663c0,2.4953079-2.0228424,4.518158-4.518158,4.518158h-54.0558472
								c-2.4953079,0-4.518158-2.02285-4.518158-4.518158V69.1884232c0-2.4953156,2.02285-4.5181656,4.518158-4.5181656h54.0558472
								C186.318985,64.6702576,188.3418274,66.6931076,188.3418274,69.1884232z"/>
						</g>
						<g>
							<g>
								<g>
									<path class="st24" d="M167.5827332,105.0216599h-15.7160645c-2.3112488,0-4.3013458-1.6471558-4.7324524-3.9159546
										l-3.9562378-20.7892838c-0.2329712-1.2182236-1.3020477-2.1033096-2.5420532-2.1033096h-3.8016357
										c-0.6161957,0-1.1148071-0.4986115-1.1148071-1.1147995c0-0.6161957,0.4986115-1.1148071,1.1148071-1.1148071h3.8016357
										c2.309082,0,4.2991638,1.6471634,4.7324524,3.9159546l3.9562378,20.7903748
										c0.2318878,1.2182236,1.3009644,2.1022263,2.5420532,2.1022263h15.7160645
										c0.6161957,0,1.1148071,0.4986115,1.1148071,1.1147995S168.1989288,105.0216599,167.5827332,105.0216599z"/>
								</g>
							</g>
							<g>
								<g>
									<path class="st24" d="M174.8202362,84.6194l-4.9942932,13.3667145
										c-0.4682617,1.2372818-1.6610413,2.0622177-2.9765625,2.0622177h-18.99617
										c-0.53508,0-0.9921875-0.3791275-1.0924835-0.9027786l-3.3221436-17.4914246
										c-0.0668945-0.3344955,0.0223083-0.6687164,0.2341309-0.9251022
										c0.2118073-0.2563782,0.5239868-0.4014435,0.8584137-0.4014435h27.3126068
										c1.0367584,0,2.0177917,0.512764,2.6085968,1.3711853C175.0432129,82.5460205,175.1881409,83.638504,174.8202362,84.6194z"
										/>
								</g>
							</g>
							<g>
								<g>
									<g>
										<path class="st25" d="M153.1382446,93.9117584c-0.6161957,0-1.1148071-0.4986115-1.1148071-1.1147995v-5.2190933
											c0-0.616188,0.4986115-1.1147995,1.1148071-1.1147995c0.6161804,0,1.1147919,0.4986115,1.1147919,1.1147995v5.2190933
											C154.2530365,93.413147,153.754425,93.9117584,153.1382446,93.9117584z"/>
									</g>
								</g>
								<g>
									<g>
										<path class="st25" d="M158.3671265,93.9117584c-0.6161804,0-1.1147919-0.4986115-1.1147919-1.1147995v-5.2190933
											c0-0.616188,0.4986115-1.1147995,1.1147919-1.1147995c0.6161957,0,1.1148071,0.4986115,1.1148071,1.1147995v5.2190933
											C159.4819336,93.413147,158.9833221,93.9117584,158.3671265,93.9117584z"/>
									</g>
								</g>
								<g>
									<g>
										<path class="st25" d="M163.5960236,93.9117584c-0.6161957,0-1.1148071-0.4986115-1.1148071-1.1147995v-5.2190933
											c0-0.616188,0.4986115-1.1147995,1.1148071-1.1147995c0.6161804,0,1.1147919,0.4986115,1.1147919,1.1147995v5.2190933
											C164.7108154,93.413147,164.212204,93.9117584,163.5960236,93.9117584z"/>
									</g>
								</g>
							</g>
							<g>
								<g>
									<path class="st24" d="M155.9467773,106.8069763c0,1.0337906-0.8404999,1.8744125-1.8839111,1.8744125
										c-1.0337372,0-1.8742371-0.8406219-1.8742371-1.8744125c0-1.0432281,0.8404999-1.8838501,1.8742371-1.8838501
										C155.1062775,104.9231262,155.9467773,105.7637482,155.9467773,106.8069763z"/>
								</g>
							</g>
							<g>
								<g>
									<path class="st24" d="M166.7763062,106.8069763c0,1.0337906-0.8404999,1.8744125-1.8839111,1.8744125
										c-1.0337372,0-1.8742371-0.8406219-1.8742371-1.8744125c0-1.0432281,0.8404999-1.8838501,1.8742371-1.8838501
										C165.9358063,104.9231262,166.7763062,105.7637482,166.7763062,106.8069763z"/>
								</g>
							</g>
						</g>
						<g>
							<path class="st29" d="M139.6469269,77.1671677L139.6469269,77.1671677c0,1.3740997-1.1139221,2.4880219-2.4880219,2.4880219
								h-3.2438965c-1.3740997,0-2.4880219-1.1139221-2.4880219-2.4880219l0,0c0-1.3740997,1.1139221-2.4880219,2.4880219-2.4880219
								h3.2438965C138.5330048,74.6791458,139.6469269,75.7930679,139.6469269,77.1671677z"/>
						</g>
					</g>
					<g>
						<g>
							<g>
								<g>
									<path class="st52" d="M155.170166,122.9829254c-0.1685486,0.1904907-0.3372955,0.3710938-0.5055695,0.5720215
										c-1.609375,1.9201126-5.4385681,6.8924713-6.3042603,11.4542999
										c0.4550323-0.1998444,0.9211731-0.3663635,1.3984375-0.4551086
										c0.7436829-2.8968353,2.8968964-6.6262283,5.860321-10.1889801
										c0.4214935-0.4999466,0.841507-0.9528809,1.2601624-1.3822327H155.170166z"/>
								</g>
							</g>
							<g>
								<path class="st51" d="M168.6863403,178.4595184l-20.8595428,4.4188385
									c-2.0547028,0.4352722-4.073288-0.8773499-4.5088806-2.9319916l-5.7094116-27.007019
									c-0.1751251-0.8260345-0.0703888-1.6868439,0.297699-2.4467926l6.433197-13.2816772
									c1.6659241-3.4394073,6.128067-4.3846588,9.045517-1.9161835l11.2663422,9.5325317
									c0.6444397,0.5452728,1.0891724,1.289444,1.2641144,2.1152954l5.7035522,27.0079956
									C172.054245,176.0054474,170.7412872,178.0242004,168.6863403,178.4595184z"/>
							</g>
							<g>
								<path class="st39" d="M150.3633728,143.3388672c-1.4111023,0.2989349-2.7943726-0.6006775-3.0933075-2.0118408
									c-0.2978973-1.4062653,0.6017761-2.7895508,2.0128632-3.0884857
									c1.4063263-0.2979126,2.7943878,0.6007538,3.0922852,2.0070343
									C152.6741486,141.656723,151.7696991,143.0409546,150.3633728,143.3388672z"/>
							</g>
							<g>
								<path class="st52" d="M164.6376953,174.210083l-14.8388824,3.1434326
									c-1.1244507,0.238205-2.2290955-0.4802399-2.4673004-1.6046906l-4.1017609-19.4465942
									c-0.238205-1.1244507,0.4802399-2.2291107,1.6046906-2.4673157l14.8388824-3.1434326
									c1.1244507-0.238205,2.2290955,0.4802551,2.4673004,1.6047058l4.1017609,19.4465942
									C166.4805908,172.8672333,165.762146,173.9718781,164.6376953,174.210083z"/>
							</g>
						</g>
						<g>
							<g>
								<path class="st51" d="M148.1127319,163.5072479c-0.5610046-0.6418457-0.8415222-1.5758209-0.8415222-2.8016815
									c0-1.1912537,0.2834167-2.1078033,0.850235-2.7498932c0.5665894-0.641861,1.3415527-0.9627838,2.3246613-0.9627838
									c0.9944763,0,1.77211,0.3209229,2.3333588,0.9627838c0.5607758,0.6420898,0.8412933,1.5644531,0.8412933,2.7670746
									c0,1.2261047-0.2805176,2.1571655-0.8412933,2.7932129c-0.5612488,0.6360474-1.3388824,0.954071-2.3333588,0.954071
									C149.4513855,164.4700317,148.6735077,164.1490936,148.1127319,163.5072479z M151.2268829,162.3535156
									c0.1616669-0.3235931,0.2427521-0.8674164,0.2427521-1.6307678c0-0.7285004-0.0839844-1.2575684-0.2514648-1.587204
									c-0.1679688-0.3296356-0.4250031-0.4944611-0.7720642-0.4944611s-0.6014404,0.161911-0.7633514,0.4857483
									c-0.1621552,0.3238373-0.2429962,0.8560486-0.2429962,1.5959167c0,0.7519684,0.0808411,1.2924194,0.2429962,1.6220551
									c0.161911,0.3296356,0.4162903,0.4944611,0.7633514,0.4944611
									C150.8045502,162.8392639,151.0647278,162.6775818,151.2268829,162.3535156z M151.7126312,169.7440033
									c-0.2429962,0-0.4540405-0.089798-0.6333923-0.2688904c-0.1793365-0.1791077-0.2688904-0.4017639-0.2688904-0.6679993
									c0-0.2195129,0.0694733-0.450882,0.2081451-0.6938782l6.1413879-10.5997467
									c0.2429962-0.4395142,0.5665894-0.6592712,0.9714966-0.6592712c0.254364,0,0.4712219,0.0895386,0.6505585,0.2688904
									c0.1791077,0.1793365,0.2688904,0.4019928,0.2688904,0.6677399c0,0.2200012-0.069458,0.4511414-0.2081299,0.6941376
									l-6.1414032,10.5997314C152.4350739,169.5242462,152.1056671,169.7440033,151.7126312,169.7440033z
									 M157.0645294,168.5730743c-0.5612488-0.6420898-0.8415222-1.5758209-0.8415222-2.8019257
									c0-1.2026215,0.2802734-2.1220703,0.8415222-2.7583618c0.5607758-0.6358032,1.3384094-0.9540558,2.333374-0.9540558
									c0.9828644,0,1.7578278,0.3209229,2.324646,0.9627686c0.5665894,0.641861,0.8499908,1.564209,0.8499908,2.7670746
									c0,1.2142487-0.2805023,2.1424103-0.8412781,2.7845001c-0.5612488,0.641861-1.3388824,0.9627838-2.3333588,0.9627838
									C158.4029388,169.5358582,157.6253052,169.2149353,157.0645294,168.5730743z M160.1784363,167.419342
									c0.161911-0.3235779,0.242981-0.8674164,0.242981-1.6307678c0-0.7401123-0.0839844-1.2752228-0.2514648-1.6048584
									c-0.1679535-0.3294067-0.4252319-0.4942169-0.772049-0.4942169c-0.3470764,0-0.6045837,0.1648102-0.7720642,0.4942169
									c-0.1677246,0.3296356-0.2514648,0.8647461-0.2514648,1.6048584c0,0.7633514,0.0805969,1.3071899,0.2427521,1.6307678
									c0.161911,0.3238373,0.4220886,0.4857483,0.780777,0.4857483
									C159.7560883,167.9050903,160.01651,167.7431793,160.1784363,167.419342z"/>
							</g>
						</g>
					</g>
					<g>
						<path class="st39" d="M164.7864532,118.5159378c0,1.1765594-0.9545135,2.119957-2.1199646,2.119957
							c-1.1764984,0-2.1309967-0.9433975-2.1309967-2.119957c0-1.1764297,0.9544983-2.1309357,2.1309967-2.1309357
							C163.8319397,116.3850021,164.7864532,117.3395081,164.7864532,118.5159378z"/>
					</g>
					<g>
						<path class="st52" d="M165.2752838,132.4452972c-1.8424835,2.2086945-4.1510315,4.3396301-6.492981,6.0378113
							c-0.7547302,0.5327301-1.5094604,1.0433807-2.2530823,1.4762573
							c-1.9645538,1.1543427-3.6848907,1.7980499-5.0722656,1.9201202c-1.0655365,0.0998535-1.942337-0.1220703-2.5749817-0.6438293
							c-0.2663727-0.2330322-0.2996979-0.6103668-0.077713-0.8878479c0.2220001-0.255249,0.6215515-0.2996979,0.8879089-0.0776367
							c0.9878387,0.832428,3.3075714,0.2996979,6.2044067-1.4095917c0.5771637-0.3330231,1.16539-0.7214661,1.7536621-1.1321259
							c2.386261-1.664856,4.7836914-3.8402252,6.6594238-6.0822601c4.0844421-4.8724976,4.8946533-9.134491,2.1753845-11.4098511
							c-0.776947-0.6549454-1.6546936-1.0358582-2.6193695-0.9878311c-0.3629913,0.0180664-1.2602386,0.1805115-1.5353699-0.0569611
							c-0.6890411-0.5947113-0.1445007-1.5711136,1.7906342-1.3082047c1.1543427,0.1220779,2.2309113,0.5992584,3.1743774,1.3873825
							C170.6139221,122.0454941,169.8702393,126.9846497,165.2752838,132.4452972z"/>
					</g>
				</g>
			</g>
			<g>
				<g>
					<g>
						<g>
							<path class="st11" d="M206.3085938,93.8812332l-1.16716-2.1883926
								c-0.2122498-0.3979568-0.3599243-0.8271027-0.4375153-1.2714005l-0.7649689-4.3802338
								c-0.0518646-0.2969589,0.0202179-0.5879898,0.1833801-0.8171539c0.1602936-0.2311783,0.409668-0.3976364,0.7066345-0.449501
								c0.5963745-0.1041489,1.1625061,0.2936401,1.2666626,0.8900146l-0.224884-1.287674
								c-0.0522919-0.2993927,0.0202179-0.5879898,0.1833801-0.8171539c0.1607361-0.2287445,0.409668-0.3976364,0.7066345-0.449501
								c0.5963745-0.1041489,1.1625061,0.2936401,1.2666626,0.8900146l-0.2631531-1.506752
								c-0.0518494-0.2969742,0.0202484-0.5879974,0.1834106-0.8171616
								c0.1759949-0.2538147,0.4593506-0.4296188,0.7952271-0.4613876c0.5762329-0.054512,1.0868073,0.3793869,1.1863861,0.9495621
								l0.1659698,0.9503479c-0.0518646-0.2969589,0.0202179-0.5879822,0.1833801-0.8171616
								c0.1759949-0.2538147,0.4593506-0.4296188,0.7952271-0.4613876c0.5762329-0.0545044,1.0868073,0.3793869,1.1863861,0.9495697
								l0.6085052,3.4843216c0.3550873-0.781929,1.2699738-1.1448822,2.0679779-0.8126602l0.4539948,0.1865997
								c0.1703644,0.0705948,0.2494659,0.2649689,0.1784668,0.4328842l-2.3037109,6.5892563L206.3085938,93.8812332z"/>
						</g>
					</g>
					<g>
						<g>
							<path class="st14" d="M213.7187653,91.3565979l-0.4565125,1.3072891l-6.9514008,1.2138824l-1.1724091-2.1891556
								c-0.2075195-0.3942642-0.3527832-0.8196869-0.4357452-1.2658157l-0.767807-4.3783112
								c-0.0518646-0.3009186,0.0207672-0.5913925,0.1867981-0.8196793
								c0.1245117-0.1763611,0.3112488-0.3112411,0.5187683-0.3942642l0.7366028,4.2434921
								c0.0830231,0.4461288,0.2282867,0.8714828,0.4461212,1.2657471l0,0
								c0.6931,1.3057709,2.1473846,2.0176544,3.6037903,1.7640762L213.7187653,91.3565979z"/>
						</g>
					</g>
					<g>
						<path class="st37" d="M238.9904633,105.9577408c-1.1346436-3.2934036-4.7904358-4.9713745-8.0274658-3.6845093
							l-13.8499603,5.50634l-2.6161652-12.3635712h-8.4510956l2.1855927,19.8538895
							c0.4011536,3.6433563,4.0545502,5.9932861,7.5362549,4.8473969l19.3594818-6.3719711
							C238.3611603,112.6808548,240.099472,109.1767807,238.9904633,105.9577408z"/>
					</g>
					<g>
						<path class="st54" d="M216.1615601,103.2830887l-1.802597-8.5186615l-8.1142426,2.4594345l0.667038,6.059227
							C209.8754883,101.5504532,212.9503326,101.4284439,216.1615601,103.2830887z"/>
					</g>
					<g>
						<path class="st37" d="M213.697525,92.6126709l-7.7221985,1.1665802
							c-0.4622803,0.0698318-0.780426,0.5011978-0.7105865,0.9634705l0.6206665,4.10849
							c0.0698242,0.4622803,0.5011902,0.7804184,0.9634705,0.7105789l7.7221985-1.1665726
							c0.4622803-0.0698395,0.780426-0.5011978,0.7105865-0.9634781l-0.6206665-4.10849
							C214.5911713,92.8609695,214.1598053,92.5428391,213.697525,92.6126709z"/>
					</g>
					<g>
						<polygon class="st54" points="217.1130371,107.7795715 217.1130371,111.1042099 219.6150208,106.7848511 						"/>
					</g>
				</g>
				<g>
					<g>
						<g>
							<path class="st37" d="M259.6704407,115.2995071l18.7290649-1.4097137
								c3.3682861-0.2535248,5.6487732-3.5435791,4.704071-6.7866058l-5.5662537-19.1083908l-7.3193054,1.5069733
								l2.6809998,14.3604813l-13.73349,0.2017822c-3.2097321,0.0471573-5.7294464,2.7660751-5.5327301,5.9701233v0.0000076
								C253.825058,113.1657944,256.5417786,115.5350037,259.6704407,115.2995071z"/>
						</g>
						<g>
							<path class="st54" d="M271.6799927,97.3330154c1.2835693-3.0483475,3.8741455-4.0291901,7.6764221-3.0934143
								l-1.8190918-6.2448273l-7.3192444,1.5069885L271.6799927,97.3330154z"/>
						</g>
						<g>
							<path class="st37" d="M269.9740295,87.7102737l7.079071-1.297905
								c0.4237671-0.0776978,0.8302917,0.202858,0.9079895,0.6266327l0.6905212,3.766304
								c0.0776978,0.4237823-0.2028503,0.830307-0.6266174,0.9080048l-7.079071,1.297905
								c-0.4237671,0.0776901-0.8302917-0.202858-0.9079895-0.6266327l-0.6905212-3.7663116
								C269.2697144,88.1944962,269.5502625,87.7879715,269.9740295,87.7102737z"/>
						</g>
						<g>
							<polygon class="st54" points="272.8990173,103.8622513 273.1434326,106.9119415 270.6040039,103.8959732 							"/>
						</g>
					</g>
					<g>
						<path class="st11" d="M276.6084595,86.5387497l0.3192444-2.3680191
							c0.058075-0.4306183,0.0473633-0.8677368-0.0317383-1.2949982l-0.7797852-4.212265
							c-0.0528564-0.2855759-0.2156677-0.5241852-0.4399414-0.6763535
							c-0.2223511-0.1549377-0.5034485-0.2215347-0.7890015-0.1686707
							c-0.5735168,0.1061707-0.9512024,0.6554489-0.8450317,1.2289581l-0.229248-1.2382965
							c-0.0532837-0.2879181-0.2156677-0.5241852-0.4399414-0.6763458c-0.2219238-0.1525955-0.503418-0.2215424-0.7890015-0.1686707
							c-0.5735168,0.106163-0.9512024,0.6554489-0.8450317,1.2289581l-0.268219-1.4489822
							c-0.052887-0.2855911-0.2156982-0.5241776-0.4399719-0.6763458c-0.2441406-0.1701126-0.5590515-0.2337341-0.8730164-0.1496658
							c-0.5386353,0.1442413-0.8540344,0.7074661-0.752533,1.2557831l0.1691895,0.9139099
							c-0.0528564-0.2855759-0.2156677-0.5241776-0.4399414-0.6763535
							c-0.2441406-0.1701126-0.5590515-0.2337341-0.8730164-0.1496658c-0.5386353,0.1442413-0.8540344,0.7074661-0.752533,1.2557831
							l0.6203003,3.3507233c-0.5831909-0.5868835-1.531189-0.6074905-2.1402893-0.0395737l-0.3473206,0.3209229
							c-0.130127,0.1209412-0.1362915,0.3230209-0.0158081,0.4508209l4.2924805,5.1768341L276.6084595,86.5387497z"/>
					</g>
					<g>
						<path class="st14" d="M276.9318237,84.1717758l-0.3198853,2.3689575l-6.6970215,1.2394485l-0.7696838-0.9295883
							l4.6564331-0.8670273c0.937439-0.1745605,1.6570435-0.9309845,1.7846375-1.8759766l0.1060486-0.7854767
							c0.0588684-0.4359818,0.0480347-0.8785477-0.0321045-1.3111191l-0.7775269-4.1964188
							c0.289917-0.0500259,0.5697632,0.0199509,0.7897034,0.1699066c0.2298584,0.1499023,0.3897705,0.3898468,0.4397278,0.6796951
							l0.7796936,4.2081833C276.9718323,83.3021622,276.981842,83.7419739,276.9318237,84.1717758z"/>
					</g>
				</g>
				<g>
					<g>
						<polygon class="st14" points="279.5234985,169.6897736 285.2961121,168.9588318 284.3052063,160.2068481 
							278.5920715,160.8536835 						"/>
					</g>
					<g>
						<path class="st88" d="M281.9621887,160.052475c1.1234436-1.2519073,3.8670654-3.8239288,6.5463562-2.6026611
							l2.2858276,20.4734497l-0.5413208,0.0612946c-1.5484619,0.1753082-3.0541382-0.5814209-3.8374023-1.9286499
							l-4.398407-6.4147491c-0.1164551-0.2003021-0.0791016-0.4544983,0.0900574-0.6128235l2.0755615-1.942627
							c0.1342163-0.1256256,0.2011414-0.3073273,0.1804504-0.4900055l-0.5621948-4.9655914
							c-0.02771-0.2448273-0.2067261-0.4456177-0.4467773-0.5011597l-1.1319275-0.2618713
							C281.8535767,160.7817383,281.7093506,160.3342285,281.9621887,160.052475z"/>
					</g>
					<g>
						<path class="st40" d="M292.002533,178.5826263L292.002533,178.5826263
							c0.6166992-0.0698242,1.0600586-0.6263885,0.9902344-1.243103l-2.2374573-20.0460968
							c-0.0698242-0.6167145-0.6263733-1.0600739-1.243103-0.9902344l0,0
							c-0.6166992,0.0698242-1.0600586,0.6263733-0.9902344,1.2430878l2.2374573,20.0460968
							C290.8292542,178.2091064,291.3858032,178.6524506,292.002533,178.5826263z"/>
					</g>
				</g>
				<g>
					<g>
						<polygon class="st14" points="238.9181366,194.548584 241.6365204,199.6932526 249.4778137,195.6816406 
							246.8591003,190.5629883 						"/>
					</g>
					<g>
						<path class="st88" d="M248.7965851,193.4345398c1.5674896,0.6101837,4.941391,2.2713776,4.742691,5.2091522
							l-18.5060577,8.7136688l-0.2481232-0.4849854c-0.7097626-1.3873444-0.5321808-3.0630951,0.4525757-4.2708893
							l4.6047821-5.7362823c0.1464233-0.1795807,0.3974609-0.2341919,0.6052551-0.1316833l2.5494385,1.2577972
							c0.1648712,0.0813446,0.3585052,0.0799408,0.522171-0.0037994l4.4488983-2.276062
							c0.2193451-0.1122131,0.3441772-0.3504944,0.311554-0.5947113l-0.1538239-1.1515961
							C248.0758209,193.5898895,248.4437866,193.2971954,248.7965851,193.4345398z"/>
					</g>
					<g>
						<path class="st40" d="M234.8419342,208.7203827L234.8419342,208.7203827
							c0.2826843,0.5525513,0.9597778,0.7713165,1.5123138,0.4886322l18.1231689-8.5177765
							c0.552536-0.2826843,0.7713013-0.9597778,0.4886322-1.5123291h-0.0000153
							c-0.2826691-0.5525513-0.9597626-0.7713165-1.5123138-0.4886322l-18.1231537,8.5177917
							C234.7780151,207.4907532,234.5592499,208.1678314,234.8419342,208.7203827z"/>
					</g>
				</g>
				<g>
					<path class="st18" d="M230.6199951,103.9756241l-1.2568207,34.5560837h29.2189484v-32.9089203
						c0-0.9115067-0.5774231-1.73526-1.4431458-2.0205994c-1.4886169-0.4906464-2.9876709-0.921524-4.4807281-1.2898026
						c-0.404892-0.0990677-0.8193054-0.1998901-1.2274628-0.2799911c-5.2848358-1.1651306-10.537674-1.4906616-15.4928131-0.6952286
						c-0.4551239,0.0785599-0.9102631,0.1572342-1.3686981,0.254982c-0.5296783,0.1077957-1.3670349,0.2281113-2.169281,0.3627319
						C231.401886,102.1223602,230.6567841,102.9642334,230.6199951,103.9756241z"/>
				</g>
				<g>
					<path class="st19" d="M258.5866699,105.6184616v32.9107437h-29.2200012l0.2950439-8.015564h11.7905121
						c5.9541931,0,10.7810211-4.8268204,10.7810211-10.7810135v-17.5145493
						c0.0012665-0.0009995,0.0015869-0.0012589,0.0028381-0.0022659c1.6341858,0.3847656,3.2764893,0.8512573,4.9102783,1.3883591
						C258.0108337,103.8883667,258.5866699,104.7084579,258.5866699,105.6184616z"/>
				</g>
				<g>
					<path class="st19" d="M234.5692749,101.5921478c-0.17453,4.0913773,2.5075073,7.6638412,6.5293274,8.3563461
						c4.555603,0.7844086,9.1213989-2.4231491,10.1929932-7.1648026c0.0522003-0.2461548,0.0965118-0.5034943,0.1391907-0.751297
						c-5.2848358-1.1651306-10.537674-1.4906616-15.4928131-0.6952286
						C235.4828491,101.4157257,235.02771,101.4944,234.5692749,101.5921478z"/>
				</g>
				<g>
					<path class="st14" d="M238.2546997,98.1641159l-0.5563049,3.2308502
						c-0.4808044,2.7923584,1.3985138,5.4417572,4.1909332,5.9225769c1.4009552,0.2412262,2.7558136-0.1045456,3.8282928-0.8618851
						c1.0724792-0.7573471,1.8513641-1.9186249,2.0925903-3.3195724l0.8812561-5.117981
						c-2.0418091,1.2579041-4.5297089,1.8010025-7.0648499,1.3644867
						C240.4067535,99.1725464,239.2722626,98.7515182,238.2546997,98.1641159z"/>
				</g>
				<g>
					<path class="st26" d="M238.2546997,98.1641159l-0.4955597,2.8781052
						c0.6963959,0.2868958,1.4250031,0.5005188,2.1969604,0.6334381c0.9498749,0.163559,1.8931274,0.1895905,2.8087463,0.0920334
						c2.0520935-0.2186356,3.7250366,1.6276932,3.3748474,3.6614609l0,0
						c-0.0525208,0.3050385-0.133667,0.6051559-0.2400665,0.8811569c0.9834137-0.7531586,1.6841431-1.8591309,1.9105835-3.1742249
						l0.8812561-5.117981c-2.0418091,1.2579041-4.5297089,1.8010025-7.0648499,1.3644867
						C240.4067535,99.1725464,239.2722626,98.7515182,238.2546997,98.1641159z"/>
				</g>
				<g>
					<g>
						<g>
							<g>
								<path class="st35" d="M250.8039093,73.157959l-3.559906,18.2330322l5.3356323,1.0417557
									c1.5686646,0.3062744,3.0886078-0.7170944,3.3948822-2.2857666l2.2376099-11.4604645
									c0.4240112-2.1717148-0.9927979-4.2759705-3.164505-4.6999893L250.8039093,73.157959z"/>
							</g>
							<g>
								<path class="st35" d="M235.4165955,71.0722656l-2.5702362,13.1641617l17.4775543,3.4124069l2.5827026-13.2280045
									c0.3859863-2.1470108-1.0238342-4.2134247-3.1752014-4.6334686l-9.6174622-1.8777618
									C237.9412689,67.4853973,235.8407898,68.8996429,235.4165955,71.0722656z"/>
							</g>
						</g>
						<g>
							<path class="st35" d="M235.0764465,67.4346085l-0.8193207,4.1963806
								c-0.1954498,1.0010834,0.0091858,1.9918823,0.5044403,2.7962189c0.5532227,0.9041824,1.471405,1.5809479,2.5897675,1.7993011
								l9.9156342,1.9359818c2.5880737,0.5053024,5.0916901-1.16185,5.6396484-3.7416611
								c0.3859863-2.1470108-1.0238342-4.2134247-3.1752014-4.6334686L235.6620483,67.04039
								C235.3851166,66.9863205,235.1305237,67.1576843,235.0764465,67.4346085z"/>
						</g>
						<g>
							<path class="st14" d="M235.793808,81.5546417l-1.3607178,6.9692688
								c-0.9743652,4.9904099,2.2610168,10.1241074,7.2613831,11.0459747
								c2.4447174,0.4507141,4.843811-0.1053467,6.7565155-1.4158249c1.9598083-1.2965698,3.3890381-3.3470612,3.8729401-5.8254623
								l1.1901093-6.0955048c0.4473419-2.291153-1.0473633-4.5111389-3.3385162-4.9584732l-1.7432861-0.3403702
								c-0.3045044-0.0594482-0.6013489,0.0756912-0.7928619,0.3197937c-1.0794678,1.3759155-2.8755188,2.1058426-4.7071381,1.74823
								l-6.6530151-1.2989655C236.1225281,81.6727142,235.940033,81.637085,235.793808,81.5546417z"/>
						</g>
						<g>
							<path class="st14" d="M252.5172882,91.292038c1.7147827,0.3348007,3.3827057-0.7633667,3.7174225-2.4777832
								c0.3347473-1.7144241-0.7920227-3.3879318-2.5067902-3.7227325L252.5172882,91.292038z"/>
						</g>
						<g>
							<path class="st14" d="M235.071701,87.8858719c-1.7147675-0.3348007-2.8471222-1.9797058-2.5123901-3.6941299
								c0.3347321-1.7144165,2.0082397-2.8411865,3.7230072-2.5063858L235.071701,87.8858719z"/>
						</g>
						<g>
							<path class="st35" d="M253.9794464,83.8494339l-1.1054077,5.6615829l0,0
								c0.8553619,0.1670074,1.6841583-0.3910141,1.8511658-1.246376l0.803009-4.1128235L253.9794464,83.8494339z"/>
						</g>
						<g>
							<path class="st35" d="M236.0233307,80.3435898l-1.1053925,5.6615906l0,0
								c-0.8553619-0.1670074-1.4133911-0.9958038-1.2463837-1.8511658l0.803009-4.1128159L236.0233307,80.3435898z"/>
						</g>
					</g>
					<g>
						<g>
							<g>
								<g>
									<path class="st26" d="M241.4670105,91.1531601c-0.1457367,0.6733475,0.2876282,1.3358612,0.960968,1.4815979
										c0.2142181,0.0463638,0.4190063-0.085556,0.4653778-0.2997742c0.0447083-0.2066116-0.085556-0.4190216-0.2997742-0.4653854
										c-0.2525177-0.0546494-0.4144135-0.3059769-0.3614197-0.5508347
										c0.0563049-0.2601242,0.2999725-0.4236755,0.5601501-0.367363
										c0.2142181,0.0463638,0.4190063-0.0855103,0.4653778-0.2997742l0.6226807-2.8769989
										c0.0463562-0.2142181-0.085556-0.4190216-0.2997742-0.4653854
										c-0.2142792-0.0463715-0.4190216,0.085556-0.4653931,0.2997818l-0.5547791,2.5633011
										C242.0375977,90.2193756,241.5845795,90.6099319,241.4670105,91.1531601z"/>
								</g>
							</g>
							<g>
								<g>
									<path class="st26" d="M241.6653137,96.5346298c-0.1202087-0.0051346-0.2417603-0.020462-0.3637085-0.0468369
										c-1.0245972-0.2219315-1.7227478-1.1468048-1.659317-2.1993332
										c0.0150146-0.2486115,0.2382355-0.4451065,0.4777374-0.4234161
										c0.2486115,0.0150146,0.4384613,0.2286911,0.4234161,0.4777374
										c-0.036377,0.6045914,0.3627014,1.135994,0.9493103,1.2629242
										c0.5858917,0.1229248,1.1732178-0.1908264,1.3901215-0.7563934c0.09021-0.232605,0.3509521-0.3467712,0.5828247-0.2601166
										c0.233078,0.0893478,0.3494568,0.3501816,0.2601166,0.5828247
										C243.393219,96.0401306,242.5614166,96.5728531,241.6653137,96.5346298z"/>
								</g>
							</g>
						</g>
						<g>
							<g>
								<path class="st88" d="M248.7934875,89.4659653c-0.0269012-0.0011444-0.0537262-0.0041504-0.0813446-0.0099716
									c-0.2559662-0.0555267-0.4189301-0.3087234-0.3643036-0.5656586
									c0.082077-0.3774872-0.1593475-0.7520523-0.5368652-0.8331985c-0.3828583-0.0869598-0.7520599,0.1593399-0.834137,0.5368347
									c-0.0555267,0.2559586-0.3136749,0.4261475-0.5646973,0.3634033
									c-0.2568817-0.0555573-0.4198456-0.3087616-0.3634033-0.564682c0.1931305-0.8894196,1.075592-1.448349,1.9635925-1.2655106
									c0.8894043,0.1931229,1.4577026,1.0741348,1.2654572,1.9645157
									C249.2280579,89.320961,249.0198059,89.4756241,248.7934875,89.4659653z"/>
							</g>
						</g>
						<g>
							<g>
								<path class="st88" d="M240.5161438,87.7357407c-0.0269012-0.001152-0.0537109-0.0041504-0.0813446-0.0099792
									c-0.2559662-0.0555191-0.4189301-0.3087234-0.3643036-0.5656509
									c0.0820923-0.3774948-0.1593323-0.7520523-0.5368652-0.8332062c-0.1794128-0.042038-0.3687134-0.0045776-0.5263519,0.096489
									c-0.1586151,0.1019592-0.2665558,0.25811-0.3059235,0.4404221c-0.0555725,0.2568893-0.3051453,0.421875-0.5656586,0.364296
									c-0.2559662-0.0555191-0.4189301-0.3087234-0.3643036-0.5656509
									c0.0936127-0.4299622,0.3490753-0.7982025,0.7207642-1.0378876
									c0.3716736-0.2387619,0.8100433-0.3204193,1.2428284-0.2276154
									c0.8894196,0.1931229,1.4577026,1.0741272,1.2654724,1.9645081
									C240.9507141,87.5907288,240.7424774,87.7453918,240.5161438,87.7357407z"/>
							</g>
						</g>
						<g>
							<g>
								<path class="st88" d="M246.5350037,85.704567l3.2958527,0.7133331
									c0.2397461,0.0518875,0.4757233-0.1001205,0.5276184-0.3398666
									c0.0518799-0.2397461-0.1001282-0.4757309-0.3398743-0.5276184l-3.2958374-0.7133255
									c-0.2397461-0.0518875-0.4757233,0.1001205-0.5276184,0.339859
									C246.1432495,85.4166946,246.2952728,85.6526794,246.5350037,85.704567z"/>
							</g>
						</g>
						<g>
							<g>
								<path class="st88" d="M238.3102722,83.9244614l3.2962646,0.7134247
									c0.2397461,0.0518875,0.4757385-0.1001205,0.5276184-0.3398666c0.0518951-0.2397461-0.1001129-0.4757309-0.339859-0.5276184
									l-3.2962646-0.7134171c-0.2397461-0.0518875-0.4757385,0.1001205-0.5276184,0.339859
									C237.9185181,83.6365891,238.0705261,83.8725739,238.3102722,83.9244614z"/>
							</g>
						</g>
					</g>
				</g>
				<g>
					<g>
						<path class="st21" d="M275.3063354,169.9031525c0.0492249,0.4229126-0.2458801,0.81633-0.6687927,0.8949738
							l-19.9356842,3.5898285c-0.4229584,0.0983276-0.8360138,0.1278687-1.2589111,0.1278687
							c-2.8325195,0-5.4388428-1.90802-6.2354736-4.7208405l-4.9863434-17.8703918l-4.8979034,11.9988251l7.7402039,21.4700012
							c0.1475525,0.4130554-0.0393219,0.8458099-0.4425354,1.0326691l-7.8582764,3.9537354
							c-0.1081848,0.0491638-0.2261963,0.0786896-0.3343658,0.0786896c-0.2754059,0-0.5606079-0.1573944-0.7081604-0.4229584
							l-11.4972229-20.0635376c-1.3473969-2.4489288-1.7407684-5.2618103-1.0916748-7.9664612l3.5308228-13.306839
							l2.7046509-10.1695099h29.2003784l0.2655029,10.4055481l0.2852478,11.5759125l14.1821899-0.6687775
							c0.4229126-0.0393829,0.7868042,0.2950287,0.8457947,0.7179413L275.3063354,169.9031525z"/>
					</g>
				</g>
				<g>
					<g>
						<path class="st22" d="M243.6933289,181.5930176c-2.9316101,2.7510681-6.7048492,3.6436157-11.4814911,2.3204041
							l3.508255,6.1221313c0.1475525,0.265564,0.4327545,0.4229584,0.7081604,0.4229584
							c0.1081696,0,0.226181-0.0295258,0.3343658-0.0786896l7.8582764-3.9537354
							c0.4032135-0.1868591,0.5900879-0.6196136,0.4425354-1.0326691L243.6933289,181.5930176z"/>
					</g>
					<g>
						<path class="st22" d="M274.1457825,160.5598297c-0.0589905-0.4229126-0.4228821-0.7573242-0.8457947-0.7179413
							l-7.4663696,0.352066c2.3604126,3.7062836,1.7524719,7.8613739,0,12.1895294l8.8039246-1.5853577
							c0.4229126-0.0786438,0.7180176-0.4720612,0.6687927-0.8949738L274.1457825,160.5598297z"/>
					</g>
				</g>
				<g>
					<path class="st22" d="M258.83255,148.9347534h-2.0161743c-1.9867096,0-3.5996246-1.6129761-3.5996246-3.5996246v-6.8059235
						h5.350296L258.83255,148.9347534z"/>
				</g>
				<g>
					<path class="st22" d="M234.0284882,138.5292053l-1.9965515,7.8287506
						c-0.491745,1.9277039-2.4489288,3.0882263-4.3765564,2.5964813l-0.9933624-0.255722l2.7046509-10.1695099H234.0284882z"/>
				</g>
				<g>
					<path class="st21" d="M237.3107758,195.1496429l-2.572998-5.0066376
						c-0.1382294-0.2689819-0.0322418-0.5990906,0.2367401-0.7373199l10.1372986-5.159668
						c0.2689667-0.1382446,0.5990753-0.0322418,0.7373047,0.2367249l2.572998,5.0066376
						c0.1382294,0.2689819,0.0322418,0.5990906-0.2367401,0.7373199l-10.1372986,5.159668
						C237.7791138,195.5246124,237.4490051,195.4186096,237.3107758,195.1496429z"/>
				</g>
				<g>
					<path class="st21" d="M272.5266418,159.2040253l5.6051025-0.5193939
						c0.3011169-0.0279083,0.5678406,0.193573,0.5957642,0.4947052l1.0052185,11.3303375
						c0.0278931,0.3011322-0.193573,0.5678558-0.4947205,0.5957642l-5.605072,0.5193939
						c-0.3011169,0.0279083-0.5678711-0.1935883-0.5957642-0.4947205l-1.005249-11.3303223
						C272.0040283,159.4986572,272.2255249,159.2319183,272.5266418,159.2040253z"/>
				</g>
				<g>
					<path class="st22" d="M243.2628784,138.5292053v7.6136169h-0.5383301c-1.2788849,0-2.3156281-1.0367432-2.3156281-2.3156281
						v-5.2979889H243.2628784z"/>
				</g>
			</g>
			<g>
				<g>
					<path class="st3" d="M258.2871094,44.4607048v14.6102448c0,1.5343933,1.2390137,2.7638626,2.763855,2.7638626h0.9816895
						v3.9265556c0,0.419342,0.4955444,0.657608,0.8196106,0.3907242l5.3465881-4.3172798h15.3300781
						c1.5248413,0,2.7637939-1.2294693,2.7637939-2.7638626V44.4607048c0-1.5248528-1.2389526-2.7638016-2.7637939-2.7638016
						h-22.4779663C259.526123,41.6969032,258.2871094,42.9358521,258.2871094,44.4607048z"/>
				</g>
				<g>
					<g>
						<path class="st29" d="M262.0075378,51.1679459c0,0.2555847,0.0639038,0.4791908,0.2023621,0.6709442
							c0.1277771,0.1917534,0.3088074,0.3300781,0.5324707,0.4260178l4.7497864,2.0233612
							c0.1171875,0.053299,0.2556458,0.0852814,0.4153442,0.0852814c0.2449951,0,0.4473572-0.0746231,0.6177063-0.2342644
							c0.15979-0.1491127,0.2555847-0.3621902,0.2555847-0.6071129c0-0.3300781-0.1703491-0.5856628-0.479248-0.7134552
							l-3.9297791-1.6507721l3.9191284-1.6507721c0.3195496-0.1276588,0.4898987-0.3832474,0.4898987-0.7134514
							c0-0.2449265-0.0957947-0.4578705-0.2555847-0.6071129c-0.2662354-0.2449226-0.6389465-0.2982254-1.0330505-0.148983
							l-4.7497864,2.0340195c-0.2130127,0.0852814-0.4046936,0.2236061-0.5324707,0.4260178
							C262.0714417,50.7100792,262.0075378,50.9336815,262.0075378,51.1679459z"/>
					</g>
					<g>
						<path class="st29" d="M270.1865845,45.832386c-0.1916809,0.170433-0.2982178,0.3940353-0.2982178,0.6497498
							c0,0.1063423,0.0213013,0.212944,0.0532837,0.3087578l2.971283,9.2865982
							c0.0639038,0.2237358,0.1810303,0.3833771,0.3407898,0.5006409c0.15979,0.1063423,0.3301392,0.1596413,0.5218506,0.1596413
							c0.234314,0,0.4472656-0.0851517,0.6283569-0.2342644c0.1916809-0.1703033,0.2875061-0.3940353,0.2875061-0.6389618
							c0-0.1171341-0.0212708-0.2237358-0.0532532-0.3195457l-2.9606018-9.2865982
							c-0.0745544-0.2237358-0.1810913-0.3833771-0.3407898-0.5005112
							C270.985321,45.5234985,270.5167236,45.5448189,270.1865845,45.832386z"/>
					</g>
					<g>
						<path class="st29" d="M276.2889099,49.5171738l3.9297791,1.6507721l-3.9297791,1.6507721
							c-0.3088379,0.1277924-0.479187,0.3833771-0.479187,0.7134552c0,0.2449226,0.085144,0.4580002,0.2555847,0.6071129
							c0.1596985,0.1596413,0.3727112,0.2342644,0.6070251,0.2342644c0.159729,0,0.3088379-0.0319824,0.436615-0.0852814
							l4.7285156-2.0233612c0.2236633-0.0959396,0.4046936-0.2342644,0.5431519-0.4260178
							c0.1278076-0.1917534,0.1916809-0.4153595,0.1916809-0.6709442c0-0.2342644-0.0638733-0.4578667-0.1916809-0.6602821
							c-0.1384583-0.2024117-0.3194885-0.3407364-0.5538025-0.4260178l-4.7285156-2.0340195
							c-0.4153748-0.159771-0.7667542-0.0959396-1.0329895,0.148983c-0.1704407,0.1597748-0.2555847,0.3621864-0.2555847,0.6071129
							C275.8097229,49.1339264,275.980072,49.3895149,276.2889099,49.5171738z"/>
					</g>
				</g>
			</g>
			<g>
				<g>
					<g>
						<path class="st65" d="M78.8473663,205.0694885h14.2618484c1.3466644,0,2.3671951-1.2153625,2.1342697-2.5417328
							l-3.9996414-22.7759247c-0.251297-1.4310608-1.4942856-2.4747772-2.9472275-2.4747772h-7.704155L78.8473663,205.0694885z"/>
					</g>
					<g>
						<path class="st18" d="M68.6624451,178.8814392l-4.1874084,23.9160309
							c-0.2068329,1.1813049,0.7022095,2.2633362,1.9014893,2.2633362h17.9550629
							c0.9376907,0,1.739769-0.6738434,1.9014893-1.5974884l4.1874084-23.9160309
							c0.2068329-1.1813049-0.7022095-2.2633362-1.9014893-2.2633362H70.5639343
							C69.626236,177.2839508,68.8241653,177.9577942,68.6624451,178.8814392z"/>
					</g>
					<g>
						<g>
							<g>
								<path class="st65" d="M76.7663498,191.5946655c-1.3550568,0-2.5371094-0.532959-3.32901-1.501358
									c-0.8093185-0.9916229-1.1007614-2.2979126-0.8197708-3.6796722l0.8940887-4.4622803
									c0.0963745-0.4830475,0.5666351-0.7965546,1.049675-0.6990204c0.4830399,0.0963745,0.7953873,0.5666504,0.6990128,1.0496826
									l-0.8940887,4.4646149c-0.1730118,0.8499451-0.0116119,1.6290741,0.4528503,2.1980438
									c0.4458771,0.5457458,1.1379242,0.8464813,1.9472427,0.8464813c1.8334503,0,3.6994095-1.5559387,4.0733032-3.397522
									l0.8940811-4.4622803c0.0963745-0.4830475,0.5643158-0.7965546,1.049675-0.6990204
									c0.4830399,0.0963745,0.7953873,0.5666504,0.6990128,1.0496826l-0.8940811,4.4646149
									C82.0367966,189.4755859,79.47995,191.5946655,76.7663498,191.5946655z"/>
							</g>
						</g>
					</g>
				</g>
				<g>
					<g>
						<path class="st38" d="M55.8199615,209.3325806h18.6371078c1.7597961,0,3.0934067-1.5882111,2.7890244-3.3214874
							l-5.2266464-29.7631531c-0.3283997-1.8700562-1.9527054-3.2339783-3.851387-3.2339783h-10.067646L55.8199615,209.3325806z"/>
					</g>
					<g>
						<path class="st54" d="M42.5105057,175.1105347l-5.4720268,31.2530212
							c-0.2702827,1.5437012,0.9176331,2.9576874,2.4848289,2.9576874h23.4633293
							c1.2253609,0,2.2734947-0.8805695,2.4848289-2.0875702l5.472023-31.253006
							c0.2702866-1.5437164-0.9176331-2.9577026-2.4848251-2.9577026H44.9953346
							C43.7699738,173.0229645,42.7218361,173.9035339,42.5105057,175.1105347z"/>
					</g>
					<g>
						<g>
							<path class="st38" d="M53.397213,191.2676544c-1.5797539,0-2.9578094-0.6213379-3.8810272-1.7503204
								c-0.9435196-1.1560364-1.2832947-2.6789398-0.9557037-4.2898407l1.0423393-5.2022247
								c0.1123581-0.5631256,0.6606026-0.9286194,1.2237358-0.8149109c0.5631371,0.1123505,0.9272766,0.6605988,0.8149223,1.2237244
								l-1.0423431,5.2049408c-0.2016983,0.9909058-0.0135345,1.899231,0.5279388,2.5625305
								c0.5198174,0.6362305,1.3266182,0.9868469,2.2701378,0.9868469c2.1374741,0,4.3128548-1.8139496,4.7487411-3.960907
								l1.0423393-5.2022247c0.1123581-0.5631256,0.6578941-0.9286194,1.2237358-0.8149109
								c0.5631332,0.1123505,0.9272766,0.6605988,0.8149223,1.2237244l-1.0423431,5.2049408
								C59.5416069,188.7971802,56.5607834,191.2676544,53.397213,191.2676544z"/>
						</g>
					</g>
				</g>
				<g>
					<g>
						<path class="st4" d="M65.2863693,209.3325806h14.2618484c1.3466568,0,2.3671875-1.2153625,2.1342697-2.5417328
							l-3.9996414-22.7759247c-0.2513046-1.4310608-1.4942856-2.4747772-2.9472351-2.4747772h-7.704155L65.2863693,209.3325806z"/>
					</g>
					<g>
						<path class="st5" d="M55.1014442,183.1445313l-4.1874084,23.9160309
							c-0.2068329,1.1813049,0.7022095,2.2633362,1.9014893,2.2633362h17.9550667
							c0.9376907,0,1.739769-0.6738434,1.9014816-1.5974884l4.1874084-23.9160309
							c0.2068405-1.1813049-0.7022018-2.2633362-1.9014816-2.2633362H57.0029335
							C56.065239,181.5470428,55.2631645,182.2208862,55.1014442,183.1445313z"/>
					</g>
					<g>
						<g>
							<path class="st4" d="M63.205349,195.8577576c-1.3550568,0-2.5371056-0.532959-3.3290062-1.501358
								c-0.8093185-0.9916229-1.1007652-2.2979126-0.819767-3.6796722l0.8940811-4.4622803
								c0.0963745-0.4830475,0.5666389-0.7965546,1.049675-0.6990204c0.4830399,0.0963745,0.7953873,0.5666504,0.6990128,1.0496826
								l-0.8940849,4.4645996c-0.1730118,0.8499603-0.0116119,1.6290894,0.4528465,2.1980591
								c0.4458809,0.5457306,1.1379242,0.8464813,1.9472427,0.8464813c1.8334541,0,3.6994133-1.5559387,4.073307-3.397522
								l0.8940811-4.4622803c0.0963745-0.4830475,0.5643158-0.7965546,1.049675-0.6990204
								c0.4830399,0.0963745,0.7953873,0.5666504,0.6990128,1.0496826l-0.8940887,4.4645996
								C68.4757919,193.738678,65.9189529,195.8577576,63.205349,195.8577576z"/>
						</g>
					</g>
				</g>
			</g>
			<g>
				<g>
					<path class="st3" d="M85.8159561,87.9894257c0,9.9997406-8.1087341,18.1084747-18.0977859,18.1084747
						c-9.9998016,0-18.1085434-8.1087341-18.1085434-18.1084747c0-9.9890518,8.1087418-18.0977859,18.1085434-18.0977859
						C77.707222,69.8916397,85.8159561,78.0003738,85.8159561,87.9894257z"/>
				</g>
				<g>
					<g>
						<g>
							<path class="st48" d="M78.4666901,82.9386444v10.1112518c0,0.4382858-0.161438,0.8381424-0.4151993,1.1457214
								c-0.1383972,0.1691437-0.3075867,0.3075409-0.4921188,0.4151993
								c-0.2614517,0.1461029-0.5612946,0.2306671-0.8842697,0.2306671H58.7439613
								c-0.3152847,0-0.6074791-0.0768738-0.868885-0.2229691c-0.1922264-0.1076584-0.3614159-0.2460556-0.5075111-0.4228973
								c-0.2614059-0.307579-0.4075012-0.7074356-0.4075012-1.1457214V82.9386444
								c0-0.3306351,0.084568-0.6305237,0.2306671-0.8919754c0.1153069-0.1922302,0.2537537-0.3536682,0.4228935-0.4920731
								c0.0461349-0.0461349,0.1076622-0.0846176,0.1691856-0.1230545c0.0230446-0.0153427,0.0461349-0.0307388,0.0768738-0.0461273
								c0.0615273-0.0384369,0.138401-0.0768738,0.2152748-0.107666c0.1076584-0.0384293,0.2307129-0.0768661,0.3537178-0.0999603
								c0.0076981,0,0.0230904,0,0.0384369-0.0076523c0.0307884,0,0.0615273-0.0076904,0.0922661-0.0076904
								c0.0615273-0.0153961,0.1307487-0.0153961,0.1845818-0.0153961h17.9311409
								c0.4229431,0,0.8227463,0.1537933,1.1303329,0.3998489c0.169136,0.1384048,0.3152313,0.3075409,0.4228973,0.4997711
								C78.3744278,82.3081207,78.4666901,82.6080093,78.4666901,82.9386444z"/>
						</g>
						<g>
							<path class="st38" d="M78.2263031,82.0419769l-9.2369766,7.759079c-0.7389526,0.6259003-1.823555,0.6259003-2.5625076,0
								l-9.2310143-7.759079c0.3098602-0.5362778,0.8879356-0.893898,1.5494156-0.893898H76.676857
								C77.3383713,81.1480789,77.9164124,81.5056992,78.2263031,82.0419769z"/>
						</g>
						<g>
							<path class="st56" d="M78.2272873,82.0395203l-9.2342606,7.7605972c-0.7487259,0.6299133-1.8301773,0.6299133-2.567009,0
								l-9.2342606-7.7605972c0.1069221-0.1901855,0.2495995-0.344696,0.4159279-0.4873047
								c0.0594101-0.0474319,0.1188889-0.0831223,0.1782951-0.1188126c0.0237923-0.0118942,0.0475121-0.0356903,0.0713043-0.0475845
								c0.0713043-0.0356903,0.1426086-0.0831299,0.213913-0.1069183c0.1188164-0.0474396,0.2377052-0.0712357,0.3565178-0.1069183
								h0.0356903c0.035614,0,0.0713043-0.0118942,0.0950241-0.0118942
								c0.0594788-0.0119019,0.1307831-0.0119019,0.1901894-0.0119019h17.9336243
								c0.0832062,0,0.1664047,0.0119019,0.2496033,0.0237961c0.0713043,0,0.1307144,0.0118942,0.1901932,0.0356827
								c0.0831299,0.0237961,0.1663284,0.0474396,0.2376328,0.0831299c0.0713043,0.0237961,0.1307831,0.0593338,0.2020874,0.0950241
								c0.0831985,0.0475845,0.1663284,0.1070633,0.2376328,0.1663971
								C77.977684,81.68293,78.1202927,81.8493347,78.2272873,82.0395203z"/>
						</g>
					</g>
				</g>
			</g>
		</g>
	</g>
</g>
</svg>
