<?xml version="1.0" encoding="utf-8"?>
<!-- Generator: Adobe Illustrator 22.0.0, SVG Export Plug-In . SVG Version: 6.00 Build 0)  -->
<svg version="1.1" id="Layer_1" xmlns="http://www.w3.org/2000/svg" xmlns:xlink="http://www.w3.org/1999/xlink" x="0px" y="0px"
	 viewBox="0 0 300 300" style="enable-background:new 0 0 300 300;" xml:space="preserve">
<style type="text/css">
	.st0{fill:#F5F9FF;}
	.st1{opacity:0.6;}
	.st2{fill:#D0DBF1;}
	.st3{fill:#FF9A66;}
	.st4{fill:#E27950;}
	.st5{fill:#FF3B3B;}
	.st6{fill:#F91919;}
	.st7{fill:#1C1B1B;}
	.st8{fill:#424242;}
	.st9{fill:#3EAF73;}
	.st10{fill:#339967;}
	.st11{fill:#1E1313;}
	.st12{fill:#353535;}
	.st13{fill:#FC902E;}
	.st14{fill:#FCA93F;}
	.st15{fill:#FF6600;}
	.st16{fill:#E6F0FF;}
	.st17{fill:#EFC203;}
	.st18{fill:#2B2A2A;}
	.st19{fill:#BFCCE2;}
	.st20{fill:#2E2EFF;}
	.st21{fill:#FFCC00;}
	.st22{fill:#B2594D;}
	.st23{fill:#C2C2FF;}
	.st24{fill:#FF7F29;}
	.st25{fill:#FFFFFF;}
	.st26{fill:#AAAAF9;}
	.st27{fill:#8F8FE5;}
	.st28{fill:#9E4C3D;}
	.st29{fill:#FFAC88;}
	.st30{fill:#FFCC9A;}
	.st31{fill:#F9B57D;}
	.st32{fill:#8888FF;}
	.st33{fill:#6766FF;}
	.st34{fill:#FCC088;}
	.st35{fill:#E81313;}
	.st36{fill:#FFDA3E;}
	.st37{fill:#0505D8;}
	.st38{fill:#ABAAF8;}
	.st39{fill:#2E8E5B;}
	.st40{fill:#A07CDA;}
	.st41{fill:#9B9BF9;}
	.st42{fill:#160B0A;}
	.st43{fill:#F48427;}
	.st44{fill:#ED6203;}
	.st45{fill:#A4ECFF;}
	.st46{fill:#86D4EF;}
	.st47{fill:#F9BA9D;}
	.st48{fill:#EAA98F;}
	.st49{fill:#C34E1A;}
	.st50{fill:#ED0F0F;}
	.st51{fill:#934237;}
	.st52{fill:#574841;}
	.st53{fill:#0C0302;}
	.st54{fill:#FF2929;}
	.st55{fill:#492B26;}
	.st56{fill:#FF9045;}
	.st57{fill:#0000EA;}
	.st58{fill:#0000FE;}
	.st59{fill:#873830;}
	.st60{fill:#A4DEF7;}
	.st61{fill:#7878DD;}
	.st62{fill:#6060BF;}
	.st63{fill:#6766CC;}
	.st64{fill:#162C3A;}
	.st65{fill:#FFC081;}
	.st66{fill:#381B1B;}
	.st67{fill:#494BAF;}
	.st68{fill:#7B9DED;}
	.st69{fill:#5F6BD6;}
	.st70{fill:#EFAE95;}
	.st71{fill:#774825;}
	.st72{fill:#423A83;}
	.st73{fill:#5D5DF4;}
	.st74{fill:#5555E5;}
	.st75{fill:#FFCDB2;}
</style>
<g id="Container_Loading">
	<g>
		<g>
			<g>
				<path class="st0" d="M23.8296928,188.3061523c-8.1022444,6.9243011-10.6043653,19.0413055-7.6056767,29.2686768
					c2.2623634,7.7165833,7.2404251,14.3591309,13.457428,19.5375977c3.1746998,2.6443787,7.2219639,4.0113831,11.3537235,4.0113831
					h189.6487732c10.8675995,0,19.4002533-9.5423431,17.9304199-20.3100891
					c-0.0098572-0.0721436-0.0198822-0.1441956-0.0300903-0.216156c-1.0775909-7.5974731-3.7071686-15.0367126-3.4749146-22.7067108
					c0.345108-11.408844,7.6262665-22.330246,18.0249786-27.0364075
					c8.5770569-3.8816528,20.0110168-4.6798706,21.6880188-16.0988922c0.5243835-3.570755-0.139679-7.2158356-1.6285095-10.503479
					L255.199173,82.4345245c-2.9814911-6.5838699-6.1816711-13.4478912-11.9428864-17.8117447
					c-8.6066284-6.5189667-20.8745575-5.7553482-30.9299622-1.824131
					c-10.0559235,3.9312782-18.8082733,10.5627861-28.4651184,15.3918648
					c-21.8841095,10.9439468-48.481308,12.009285-71.1706161,2.8507614
					c-12.0203018-4.8520126-22.8240738-12.3455429-34.7927551-17.3232613
					c-11.9689484-4.9777222-26.0964622-7.2125969-37.640522-1.3160973
					c-13.6004486,6.9469757-19.9411201,23.7727585-18.4508991,38.9718018
					c1.4904804,15.1990356,9.3646431,29.0081482,18.139925,41.5071564
					c5.7179413,8.1442108,12.2108421,18.1066284,8.2867928,27.2513275
					C44.163372,179.616684,31.6754436,181.6007996,23.8296928,188.3061523z"/>
			</g>
			<g>
				<g>
					<g class="st1">
						<g>
							<path class="st2" d="M248.5843506,220.5975647c-0.2590179-1.8249207-0.6084595-3.6405334-0.9853058-5.4525299H15.6364241
								c0.1635351,0.8188782,0.3535252,1.6310883,0.5875254,2.4297638
								c2.2623215,7.7165985,7.2405338,14.3591461,13.4575291,19.5376282
								c3.1747532,2.6444092,7.2220173,4.0113678,11.353693,4.0113678h189.6487732
								c10.8676453,0,19.4003601-9.5423584,17.9304657-20.3100891
								C248.6045532,220.7415619,248.5944519,220.6695251,248.5843506,220.5975647z"/>
						</g>
					</g>
				</g>
			</g>
		</g>
		<g>
			<g>
				<g>
					<g>
						<g>
							<g>
								<path class="st2" d="M48.285778,99.819458c-0.2734375-0.0322266-0.4697266-0.2807617-0.4384766-0.5546875
									c0.0410156-0.3422852,0.0898438-0.6826172,0.1494141-1.0214844c0.046875-0.2729492,0.3066406-0.4521484,0.578125-0.4067383
									c0.2724609,0.0478516,0.4541016,0.3066406,0.40625,0.5786133c-0.0556641,0.3203125-0.1025391,0.6420898-0.1396484,0.9658203
									C48.8086929,99.6561813,48.5591736,99.852005,48.285778,99.819458z"/>
							</g>
							<g>
								<path class="st2" d="M68.0172195,157.3834229c-0.2763672-0.0083008-0.4931641-0.2392578-0.484375-0.5151367
									c0.0087891-0.2753906,0.265625-0.5102539,0.515625-0.4838867c0.6406631,0.0205078,1.284668-0.0149994,1.8984375-0.0991211
									c0.2675781-0.043457,0.5253906,0.152832,0.5634766,0.4272461c0.0380859,0.2734375-0.1533203,0.5258789-0.4267578,0.5629883
									C69.4013824,157.3692627,68.7293472,157.4045258,68.0172195,157.3834229z M65.962532,157.1480713
									c-0.6826172-0.1376953-1.3515625-0.3334961-1.9882774-0.5820313
									c-0.6132851-0.2401886-0.2557449-1.1711884,0.3652306-0.9316406
									c0.5820313,0.2280273,1.1943359,0.4072266,1.8203125,0.5332031
									c0.2705078,0.0546875,0.4462891,0.3183594,0.3916016,0.5888672
									C66.4965439,157.0285187,66.2298431,157.2031097,65.962532,157.1480713z M71.4742508,156.4952393
									c-0.0839844-0.2626953,0.0615234-0.5444336,0.3242188-0.628418c0.6074219-0.1933594,1.1933594-0.4418945,1.7412109-0.737793
									c0.2402344-0.1318359,0.5458984-0.0415039,0.6767578,0.2021484
									c0.1318359,0.2431641,0.0410156,0.5463867-0.2021484,0.6777344
									c-0.6015625,0.3251953-1.2451172,0.5981445-1.9111328,0.8110352
									C71.8425751,156.9026337,71.5596695,156.7612457,71.4742508,156.4952393z M62.1178093,155.6329346
									c-0.5947266-0.3730469-1.1484375-0.8027344-1.6464844-1.277832c-0.1992188-0.190918-0.2070313-0.5073242-0.015625-0.7070313
									c0.1904297-0.1992188,0.5068359-0.206543,0.7070313-0.0166016c0.4482422,0.4287109,0.9492188,0.8173828,1.4863281,1.1547852
									c0.234375,0.1464844,0.3046875,0.4550781,0.1582031,0.6889648
									C62.6578064,155.7116089,62.3487206,155.7786255,62.1178093,155.6329346z M75.0377274,154.7789307
									c-0.1767578-0.2124023-0.1484375-0.527832,0.0634766-0.7045898c0.4133759-0.3410339,0.9031525-0.8263397,1.328125-1.3442383
									c0.1767578-0.2138672,0.4921875-0.2441406,0.7041016-0.0688477
									c0.2128906,0.1748047,0.2441406,0.4902344,0.0693359,0.7036133
									c-0.4334946,0.5272064-0.9216003,1.0244904-1.4609375,1.4780273
									C75.5273819,155.0204926,75.2126846,154.9893951,75.0377274,154.7789307z M59.1187859,152.7686768
									c-0.390625-0.5644531-0.7324219-1.1748047-1.0136719-1.8144531
									c-0.1123047-0.2524414,0.0029297-0.5478516,0.2548828-0.6591797
									c0.2539063-0.1123047,0.5478516,0.0029297,0.6591797,0.2558594c0.2568359,0.581543,0.5673828,1.1362305,0.921875,1.6484375
									c0.1572266,0.2270508,0.1005859,0.5385742-0.1269531,0.6958008
									C59.5922241,153.0502014,59.2774658,152.9986877,59.1187859,152.7686768z M77.6900711,151.8453369
									c-0.2402344-0.1362305-0.3242188-0.4414063-0.1875-0.6816406c0.3056641-0.5390625,0.5761719-1.1201172,0.8046875-1.7270508
									c0.0966797-0.2597656,0.3857422-0.3881836,0.6435547-0.2929688c0.2587891,0.097168,0.3896484,0.3852539,0.2919922,0.6435547
									c-0.2460938,0.6567383-0.5390625,1.2856445-0.8710938,1.8706055
									C78.2349625,151.8993378,77.9287872,151.9811096,77.6900711,151.8453369z M57.4351921,148.9937744
									c-0.1640625-0.6650391-0.2724609-1.3520508-0.3242188-2.043457
									c-0.0467949-0.6597748,0.9488754-0.7346954,0.9980469-0.0732422c0.046875,0.6352539,0.1464844,1.2670898,0.296875,1.8774414
									c0.0664063,0.2680664-0.0976563,0.5390625-0.3662109,0.6049805
									C57.7810974,149.4257202,57.5021439,149.2680511,57.4351921,148.9937744z M79.228157,148.1954346
									c-0.2695313-0.0605469-0.4394531-0.328125-0.3789063-0.5976563
									c0.1376953-0.6098633,0.2373047-1.2490234,0.2978516-1.8984375
									c0.0263672-0.2753906,0.2705078-0.4785156,0.5439453-0.4516602
									c0.2753906,0.0258789,0.4775391,0.2695313,0.4521332,0.5444336
									c-0.0644379,0.6918945-0.1708832,1.3730469-0.3173676,2.0253906
									C79.7647781,148.0865021,79.497879,148.2557678,79.228157,148.1954346z M90.1051102,147.1295166
									c-0.1396484,0-0.2792969-0.0585938-0.3789063-0.1733398c-0.3955078-0.4584961-0.7373047-0.8413086-1.015625-1.1367188
									l-0.2988281-0.3173828c-0.1914063-0.199707-0.1835938-0.5161133,0.0166016-0.7070313
									c0.1992188-0.1904297,0.5166016-0.184082,0.7060547,0.0166016l0.3056641,0.3232422
									c0.2851563,0.3032227,0.6367188,0.6967773,1.0439453,1.1679688
									c0.1796875,0.2089844,0.1572266,0.5244141-0.0517578,0.7050781
									C90.337532,147.0894775,90.2213211,147.1295166,90.1051102,147.1295166z M57.582653,145.4278564
									c-0.2753906-0.0258789-0.4775391-0.2695313-0.4521484-0.5444336
									c0.0644531-0.6928711,0.1884766-1.378418,0.3681641-2.0380859c0.0722656-0.265625,0.3466797-0.4238281,0.6142578-0.3510742
									c0.265625,0.0727539,0.4228516,0.347168,0.3505859,0.6137695c-0.1640625,0.6040039-0.2783203,1.2324219-0.3369141,1.8681641
									C58.1004448,145.2539368,57.8538742,145.4532776,57.582653,145.4278564z M79.7135086,144.2618408
									c-0.2714844,0-0.4941406-0.2167969-0.5-0.4887695c-0.0136719-0.6347656-0.0654297-1.2817383-0.1533203-1.9233398
									c-0.0380859-0.2734375,0.1533203-0.5258789,0.4267578-0.5634766
									c0.2685547-0.0351563,0.5263672,0.152832,0.5634766,0.4277344c0.09375,0.6791992,0.1484375,1.3642578,0.1630859,2.0366211
									c0.0058594,0.2763672-0.2128906,0.5048828-0.4892578,0.5112305
									C79.7203445,144.2618408,79.7174149,144.2618408,79.7135086,144.2618408z M87.0328445,144.085083
									c-0.4638672-0.4643555-0.9345703-0.9233398-1.4140625-1.3725586
									c-0.2011719-0.1889648-0.2119141-0.5053711-0.0234375-0.706543
									c0.1904297-0.2021484,0.5058594-0.2109375,0.7070313-0.0229492c0.4873047,0.4570313,0.9658051,0.9228516,1.4375,1.3950195
									c0.1953125,0.1953125,0.1953125,0.512207,0,0.7070313C87.5445709,144.2803955,87.2281647,144.2803955,87.0328445,144.085083
									z M58.457653,141.5675049c-0.2490234-0.1196289-0.3535156-0.4189453-0.2333984-0.6674805
									c0.3046875-0.6328125,0.6708984-1.230957,1.0859375-1.777832c0.1679688-0.2202148,0.4804688-0.262207,0.7011719-0.0952148
									c0.2197266,0.1669922,0.2626953,0.4804688,0.0957031,0.7006836
									c-0.3759766,0.4936523-0.7060547,1.0341797-0.9824219,1.6069336
									C59.0037575,141.5859833,58.7022896,141.6863861,58.457653,141.5675049z M84.1578445,141.3980713
									c-0.4960938-0.4267578-1.0019531-0.8417969-1.5185547-1.2416992
									c-0.2177734-0.1689453-0.2578125-0.4829102-0.0888672-0.7011719c0.1699219-0.21875,0.4833984-0.2573242,0.7021484-0.0888672
									c0.5283203,0.409668,1.0478516,0.8354492,1.5576172,1.2739258c0.2089844,0.1796875,0.2333984,0.4956055,0.0527344,0.7050781
									C84.6833954,141.5541992,84.3675995,141.5786285,84.1578445,141.3980713z M78.6939774,139.956665
									c-0.0289078-0.1013641-0.1984482-0.8218231-0.5664063-1.8579102c-0.219223-0.621521,0.720665-0.9598694,0.9433594-0.3339844
									c0.3726578,1.0546112,0.5591583,1.8275299,0.5917969,1.9418945c0.0683594,0.2675781-0.0917969,0.5400391-0.359375,0.609375
									C79.0382614,140.3838501,78.7639771,140.2261505,78.6939774,139.956665z M81.0601883,139.0059814
									c-0.5566406-0.3769531-1.1123047-0.7265625-1.6513672-1.0390625
									c-0.2392578-0.1381836-0.3212891-0.4438477-0.1826172-0.6831055s0.4472656-0.3198242,0.6826172-0.1821289
									c0.5605469,0.3237305,1.1367188,0.6865234,1.7119141,1.0771484
									c0.2285156,0.1547852,0.2880859,0.4658203,0.1337891,0.6943359
									C81.5987778,139.1028595,81.2867813,139.1604767,81.0601883,139.0059814z M60.683239,138.3028564
									c-0.1845703-0.2060547-0.1669922-0.5219727,0.0380859-0.7060547
									c0.5087891-0.4560547,1.0673828-0.8735352,1.6611328-1.2407227c0.2314453-0.1459961,0.5419922-0.0732422,0.6875,0.1621094
									c0.1455078,0.2348633,0.0732269,0.5429688-0.1621094,0.6884766
									c-0.5429688,0.3359375-1.0537109,0.7177734-1.5185547,1.1342773
									C61.183979,138.5252991,60.8678474,138.5084839,60.683239,138.3028564z M77.6871414,137.0616455
									c-0.59375-0.2807617-1.1962891-0.5327148-1.7890625-0.7490234
									c-0.2597656-0.0947266-0.3935547-0.3813477-0.2988281-0.6411133
									c0.0947266-0.2587891,0.3857422-0.3925781,0.640625-0.2983398c0.2988281,0.1088867,0.5996094,0.2260742,0.8994141,0.3510742
									c-0.1865234-0.3920898-0.3867188-0.7880859-0.5976563-1.1821289
									c-0.1298828-0.2436523-0.0380859-0.546875,0.2060547-0.6767578
									c0.2421875-0.1289063,0.5458984-0.0395508,0.6767578,0.2050781c0.3232422,0.6064453,0.6230469,1.2167969,0.890625,1.8139648
									c0.0644531,0.1435547,0.0556641,0.3007813-0.0097656,0.4306641
									c0.1035156,0.1425781,0.1289063,0.3369141,0.0478516,0.5078125
									C78.2349243,137.074295,77.9352646,137.1787109,77.6871414,137.0616455z M63.9498405,136.0699463
									c-0.1054688-0.2548828,0.015625-0.5473633,0.270504-0.6533203c0.6191406-0.2568359,1.2763672-0.4746094,1.953125-0.6459961
									c0.2675781-0.0683594,0.5410156,0.0947266,0.6074219,0.3618164c0.0683594,0.2680664-0.09375,0.5400391-0.3613281,0.6079102
									c-0.6298828,0.1591797-1.2412109,0.3613281-1.8164063,0.6000977
									C64.3496399,136.4454193,64.0565338,136.3269196,63.9498405,136.0699463z M74.0504227,135.7515869
									c-0.6230469-0.1499023-1.2617188-0.2651367-1.8974609-0.3422852
									c-0.2734375-0.0336914-0.46875-0.2827148-0.4355469-0.5566406c0.0332031-0.2744141,0.2880859-0.4628906,0.5566406-0.4365234
									c0.6728516,0.0820313,1.3496094,0.2041016,2.0107422,0.362793c0.2685547,0.0649414,0.4335938,0.3349609,0.3691406,0.6030273
									C74.5899887,135.6456299,74.3270111,135.8156738,74.0504227,135.7515869z M67.7525711,134.9552002
									c-0.03125-0.2744141,0.1650391-0.5224609,0.4384766-0.5546875c1.1099319-0.1298828,2.0630569-0.1132813,1.9628906-0.1132813
									c0.7171402,0,0.6915665,1.0234985,0.0644531,1c-0.6904297,0-1.3066406,0.0356445-1.9101563,0.1064453
									C68.0352783,135.426178,67.7853699,135.2308197,67.7525711,134.9552002z M75.5670242,132.8424072
									c-0.3398438-0.5571289-0.6962891-1.1064453-1.0634766-1.6494141
									c-0.1542969-0.2285156-0.0947266-0.5395508,0.1337891-0.6943359
									c0.2285156-0.1538086,0.5390625-0.0957031,0.6943359,0.1337891
									c0.3769531,0.5556641,0.7412109,1.1186523,1.0888672,1.6894531c0.1435547,0.2358398,0.0693359,0.543457-0.1669922,0.6870117
									C76.019722,133.1525879,75.7104874,133.0785217,75.5670242,132.8424072z M73.3678055,129.5831299
									c-0.3867188-0.5317383-0.7832031-1.0571289-1.1845703-1.578125c-0.1689453-0.21875-0.1289063-0.5327148,0.0898438-0.7011719
									c0.2197266-0.1699219,0.5332031-0.128418,0.7011719,0.0908203c0.4072266,0.527832,0.8095703,1.0610352,1.2021484,1.5996094
									c0.1621094,0.2231445,0.1132813,0.5361328-0.1103516,0.6987305
									C73.8413239,129.8559875,73.5293198,129.8052063,73.3678055,129.5831299z M70.9615555,126.4464111l-1.2392578-1.5488281
									c-0.1728516-0.215332-0.1386719-0.5302734,0.0771484-0.703125c0.2138672-0.1708984,0.5302734-0.1381836,0.7021484,0.0771484
									l1.2431641,1.5537109c0.171875,0.2167969,0.1357422,0.53125-0.0810547,0.7026367
									C71.4495316,126.6977005,71.1345673,126.6648102,70.9615555,126.4464111z M68.4801102,123.3414307
									c-0.4121094-0.5224609-0.8212891-1.046875-1.2246094-1.5756836c-0.1679688-0.2197266-0.125-0.5332031,0.0947266-0.7006836
									c0.2167969-0.1674805,0.53125-0.1259766,0.7001953,0.0942383c0.3994141,0.5239258,0.8046875,1.0444336,1.2148438,1.5620117
									c0.1708984,0.2167969,0.1337891,0.53125-0.0820313,0.7021484
									C68.9672546,123.5946426,68.6513977,123.5585098,68.4801102,123.3414307z M66.0650711,120.1578369
									c-0.3916016-0.5444336-0.7724609-1.0942383-1.1396484-1.6518555
									c-0.2151031-0.3254166,0.0103989-0.7576828,0.3935547-0.7749023
									c0.2264252-0.3518677,0.4668732-0.122261,2.1816406-0.7055664c0.2617188-0.090332,0.5449219,0.050293,0.6347656,0.3120117
									c0.0888672,0.2612305-0.0507813,0.5454102-0.3125,0.6342773c-0.5615234,0.1914063-1.1445313,0.3491211-1.7373047,0.4702148
									c0.2587891,0.3803711,0.5224609,0.7573242,0.7919922,1.1318359
									c0.1611328,0.2241211,0.1103516,0.5366211-0.1142578,0.6977539
									C66.5356293,120.4342422,66.2248917,120.379982,66.0650711,120.1578369z M61.7398796,118.6851807
									c-0.2753906-0.0244141-0.4785156-0.2670898-0.4541016-0.5419922
									c0.0234375-0.2763672,0.2822266-0.4799805,0.5419922-0.4541016
									c0.6386719,0.0556641,1.2783203,0.0688477,1.9169922,0.0395508c0.2675743-0.0112305,0.5107384,0.199707,0.5224571,0.4760742
									c0.0136719,0.2758789-0.2001953,0.5097656-0.4755821,0.5229492
									C63.1221657,118.759346,62.4274025,118.746109,61.7398796,118.6851807z M59.7105827,118.3648682
									c-0.671875-0.1538086-1.3339844-0.355957-1.9677734-0.6005859
									c-0.2578125-0.0991211-0.3857422-0.3886719-0.2871094-0.6464844
									c0.0996094-0.2578125,0.3896484-0.3867188,0.6464844-0.2861328
									c0.5898438,0.2275391,1.2060547,0.4155273,1.8310547,0.5585938c0.2695313,0.0615234,0.4375,0.3295898,0.3759766,0.5986328
									C60.246418,118.2650757,59.9698677,118.4262772,59.7105827,118.3648682z M69.0426102,116.9508057
									c-0.1279297-0.2446289-0.0332031-0.546875,0.2119141-0.6748047
									c0.5683594-0.2973633,1.1083984-0.6396484,1.6064453-1.0170898
									c0.2177734-0.1665039,0.5332031-0.1235352,0.7001953,0.0961914
									c0.1669922,0.2202148,0.1240234,0.5336914-0.0966797,0.7006836
									c-0.5419922,0.4111328-1.1289063,0.7832031-1.7470703,1.105957
									C69.4832611,117.2866287,69.1753387,117.2025528,69.0426102,116.9508057z M63.8570671,116.8013916
									c-0.3417969-0.5795898-0.6669922-1.1679688-0.9726563-1.7675781
									c-0.1259766-0.2460938-0.0273438-0.5473633,0.21875-0.6723633c0.2431641-0.1235352,0.546875-0.0283203,0.671875,0.2182617
									c0.2958946,0.5810547,0.6113243,1.1513672,0.9433556,1.7128906c0.140625,0.237793,0.0615234,0.5444336-0.1767578,0.6850586
									C64.3074265,117.1164551,63.9998856,117.0416565,63.8570671,116.8013916z M55.879528,116.8790283
									c-0.584713-0.3381424-1.1425438-0.7157211-1.7011719-1.15625c-0.2167969-0.1713867-0.2539063-0.4853516-0.0830078-0.7021484
									c0.171875-0.2158203,0.4863281-0.253418,0.7021484-0.0830078c0.483654,0.381958,1.0237045,0.7537384,1.5820313,1.0751953
									c0.2392578,0.1381836,0.3212891,0.4438477,0.1826172,0.6831055
									C56.4261208,116.9332428,56.1208954,117.0175934,55.879528,116.8790283z M72.2935867,114.6920166
									c-0.2041016-0.1865234-0.2167969-0.5029297-0.0302734-0.7060547
									c0.4485703-0.4903641,0.8343201-1.0054016,1.1416016-1.5053711
									c0.1455078-0.2353516,0.4541016-0.3081055,0.6884766-0.1625977c0.2353516,0.1450195,0.3076172,0.453125,0.1630859,0.6879883
									c-0.3773193,0.6089935-0.8019333,1.1608505-1.2568359,1.6557617
									C72.8127136,114.8653336,72.4961777,114.8791046,72.2935867,114.6920166z M52.6578484,114.3443604
									c-0.46875-0.4868164-0.9140625-1.012207-1.3242188-1.5620117c-0.1650391-0.2211914-0.1201172-0.5341797,0.1015625-0.699707
									c0.2197266-0.1645508,0.5341797-0.1210938,0.6992188,0.1020508
									c0.3857422,0.5161133,0.8037109,1.0092773,1.2441406,1.4663086
									c0.1914063,0.1987305,0.1855469,0.5151367-0.0136719,0.7070313
									C53.1687012,114.5472717,52.8523369,114.5455933,52.6578484,114.3443604z M62.0308952,113.2017822
									c-0.0386429-0.1004028-0.3789291-0.8551865-0.6855469-1.9301758
									c-0.0761719-0.2651367,0.0771484-0.5419922,0.3427734-0.6181641c0.2666016-0.074707,0.5429688,0.0786133,0.6181641,0.34375
									c0.2897682,1.0123596,0.5930939,1.6801987,0.6445313,1.8139648
									c0.1083984,0.2543945-0.0107422,0.5478516-0.2646484,0.6557617
									C62.4337158,113.5737305,62.1383057,113.4572144,62.0308952,113.2017822z M74.531868,111.4317627
									c-0.2578125-0.0986328-0.3867188-0.3876953-0.2880859-0.6455078
									c0.2265625-0.5917969,0.3994064-1.2045898,0.5117188-1.8217773
									c0.0498047-0.2714844,0.3154297-0.4560547,0.5820313-0.4013672
									c0.2714844,0.0498047,0.4521484,0.3100586,0.4023438,0.5820313c-0.125,0.6772461-0.3134766,1.3496094-0.5625,1.9985352
									C75.0784912,111.4023056,74.7889938,111.5303268,74.531868,111.4317627z M50.2105827,111.0709229
									c-0.3349609-0.5839844-0.6416016-1.1987305-0.9121094-1.8271484
									c-0.109375-0.253418,0.0078125-0.5478516,0.2607422-0.6567383c0.2519531-0.1083984,0.5488281,0.0078125,0.6572266,0.2612305
									c0.2558594,0.59375,0.5458984,1.1743164,0.8613281,1.7255859c0.1376953,0.2397461,0.0546875,0.5449219-0.1845856,0.6826172
									C50.6461411,111.3952484,50.3445015,111.3059998,50.2105827,111.0709229z M60.9058952,109.2716064
									c-0.1064453-0.6928711-0.1650391-1.3823242-0.1728516-2.0493164
									c-0.0029297-0.2758789,0.2177734-0.5024414,0.4941406-0.5058594c0.0019531,0,0.0039063,0,0.0058594,0
									c0.2734375,0,0.4970703,0.2197266,0.5,0.4941406c0.0078125,0.6201172,0.0615234,1.262207,0.1611328,1.9086914
									c0.0419922,0.2729492-0.1455078,0.5283203-0.4179688,0.5703125
									C61.2031555,109.7315826,60.9479599,109.5445099,60.9058952,109.2716064z M48.5924187,107.3287354
									c-0.199234-0.6445313-0.3662109-1.3095703-0.4980469-1.9755859
									c-0.0537109-0.2709961,0.1220703-0.5341797,0.3935547-0.5874023
									c0.2666016-0.0546875,0.5332031,0.1220703,0.5869141,0.3930664
									c0.1259766,0.6328125,0.2841797,1.2636719,0.4726563,1.8759766c0.0820313,0.2636719-0.0664063,0.543457-0.3300781,0.625
									C48.9526329,107.7402649,48.6727791,107.5926132,48.5924187,107.3287354z M75.4137039,107.5777588
									c-0.2724609,0-0.4951172-0.21875-0.5-0.4916992c-0.0097656-0.6386719-0.0869141-1.2646484-0.2285156-1.8603516
									c-0.0634766-0.269043,0.1025391-0.5385742,0.3710938-0.6020508
									c0.2626953-0.0649414,0.5371094,0.1025391,0.6015625,0.3706055
									c0.1582031,0.6665039,0.2441406,1.3647461,0.2558594,2.0751953
									c0.0039063,0.2763672-0.2158203,0.5039063-0.4921875,0.5083008
									C75.4185867,107.5777588,75.4166336,107.5777588,75.4137039,107.5777588z M61.2916374,105.7301025
									c-0.2724609-0.043457-0.4580078-0.2998047-0.4150391-0.5722656
									c0.1152344-0.7197266,0.2978516-1.3989258,0.5439453-2.0200195
									c0.1025391-0.2573242,0.3955078-0.3818359,0.6484375-0.2807617c0.2568359,0.1015625,0.3828125,0.3920898,0.28125,0.6489258
									c-0.21875,0.5532227-0.3828125,1.1621094-0.4853516,1.809082
									C61.8203201,105.5889282,61.5636063,105.7738113,61.2916374,105.7301025z M47.8023796,103.3370361
									c-0.1062927-1.1252136-0.0819168-1.9292374-0.0839844-2.0380859c0.0070839-0.6672668,1.0093765-0.6487045,1,0.0136719
									c0.0021362,0.1103592-0.0236092,0.8325272,0.0800781,1.9306641
									c0.0253906,0.2749023-0.1757813,0.5185547-0.4511719,0.5444336
									C48.0941429,103.8193665,47.8295746,103.6258774,47.8023796,103.3370361z M74.0426102,103.4786377
									c-0.2966309-0.5787964-0.6493378-1.0711136-1.0585938-1.5058594
									c-0.1894531-0.2011719-0.1796875-0.5175781,0.0214844-0.7070313
									c0.2011719-0.1889648,0.5175781-0.1796875,0.7070313,0.0214844c0.5170364,0.5499725,0.8953094,1.1071548,1.21875,1.7333984
									c0.1269531,0.2456055,0.0302734,0.5473633-0.2158203,0.6738281
									C74.471283,103.8198013,74.1696396,103.7250137,74.0426102,103.4786377z M62.551403,101.9923096
									c-0.21875-0.168457-0.2587891-0.4824219-0.0898438-0.7011719c0.4375-0.5683594,0.9599609-1.0615234,1.5507774-1.465332
									c0.2265625-0.1542969,0.5390625-0.097168,0.6953125,0.1303711c0.1552734,0.2280273,0.0966797,0.5390625-0.1308594,0.6948242
									c-0.5039063,0.3447266-0.9492149,0.765625-1.3242149,1.2504883
									C63.0850296,102.1209717,62.7685814,102.1604538,62.551403,101.9923096z M71.547493,100.803833
									c-0.5273438-0.3271484-1.0957031-0.5878906-1.6884766-0.7744141
									c-0.2636719-0.0834961-0.4091797-0.3642578-0.3261719-0.6274414s0.3652344-0.4091797,0.6269531-0.3266602
									c0.671875,0.2124023,1.3164063,0.5078125,1.9150391,0.8789063c0.234375,0.1450195,0.3066406,0.4536133,0.1611328,0.6879883
									C72.0880737,100.8808365,71.7774353,100.9475479,71.547493,100.803833z M65.6080399,99.5435791
									c-0.0712891-0.2670898,0.0878906-0.5410156,0.3544922-0.6123047
									c0.6757813-0.1811523,1.4208984-0.2563477,2.1162109-0.2255859
									c0.2763672,0.0107422,0.4912109,0.2436523,0.4804688,0.5195313s-0.2490234,0.5151367-0.5195313,0.4794922
									c-0.1000061,0.0046005-0.8592606-0.0638275-1.8193359,0.1923828
									C66.1773758,99.9088135,65.6809998,99.8124542,65.6080399,99.5435791z"/>
							</g>
							<g>
								<path class="st2" d="M92.0924149,149.4923096c-0.1445313,0-0.2871094-0.0620117-0.3857422-0.1821289l-0.6367188-0.7685547
									c-0.1757813-0.2124023-0.1474609-0.527832,0.0654297-0.7041016c0.2109375-0.175293,0.5263672-0.1474609,0.7041016,0.0644531
									l0.6386719,0.7724609c0.1757813,0.2133789,0.1455078,0.5288086-0.0683594,0.7041016
									C92.3170242,149.4552002,92.2047195,149.4923096,92.0924149,149.4923096z"/>
							</g>
						</g>
						<g>
							<g>
								<path class="st2" d="M55.3001862,86.0121765l-4.0141716,2.476944l-4.2082138,2.5892563l-6.3735962,3.9324341
									c-0.3472786,0.2145233-0.801815,0.143013-1.0673904-0.1685104l-12.4101448-14.417244
									c-0.2604656-0.3013-0.2553539-0.6843262-0.086813-0.9703217c0.0510597-0.0868454,0.1123409-0.1634293,0.1940708-0.219635
									c0.173624-0.1531982,0.4187832-0.2297897,0.6894417-0.1736221l27.0010147,5.4185867
									C55.7700233,84.6281891,55.9436493,85.6138458,55.3001862,86.0121765z"/>
							</g>
							<g>
								<path class="st16" d="M51.2860146,88.4891205l-2.4871368,7.7729263l-1.721077-5.18367l-19.9379444-11.623642
									c0.0510597-0.0868454,0.1123409-0.1634293,0.1940708-0.219635L51.2860146,88.4891205z"/>
							</g>
							<g>
								<polygon class="st19" points="48.7999344,96.2608795 44.5701332,92.6277924 47.0795441,91.0800705 								"/>
							</g>
						</g>
					</g>
					<g>
						<g>
							<g>
								<path class="st8" d="M197.640274,118.4981689c-0.0683594,0-0.1367188-0.0136719-0.203125-0.0429688l-28.5-12.6757813
									c-0.2363281-0.1054688-0.3535156-0.3735352-0.2705078-0.6186523
									c0.0830078-0.2441406,0.3427734-0.3876953,0.5917969-0.3242188l52.046875,12.6757813
									c0.2685547,0.0654297,0.4326172,0.3359375,0.3671875,0.6040039s-0.3330078,0.4345703-0.6035156,0.3676758
									l-46.6513672-11.3618164l23.4257813,10.4189453c0.2519531,0.1123047,0.3662109,0.4077148,0.2539063,0.6601563
									C198.0142975,118.3878174,197.8316803,118.4981689,197.640274,118.4981689z"/>
							</g>
							<g>
								<path class="st8" d="M123.5582352,118.4981689c-0.21875,0-0.4199219-0.1450195-0.4814453-0.3662109
									c-0.0742188-0.2661133,0.0810547-0.5415039,0.3476563-0.6157227l45.5820389-12.6757813
									c0.2519531-0.0673828,0.5107422,0.0639648,0.6015625,0.3056641c0.0917969,0.2421875-0.0175781,0.5136719-0.25,0.6264648
									l-26.2412109,12.6757813c-0.2470703,0.1201172-0.5478516,0.0170898-0.6679688-0.2329102
									c-0.1201172-0.2485352-0.015625-0.5473633,0.2324219-0.6674805l21.2177734-10.2490234l-40.2070389,11.1811523
									C123.6471024,118.4923096,123.6021805,118.4981689,123.5582352,118.4981689z"/>
							</g>
						</g>
						<g>
							<path class="st8" d="M169.1422272,106.5894775c-1.1337891,0-2.0556641-0.9223633-2.0556641-2.0556641
								c0-0.2763672,0.2236328-0.5,0.5-0.5s0.5,0.2236328,0.5,0.5c0,0.5820313,0.4736328,1.0556641,1.0556641,1.0556641
								s1.0556641-0.4736328,1.0556641-1.0556641c0-0.4550781-0.2900391-0.8574219-0.7226563-1.0019531
								c-0.4980469-0.1655273-0.8330078-0.6542969-0.8330078-1.215332v-1.5869141c0-0.2763672,0.2236328-0.5,0.5-0.5
								s0.5,0.2236328,0.5,0.5v1.5869141c0,0.1240234,0.0644531,0.2382813,0.1494141,0.2666016
								c0.8408203,0.28125,1.40625,1.0649414,1.40625,1.9506836
								C171.1978912,105.6671143,170.2760162,106.5894775,169.1422272,106.5894775z"/>
						</g>
						<g>
							<g>
								<path class="st8" d="M100.3267899,169.5675049l-4.2626953-3.0644531
									c-4.5595703-3.2768555-4.5595703-3.2768555-4.4472656-3.6240234
									c0.0322266-0.1015625,0.0966797-0.1904297,0.1835938-0.2529297l7.9619141-5.7216797l-3.6982422-2.6582031
									c-4.5595703-3.2763672-4.5595703-3.2763672-4.4472656-3.6235352
									c0.0322266-0.1015625,0.0966797-0.1904297,0.1835938-0.2529297l7.9619141-5.7216797l-3.6982422-2.6582031
									c-4.5595703-3.2763672-4.5595703-3.2763672-4.4472656-3.6235352
									c0.0322266-0.1015625,0.0966797-0.1904297,0.1835938-0.2524414l7.9619141-5.7226563l-3.6982422-2.6582031
									c-4.5595703-3.2763672-4.5595703-3.2763672-4.4472656-3.6235352
									c0.0322266-0.1015625,0.0966797-0.1904297,0.1835938-0.2529297l7.9619141-5.7216797l-3.6982422-2.6582031
									c-4.5595703-3.2763672-4.5595703-3.2763672-4.4472656-3.6235352
									c0.0322266-0.1015625,0.0966797-0.1904297,0.1835938-0.2529297l7.9619141-5.7216797l-3.6982422-2.6582031
									c-4.5595703-3.2763672-4.5595703-3.2763672-4.4472656-3.6235352
									c0.0322266-0.1015625,0.0966797-0.1904297,0.1835938-0.2529297l7.9619141-5.722168l-7.9628906-5.722168
									c-0.2236328-0.1616211-0.2753906-0.4736328-0.1142578-0.6982422
									c0.1611328-0.2250977,0.4736328-0.2753906,0.6982422-0.1142578l8.5273438,6.128418
									c0.1308594,0.0942383,0.2080078,0.2451172,0.2080078,0.40625s-0.0771484,0.3120117-0.2080078,0.40625l-7.9619141,5.722168
									c1.9003906,1.3662109,7.9619141,5.722168,7.9619141,5.722168c0.1308594,0.0942383,0.2080078,0.2451172,0.2080078,0.40625
									s-0.0771484,0.3120117-0.2080078,0.40625l-7.9619141,5.7216797c1.9003906,1.3666992,7.9619141,5.722168,7.9619141,5.722168
									c0.1308594,0.0942383,0.2080078,0.2451172,0.2080078,0.40625s-0.0771484,0.3120117-0.2080078,0.40625l-7.9619141,5.7216797
									c1.9003906,1.3666992,7.9619141,5.722168,7.9619141,5.722168c0.1308594,0.0942383,0.2080078,0.2451172,0.2080078,0.40625
									s-0.0771484,0.3120117-0.2080078,0.4057617l-7.9619141,5.7226563
									c1.9003906,1.3662109,7.9619141,5.722168,7.9619141,5.722168c0.1308594,0.0942383,0.2080078,0.2451172,0.2080078,0.40625
									s-0.0771484,0.3120117-0.2080078,0.40625l-7.9619141,5.7216797c1.9003906,1.3666992,7.9619141,5.722168,7.9619141,5.722168
									c0.1308594,0.0942383,0.2080078,0.2451172,0.2080078,0.40625s-0.0771484,0.3120117-0.2080078,0.40625l-7.9619141,5.7216797
									c1.9003906,1.3662109,7.9619141,5.7226563,7.9619141,5.7226563L100.3267899,169.5675049z"/>
							</g>
							<g>
								<g>
									<path class="st26" d="M190.6238403,119.2134476v37.9639359c0,1.1045685,0.8954315,2,2,2h28.1279755
										c0.5522919,0,1-0.4477081,1-1v-39.9639359c0-0.5522842-0.4477081-1-1-1h-28.1279755
										C191.5192719,117.2134476,190.6238403,118.1088791,190.6238403,119.2134476z"/>
								</g>
								<g>
									<path class="st27" d="M220.1741791,120.2589493v7.9700241c0,0.5522919-0.4477081,1-1,1h-20.6899414
										c-0.5522766,0-1-0.4477081-1-1v-7.9700241c0-0.5522842,0.4477234-1,1-1h20.6899414
										C219.7264709,119.2589493,220.1741791,119.706665,220.1741791,120.2589493z"/>
								</g>
								<g>
									<path class="st27" d="M220.1741791,134.3589783v7.6799927c0,0.5522919-0.4477081,1-1,1h-20.6899414
										c-0.5522766,0-1-0.4477081-1-1v-7.6799927c0-0.5522766,0.4477234-1,1-1h20.6899414
										C219.7264709,133.3589783,220.1741791,133.8067017,220.1741791,134.3589783z"/>
								</g>
								<g>
									<path class="st27" d="M198.4842377,147.1589661h20.6899414c0.5522919,0,1,0.4477234,1,1v7.9699707
										c0,0.5522919-0.4477081,1-1,1h-20.6899414c-0.5522766,0-1-0.4477081-1-1v-7.9699707
										C197.4842377,147.6066895,197.9319611,147.1589661,198.4842377,147.1589661z"/>
								</g>
								<g>
									<rect x="202.154541" y="117.2134476" class="st23" width="1.5599509" height="41.9639359"/>
								</g>
								<g>
									<rect x="208.054245" y="117.2134476" class="st23" width="1.5599509" height="41.9639359"/>
								</g>
								<g>
									<rect x="213.953949" y="117.2134476" class="st23" width="1.5599509" height="41.9639359"/>
								</g>
								<g>
									<path class="st23" d="M195.9142303,117.2134476v41.9639359h-72.178299c-0.5522842,0-1-0.4477081-1-1v-39.9639359
										c0-0.5522842,0.4477158-1,1-1H195.9142303z"/>
								</g>
								<g>
									<path class="st26" d="M187.5168304,122.2139053h2.3973389c0.5522919,0,1,0.4477158,1,1v29.9638596
										c0,0.5522919-0.4477081,1-1,1h-2.3973389c-0.5522766,0-1-0.4477081-1-1v-29.9638596
										C186.5168304,122.6616211,186.9645538,122.2139053,187.5168304,122.2139053z"/>
								</g>
								<g>
									<path class="st27" d="M189.9141693,122.2139053h-0.3935547v31.9638596h0.3935547c0.5523071,0,1-0.4477539,1-1v-29.9638596
										C190.9141693,122.6615982,190.4664764,122.2139053,189.9141693,122.2139053z"/>
								</g>
								<g>
									<path class="st26" d="M170.7221527,122.2139053h2.3973389c0.5522919,0,1,0.4477158,1,1v29.9638596
										c0,0.5522919-0.4477081,1-1,1h-2.3973389c-0.5522766,0-1-0.4477081-1-1v-29.9638596
										C169.7221527,122.6616211,170.1698761,122.2139053,170.7221527,122.2139053z"/>
								</g>
								<g>
									<path class="st27" d="M173.1194916,122.2139053h-0.3935547v31.9638596h0.3935547c0.5523071,0,1-0.4477539,1-1v-29.9638596
										C174.1194916,122.6615982,173.6717987,122.2139053,173.1194916,122.2139053z"/>
								</g>
								<g>
									<path class="st26" d="M162.3248138,122.2139053h2.3973389c0.5522919,0,1,0.4477158,1,1v29.9638596
										c0,0.5522919-0.4477081,1-1,1h-2.3973389c-0.5522766,0-1-0.4477081-1-1v-29.9638596
										C161.3248138,122.6616211,161.7725372,122.2139053,162.3248138,122.2139053z"/>
								</g>
								<g>
									<path class="st27" d="M164.7221527,122.2139053h-0.3935547v31.9638596h0.3935547c0.5523071,0,1-0.4477539,1-1v-29.9638596
										C165.7221527,122.6615982,165.2744598,122.2139053,164.7221527,122.2139053z"/>
								</g>
								<g>
									<path class="st26" d="M153.927475,122.2139053h2.3973389c0.5522919,0,1,0.4477158,1,1v29.9638596
										c0,0.5522919-0.4477081,1-1,1h-2.3973389c-0.5522766,0-1-0.4477081-1-1v-29.9638596
										C152.927475,122.6616211,153.3751984,122.2139053,153.927475,122.2139053z"/>
								</g>
								<g>
									<path class="st27" d="M156.3248138,122.2139053h-0.3935547v31.9638596h0.3935547c0.5523071,0,1-0.4477539,1-1v-29.9638596
										C157.3248138,122.6615982,156.877121,122.2139053,156.3248138,122.2139053z"/>
								</g>
								<g>
									<path class="st26" d="M145.5301361,122.2139053h2.3973389c0.5522919,0,1,0.4477158,1,1v29.9638596
										c0,0.5522919-0.4477081,1-1,1h-2.3973389c-0.5522766,0-1-0.4477081-1-1v-29.9638596
										C144.5301361,122.6616211,144.9778595,122.2139053,145.5301361,122.2139053z"/>
								</g>
								<g>
									<path class="st27" d="M147.927475,122.2139053h-0.3935547v31.9638596h0.3935547c0.5523071,0,1-0.4477539,1-1v-29.9638596
										C148.927475,122.6615982,148.4797821,122.2139053,147.927475,122.2139053z"/>
								</g>
								<g>
									<path class="st26" d="M137.1327972,122.2139053h2.3973389c0.5522919,0,1,0.4477158,1,1v29.9638596
										c0,0.5522919-0.4477081,1-1,1h-2.3973389c-0.5522766,0-1-0.4477081-1-1v-29.9638596
										C136.1327972,122.6616211,136.5805206,122.2139053,137.1327972,122.2139053z"/>
								</g>
								<g>
									<path class="st27" d="M139.5301361,122.2139053h-0.3935547v31.9638596h0.3935547c0.5523071,0,1-0.4477539,1-1v-29.9638596
										C140.5301361,122.6615982,140.0824432,122.2139053,139.5301361,122.2139053z"/>
								</g>
								<g>
									<path class="st26" d="M128.7354584,122.2139053h2.3973389c0.5522919,0,1,0.4477158,1,1v29.9638596
										c0,0.5522919-0.4477081,1-1,1h-2.3973389c-0.5522766,0-0.9999924-0.4477081-0.9999924-1v-29.9638596
										C127.735466,122.6616211,128.1831818,122.2139053,128.7354584,122.2139053z"/>
								</g>
								<g>
									<path class="st27" d="M131.1327972,122.2139053h-0.3935547v31.9638596h0.3935547c0.5523071,0,1-0.4477539,1-1v-29.9638596
										C132.1327972,122.6615982,131.6851044,122.2139053,131.1327972,122.2139053z"/>
								</g>
								<g>
									<path class="st26" d="M179.1194916,122.2139053h2.3973389c0.5522919,0,1,0.4477158,1,1v29.9638596
										c0,0.5522919-0.4477081,1-1,1h-2.3973389c-0.5522766,0-1-0.4477081-1-1v-29.9638596
										C178.1194916,122.6616211,178.567215,122.2139053,179.1194916,122.2139053z"/>
								</g>
								<g>
									<path class="st27" d="M181.5168304,122.2139053h-0.3935547v31.9638596h0.3935547c0.5523071,0,1-0.4477539,1-1v-29.9638596
										C182.5168304,122.6615982,182.0691376,122.2139053,181.5168304,122.2139053z"/>
								</g>
							</g>
						</g>
						<g>
							<g>
								<path class="st8" d="M169.443985,86.8277588L169.443985,86.8277588c-0.1611328,0-0.3125-0.0776367-0.40625-0.2080078
									l-5.7216797-7.9624023c-1.3671875,1.9023438-5.7216797,7.9624023-5.7216797,7.9624023
									c-0.1875,0.2607422-0.625,0.2607422-0.8125,0l-5.7216797-7.9624023
									c-1.3671875,1.9013672-5.7226563,7.9624023-5.7226563,7.9624023c-0.09375,0.1303711-0.2451172,0.2080078-0.40625,0.2080078
									l0,0c-0.1611328,0-0.3125-0.0776367-0.40625-0.2080078l-5.7216797-7.9624023
									c-1.3671875,1.9013672-5.7226563,7.9624023-5.7226563,7.9624023c-0.09375,0.1303711-0.2451172,0.2080078-0.40625,0.2080078
									l0,0c-0.1611328,0-0.3125-0.0776367-0.4062653-0.2080078l-5.7216721-7.9624023
									c-1.3671875,1.9018555-5.7216797,7.9624023-5.7216797,7.9624023c-0.1875,0.2607422-0.625,0.2607422-0.8125,0
									l-5.7226563-7.9624023c-1.3662109,1.9013672-5.7216797,7.9624023-5.7216797,7.9624023
									c-0.1875,0.2607422-0.625,0.2607422-0.8125,0l-6.1279297-8.5268555
									c-0.1611328-0.2246094-0.1093903-0.5366211,0.1142578-0.6982422
									c0.2246094-0.1611328,0.5361328-0.1108398,0.6982422,0.1142578l5.7216797,7.9619141l2.6582031-3.6982422
									c3.2734375-4.5546875,3.2763672-4.5600586,3.6230469-4.4477539c0.1015625,0.0327148,0.1904297,0.0976563,0.2529297,0.184082
									l5.7226563,7.9619141l2.6582031-3.6982422c3.2734375-4.5546875,3.2734375-4.5600586,3.6230469-4.4477539
									c0.1015625,0.0327148,0.1904297,0.0976563,0.2529297,0.184082l5.7216873,7.9619141l2.6582031-3.6982422
									c3.2734375-4.5546875,3.2763672-4.5600586,3.6240234-4.4477539c0.1015625,0.0327148,0.1904297,0.0976563,0.2529297,0.184082
									l5.7216797,7.9619141l2.6582031-3.6982422c3.2734375-4.5546875,3.2773438-4.5600586,3.6240234-4.4477539
									c0.1015625,0.0327148,0.1904297,0.0976563,0.2529297,0.184082l5.7216797,7.9619141l2.6582031-3.6982422
									c3.2734375-4.5546875,3.2753906-4.5600586,3.6230469-4.4477539c0.1015625,0.0327148,0.1904297,0.0976563,0.2529297,0.184082
									l5.7216797,7.9619141l5.7226563-7.9624023c0.1611328-0.2250977,0.4736328-0.2749023,0.6982422-0.1142578
									c0.2236328,0.1616211,0.2753906,0.4736328,0.1142578,0.6982422l-6.1289063,8.5273438
									C169.756485,86.7501221,169.6051178,86.8277588,169.443985,86.8277588z"/>
							</g>
						</g>
						<g>
							<g>
								<path class="st8" d="M88.9410477,86.8277588c-0.1552734,0-0.3085938-0.0722656-0.40625-0.2080078l-5.7216797-7.9624023
									c-1.3671875,1.9013672-5.7226563,7.9624023-5.7226563,7.9624023c-0.09375,0.1303711-0.2451172,0.2080078-0.40625,0.2080078
									l0,0c-0.1611328,0-0.3125-0.0776367-0.40625-0.2080078l-6.1279297-8.5268555
									c-0.1611328-0.2246094-0.109375-0.5366211,0.1142578-0.6982422
									c0.2236328-0.1611328,0.5361328-0.1108398,0.6982422,0.1142578l5.7216797,7.9619141l2.6582031-3.6982422
									c3.2734375-4.5546875,3.2773438-4.5600586,3.6240234-4.4477539c0.1015625,0.0327148,0.1904297,0.0976563,0.2529297,0.184082
									l6.1279297,8.5268555c0.1611328,0.2246094,0.109375,0.5366211-0.1142578,0.6982422
									C89.1441727,86.7974854,89.0426102,86.8277588,88.9410477,86.8277588z"/>
							</g>
						</g>
						<g>
							<path class="st22" d="M171.7320709,98.6368408c-0.2763672,0-0.5-0.2236328-0.5-0.5V89.256958h-4.1904297v8.8798828
								c0,0.2763672-0.2236328,0.5-0.5,0.5s-0.5-0.2236328-0.5-0.5V88.756958c0-0.2763672,0.2236328-0.5,0.5-0.5h5.1904297
								c0.2763672,0,0.5,0.2236328,0.5,0.5v9.3798828C172.2320709,98.413208,172.0084381,98.6368408,171.7320709,98.6368408z"/>
						</g>
						<g>
							<path class="st8" d="M169.1422272,101.2296143c-1.7060547,0-3.0947266-1.3881836-3.0947266-3.0947266
								c0-1.7060547,1.3886719-3.0942383,3.0947266-3.0942383s3.09375,1.3881836,3.09375,3.0942383
								C172.2359772,99.8414307,170.8482819,101.2296143,169.1422272,101.2296143z M169.1422272,96.0406494
								c-1.1552734,0-2.0947266,0.9394531-2.0947266,2.0942383c0,1.1552734,0.9394531,2.0947266,2.0947266,2.0947266
								c1.1542969,0,2.09375-0.9394531,2.09375-2.0947266C171.2359772,96.9801025,170.296524,96.0406494,169.1422272,96.0406494z"/>
						</g>
						<g>
							<path class="st11" d="M170.0179291,98.1351013c0,0.480072-0.3909912,0.8760071-0.8760071,0.8760071
								c-0.4850616,0-0.8760376-0.3959351-0.8760376-0.8760071c0-0.485054,0.390976-0.8760452,0.8760376-0.8760452
								C169.6269379,97.2590561,170.0179291,97.6500473,170.0179291,98.1351013z"/>
						</g>
						<g>
							<g>
								<path class="st11" d="M173.4602356,86.3269577v1.4300537c0,0.8299561-0.6699829,1.5-1.5,1.5h-5.6499634
									c-0.8300171,0-1.5-0.6700439-1.5-1.5v-1.4300537c0-0.2699585,0.2199707-0.5,0.5-0.5h7.6499634
									C173.2402649,85.8269577,173.4602356,86.0569992,173.4602356,86.3269577z"/>
							</g>
						</g>
						<g>
							<path class="st8" d="M181.7310944,86.8267822h-78.3916092c-0.2763672,0-0.5-0.2236328-0.5-0.5V77.800415
								c0-0.2763672,0.2236328-0.5,0.5-0.5h72.3642654c0.1621094,0,0.3144379,0.0786133,0.4082031,0.2114258l6.0273438,8.5263672
								c0.1083984,0.1523438,0.1220703,0.3525391,0.0361328,0.5185547S181.9176178,86.8267822,181.7310944,86.8267822z
								 M103.8394852,85.8267822h76.9257889l-5.3203125-7.5263672h-71.6054764V85.8267822z"/>
						</g>
						<g>
							<path class="st8" d="M89.3707352,86.8267822H70.556282c-0.2763672,0-0.5-0.2236328-0.5-0.5V77.800415
								c0-0.2763672,0.2236328-0.5,0.5-0.5h18.8144531c0.2763672,0,0.5,0.2236328,0.5,0.5v8.5263672
								C89.8707352,86.6031494,89.6471024,86.8267822,89.3707352,86.8267822z M71.056282,85.8267822h17.8144531V78.300415H71.056282
								V85.8267822z"/>
						</g>
						<g>
							<path class="st8" d="M100.618782,75.581665h-8.5263672c-0.2763672,0-0.5-0.2236328-0.5-0.5v-4.4990234
								c0-0.1767578,0.09375-0.3408203,0.2460938-0.4306641l8.5263672-5.0273438
								c0.1542969-0.0917969,0.3457031-0.0922852,0.5019531-0.003418s0.2519531,0.2543945,0.2519531,0.434082v9.5263672
								C101.118782,75.3580322,100.8951492,75.581665,100.618782,75.581665z M92.5924149,74.581665h7.5263672v-8.1508789
								l-7.5263672,4.4375V74.581665z"/>
						</g>
						<g>
							<path class="st8" d="M100.618782,170.0758057h-8.5263672c-0.2763672,0-0.5-0.2236328-0.5-0.5V89.0518799
								c0-0.2763672,0.2236328-0.5,0.5-0.5h8.5263672c0.2763672,0,0.5,0.2236328,0.5,0.5v80.5239258
								C101.118782,169.8521729,100.8951492,170.0758057,100.618782,170.0758057z M92.5924149,169.0758057h7.5263672V89.5518799
								h-7.5263672V169.0758057z"/>
						</g>
						<g>
							<path class="st14" d="M105.7782135,80.0637436v7.887001c0,0.9581146-0.7767029,1.7348251-1.7348251,1.7348251h-13.725563
								c-0.9581146,0-1.7348251-0.7767105-1.7348251-1.7348251V72.6332245c0-0.9581146,0.7767105-1.7348251,1.7348251-1.7348251
								h10.2865219c0.7857513,0,1.5017242,0.4510651,1.8409576,1.1598129l2.8829269,6.0231552
								C105.6244507,78.7002411,105.7782135,79.3776321,105.7782135,80.0637436z"/>
						</g>
						<g>
							<path class="st13" d="M102.5996857,72.3807297l-0.1543579-0.3225098
								c-0.3392334-0.7087402-1.0552368-1.1598511-1.8410034-1.1598511h-10.286499
								c-0.8716431,0-1.5861816,0.6449585-1.7093506,1.4823608H102.5996857z"/>
						</g>
						<g>
							<path class="st13" d="M88.6040192,88.1589279c0.1040039,0.8587036,0.8270264,1.5266113,1.7138062,1.5266113h13.7255859
								c0.8867798,0,1.6098022-0.6679077,1.7138062-1.5266113H88.6040192z"/>
						</g>
						<g>
							<path class="st45" d="M102.7182159,80.067009v5.7699585c0,0.4299927-0.3600464,0.7900391-0.7900391,0.7900391h-5.1099854
								c-0.3900146,0-0.7299805-0.2800293-0.789978-0.6700439c-0.0200195-0.1699829-0.0599976-0.3399658-0.1000366-0.5
								c-0.1099854-0.4699707-0.2799683-0.9099731-0.5299683-1.3200073
								c-0.2300415-0.4099731-0.5300293-0.7799683-0.9000244-1.0799561
								c-0.5700073-0.4800415-1.289978-0.8200073-2.1699829-0.9400024
								c-0.3900146-0.0599976-0.6799927-0.3900146-0.6799927-0.7900391v-6.5799561
								c0-0.4299927,0.3499756-0.7900391,0.789978-0.7900391h7.0300293c0.2999878,0,0.5799561,0.1799927,0.7099609,0.4500122
								l0.4800415,1.0100098l0.6599731,1.3699951l0.5999756,1.25l0.6500244,1.3599854
								C102.6681671,79.606987,102.7182159,79.8369675,102.7182159,80.067009z"/>
						</g>
					</g>
					<g>
						<g>
							<g>
								<g>
									<g>
										<g>
											<g>
												<g>
													<g>
														<path class="st18" d="M135.9408875,224.0769501c0,5.1600342-4.2600098,9.4200439-9.5000076,9.4200439
															c-5.2399902,0-9.4899902-4.2600098-9.4899902-9.4200439c0-5.25,4.25-9.5,9.4899902-9.5
															C131.6808777,214.5769501,135.9408875,218.8269501,135.9408875,224.0769501z"/>
													</g>
												</g>
												<g>
													<g>
														<path class="st11" d="M132.3108826,222.0769501c0,5.1600342-4.2600098,9.4200439-9.5000076,9.4200439
															c-5.2399902,0-9.4899902-4.2600098-9.4899902-9.4200439c0-5.25,4.25-9.5,9.4899902-9.5
															C128.0508728,212.5769501,132.3108826,216.8269501,132.3108826,222.0769501z"/>
													</g>
												</g>
												<g>
													<g>
														<path class="st8" d="M132.3108826,224.0769501c0,5.1600342-4.2600098,9.4200439-9.5000076,9.4200439
															c-5.2399902,0-9.4899902-4.2600098-9.4899902-9.4200439c0-5.25,4.25-9.5,9.4899902-9.5
															C128.0508728,214.5769501,132.3108826,218.8269501,132.3108826,224.0769501z"/>
													</g>
												</g>
												<g>
													<g>
														<path class="st16" d="M125.9680023,224.039917c0,1.7336578-1.4165878,3.1292114-3.150383,3.1292114
															c-1.7548294,0-3.150383-1.3955536-3.150383-3.1292114c0-1.7337952,1.3955536-3.1505127,3.150383-3.1505127
															C124.5514145,220.8894043,125.9680023,222.3061218,125.9680023,224.039917z"/>
													</g>
												</g>
												<g>
													<g>
														<path class="st18" d="M64.4281769,224.0769501c0,5.1600342-4.2600098,9.4200439-9.5,9.4200439
															s-9.4899902-4.2600098-9.4899902-9.4200439c0-5.25,4.25-9.5,9.4899902-9.5
															S64.4281769,218.8269501,64.4281769,224.0769501z"/>
													</g>
												</g>
												<g>
													<g>
														<path class="st11" d="M60.798172,222.0769501c0,5.1600342-4.2600098,9.4200439-9.5,9.4200439
															s-9.4899902-4.2600098-9.4899902-9.4200439c0-5.25,4.25-9.5,9.4899902-9.5
															S60.798172,216.8269501,60.798172,222.0769501z"/>
													</g>
												</g>
												<g>
													<g>
														<path class="st8" d="M60.798172,224.0769501c0,5.1600342-4.2600098,9.4200439-9.5,9.4200439
															s-9.4899902-4.2600098-9.4899902-9.4200439c0-5.25,4.25-9.5,9.4899902-9.5
															S60.798172,218.8269501,60.798172,224.0769501z"/>
													</g>
												</g>
												<g>
													<g>
														<path class="st16" d="M54.4552956,224.039917c0,1.7336578-1.4165878,3.1292114-3.1503792,3.1292114
															c-1.7548294,0-3.150383-1.3955536-3.150383-3.1292114c0-1.7337952,1.3955536-3.1505127,3.150383-3.1505127
															C53.0387077,220.8894043,54.4552956,222.3061218,54.4552956,224.039917z"/>
													</g>
												</g>
												<g>
													<g>
														<path class="st18" d="M124.3208847,224.0769501c0,5.1600342-4.2600098,9.4200439-9.5,9.4200439
															s-9.4899902-4.2600098-9.4899902-9.4200439c0-5.25,4.25-9.5,9.4899902-9.5
															S124.3208847,218.8269501,124.3208847,224.0769501z"/>
													</g>
												</g>
												<g>
													<g>
														<path class="st18" d="M52.8081818,224.0769501c0,5.1600342-4.2600098,9.4200439-9.5,9.4200439
															s-9.4899902-4.2600098-9.4899902-9.4200439c0-5.25,4.25-9.5,9.4899902-9.5
															S52.8081818,218.8269501,52.8081818,224.0769501z"/>
													</g>
												</g>
												<g>
													<path class="st11" d="M54.4548225,200.9119873v23.1547089h47.245739
														c0-5.2386017,4.2538071-9.4924011,9.4924011-9.4924011c5.2386017,0,9.4921494,4.2537994,9.4921494,9.4924011
														h34.8825302c1.2143707,0,2.198822-0.9844513,2.198822-2.198822v-20.9558868H54.4548225z"/>
												</g>
												<g>
													<rect x="54.4548225" y="198.3106842" class="st8" width="103.3116379" height="23.154705"/>
												</g>
												<g>
													<rect x="131.9287262" y="198.3105621" class="st18" width="25.8375835" height="23.154705"/>
												</g>
												<g>
													<path class="st23" d="M131.9288788,167.5389709v41.9639282H59.750576c-0.5522842,0-1-0.4477081-1-1v-39.9639282
														c0-0.5522919,0.4477158-1,1-1H131.9288788z"/>
												</g>
												<g>
													<path class="st13" d="M54.4517822,173.126236v50.9436035h-5.2781639
														c0-5.2445068-4.258358-9.4916534-9.4916534-9.4916534c-5.2333641,0-9.491724,4.2471466-9.491724,9.4916534h-4.3368092
														c-2.1179962,0-3.8325157-1.7257385-3.8325157-3.8437347v-19.7341766
														c0-0.7059937,0.1456852-1.3447571,0.3473911-1.9723053l8.4943504-24.3623505
														c0.8404675-2.3084869,3.0144825-3.9221954,5.5470333-3.9221954h15.1620789
														C53.1630402,170.2350769,54.4517822,171.5237579,54.4517822,173.126236z"/>
												</g>
												<g>
													<path class="st14" d="M54.4517822,173.126236v48.7023621h-5.2781639
														c0-5.2445221-4.258358-9.4916534-9.4916534-9.4916534c-5.2333641,0-9.491724,4.2471313-9.491724,9.4916534h-4.3368092
														c-2.1179962,0-3.8325157-1.7257385-3.8325157-3.8437347v-17.4929352
														c0-0.7059937,0.1456852-1.3447571,0.3473911-1.9723053l8.4943504-24.3623505
														c0.8404675-2.3084869,3.0144825-3.9221954,5.5470333-3.9221954h15.1620789
														C53.1630402,170.2350769,54.4517822,171.5237579,54.4517822,173.126236z"/>
												</g>
												<g class="st1">
													<path class="st13" d="M54.4387207,172.9955292c-0.0692863-1.5398254-1.3202095-2.7604523-2.866951-2.7604523
														H36.4096909c-2.0767517,0-3.8961258,1.0962067-4.9519081,2.7604523H54.4387207z"/>
												</g>
												<g>
													<g>
														<path class="st8" d="M49.1781769,224.0769501c0,5.1600342-4.2600098,9.4200439-9.5,9.4200439
															s-9.4899883-4.2600098-9.4899883-9.4200439c0-5.25,4.2499981-9.5,9.4899883-9.5
															S49.1781769,218.8269501,49.1781769,224.0769501z"/>
													</g>
												</g>
												<g>
													<g>
														<path class="st16" d="M43.8181915,224.0432434c0,2.2745514-1.8585472,4.1054993-4.1332703,4.1054993
															c-2.3023224,0-4.1332741-1.8309479-4.1332741-4.1054993c0-2.2747345,1.8309517-4.1334534,4.1332741-4.1334534
															C41.9596443,219.90979,43.8181915,221.7685089,43.8181915,224.0432434z"/>
													</g>
												</g>
												<g>
													<g>
														<path class="st11" d="M41.5108757,224.0354462c0,1.0048218-0.8210526,1.8136902-1.8259544,1.8136902
															c-1.0170975,0-1.8259544-0.8088684-1.8259544-1.8136902c0-1.0049133,0.808857-1.8260345,1.8259544-1.8260345
															C40.6898232,222.2094116,41.5108757,223.0305328,41.5108757,224.0354462z"/>
													</g>
												</g>
												<g>
													<g>
														<path class="st11" d="M120.6926193,222.0769501c0,5.1600342-4.2600098,9.4200439-9.5,9.4200439
															s-9.4899902-4.2600098-9.4899902-9.4200439c0-5.25,4.25-9.5,9.4899902-9.5
															S120.6926193,216.8269501,120.6926193,222.0769501z"/>
													</g>
												</g>
												<g>
													<g>
														<path class="st8" d="M120.6908798,224.0769501c0,5.1600342-4.2600098,9.4200439-9.5,9.4200439
															s-9.4899902-4.2600098-9.4899902-9.4200439c0-5.25,4.25-9.5,9.4899902-9.5
															S120.6908798,218.8269501,120.6908798,224.0769501z"/>
													</g>
												</g>
												<g>
													<g>
														<path class="st16" d="M115.3308945,224.0432434c0,2.2745514-1.858551,4.1054993-4.1332703,4.1054993
															c-2.3023224,0-4.1332703-1.8309479-4.1332703-4.1054993c0-2.2747345,1.8309479-4.1334534,4.1332703-4.1334534
															C113.4723434,219.90979,115.3308945,221.7685089,115.3308945,224.0432434z"/>
													</g>
												</g>
												<g>
													<g>
														<path class="st11" d="M113.0235825,224.0354462c0,1.0048218-0.8210526,1.8136902-1.8259583,1.8136902
															c-1.0170975,0-1.8259583-0.8088684-1.8259583-1.8136902c0-1.0049133,0.8088608-1.8260345,1.8259583-1.8260345
															C112.2025299,222.2094116,113.0235825,223.0305328,113.0235825,224.0354462z"/>
													</g>
												</g>
												<g>
													<path class="st33" d="M49.4649925,176.1183624v16.305069c0,0.5155029-0.4146271,0.93013-0.9301376,0.93013H30.7729874
														c-0.6387634,0-1.0870399-0.6275482-0.8741188-1.2327271l3.1826019-9.0994568l1.2550926-3.5523682l0.7844505-2.2412415
														l0.4370613-1.2550964c0.1456184-0.4146271,0.5603142-0.6835632,1.064537-0.6835632h12.0019112
														C49.0503654,175.2891083,49.4649925,175.6365051,49.4649925,176.1183624z"/>
												</g>
												<g>
													<path class="st8" d="M42.2856865,197.433609c0,0.5251007,0.4234657,0.9485626,0.9485893,0.9485626h5.2848053
														c0.5251236,0,0.9485893-0.4234619,0.9485893-0.9485626c0-0.5194397-0.4234657-0.9485474-0.9485893-0.9485474
														h-5.2848053C42.7091522,196.4850616,42.2856865,196.9141693,42.2856865,197.433609z"/>
												</g>
											</g>
										</g>
									</g>
									<g>
										<g>
											<path class="st32" d="M49.4649925,187.1274872v5.2864532c0,0.515213-0.4143944,0.9296112-0.9296227,0.9296112h-0.4143944
												l-12.992012-16.1168671l0.4368172-1.2543945c0.1455383-0.4143982,0.5600014-0.6831818,1.0639496-0.6831818h3.281601
												L49.4649925,187.1274872z"/>
										</g>
										<g>
											<polygon class="st32" points="45.5337677,193.3435516 41.423378,193.3435516 33.0905495,183.0170898 
												34.3449478,179.4667053 											"/>
										</g>
									</g>
									<g>
										<g>
											<path class="st5" d="M25.6519871,212.7640839v4.3777771c0,0.5658264-0.4586849,1.0245056-1.0244999,1.0245056h-2.6092815
												v-6.4267731h2.6092815C25.1933022,211.7395935,25.6519871,212.1982727,25.6519871,212.7640839z"/>
										</g>
										<g>
											<path class="st6" d="M25.6519871,212.7675476v4.3708496c0,0.5737305-0.4542313,1.0279694-1.0279675,1.0279694h-2.605814
												v-0.9682159h1.8288193c0.5618439,0,1.0160751-0.4542389,1.0160751-1.0160065v-4.3828125
												c0-0.0119629,0-0.0119629,0-0.0239258C25.3173313,211.8710632,25.6519871,212.2774963,25.6519871,212.7675476z"/>
										</g>
									</g>
								</g>
								<g>
									<path class="st11" d="M54.4548225,171.3627014v52.2868042h4.2957535v-52.2868042
										C58.750576,169.858902,54.4548225,169.858902,54.4548225,171.3627014z"/>
								</g>
							</g>
							<g>
								<g>
									<path class="st5" d="M154.1326752,214.6774445v4.3777771c0,0.5658264,0.4586792,1.0245056,1.0245056,1.0245056h2.6092834
										v-6.4267883h-2.6092834C154.5913544,213.6529388,154.1326752,214.1116333,154.1326752,214.6774445z"/>
								</g>
								<g>
									<path class="st6" d="M154.1326752,214.6809082v4.3708496c0,0.5737305,0.4542389,1.0279694,1.0279694,1.0279694h2.6058197
										v-0.9682159h-1.8288269c-0.5618439,0-1.0160675-0.4542389-1.0160675-1.0160065v-4.3828125
										c0-0.0119629,0-0.0119629,0-0.0239258C154.4673309,213.7844086,154.1326752,214.1908569,154.1326752,214.6809082z"/>
								</g>
							</g>
							<g>
								<g>
									<path class="st5" d="M135.5668945,219.0551453l0.0000305-4.3777313c0-0.5658112-0.4586792-1.0244904-1.0244904-1.0244904
										h-2.6092529l-0.0000458,6.426712h2.6092682C135.1082153,220.0796356,135.5668945,219.6209564,135.5668945,219.0551453z"/>
								</g>
								<g>
									<path class="st6" d="M135.5668945,219.0516815l0.0000305-4.3708038c0-0.5737305-0.4542236-1.0279541-1.0279541-1.0279541
										h-2.6057892l-0.0000153,0.9682007h1.8288116c0.5618439,0,1.0160675,0.4542236,1.0160675,1.0159912l-0.0000305,4.3827667
										c0,0.0119629,0,0.0119629,0,0.023941C135.2322388,219.9481659,135.5668945,219.5417328,135.5668945,219.0516815z"/>
								</g>
							</g>
						</g>
					</g>
					<g>
						<g>
							<g>
								<ellipse class="st13" cx="257.4165039" cy="103.8983307" rx="17.6102943" ry="4.4519563"/>
							</g>
							<g>
								<path class="st14" d="M246.394928,100.4281311c3.0216064-0.6061172,6.8570862-0.9783478,11.0215454-0.9783478
									c4.2337646,0,8.1211853,0.3808975,11.1601257,1.0043488l-2.1990967-7.7662659
									c-0.5454712-1.9133759-2.2857056-3.2294006-4.2683716-3.2294006h-0.008667
									c-1.0909119,0-2.1644897,0.3723373-2.9609985,1.1255722c-0.4328918,0.4155655-1.021698,0.6666794-1.662384,0.6666794
									c-0.6406555,0-1.2207336-0.2511139-1.6536255-0.6580124c-0.796524-0.7532349-1.8701477-1.1342392-2.9696808-1.1342392
									c-0.9870148,0-1.9220886,0.3291092-2.6753235,0.9004593c-0.7532501,0.5627899-1.324646,1.3680267-1.5930481,2.3289413
									L246.394928,100.4281311z"/>
							</g>
							<g>
								<path class="st28" d="M246.394928,100.4281311c3.0216064-0.6061172,6.8570862-0.9783478,11.0215454-0.9783478
									c4.2337646,0,8.1211853,0.3808975,11.1601257,1.0043488l-0.7532349-2.6492767
									c-7.0230713-0.7568359-13.9217377-0.7805099-20.6838684,0L246.394928,100.4281311z"/>
							</g>
						</g>
						<g>
							<g>
								<g>
									<g>
										<g>
											<polygon class="st5" points="256.289856,231.9746857 272.6990051,231.9746857 272.6990051,224.0040588 
												262.6730347,224.0040588 											"/>
										</g>
									</g>
								</g>
							</g>
							<g>
								<g>
									<g>
										<path class="st50" d="M267.6025696,230.9584961v0.8126221h-12.3519287v-0.8126221
											c0-1.3893738,1.1263123-2.5157013,2.515686-2.5157013h7.3205566
											C266.4762573,228.4427948,267.6025696,229.5691223,267.6025696,230.9584961z"/>
									</g>
								</g>
							</g>
							<g>
								<g>
									<g>
										<g>
											<path class="st16" d="M254.1760101,233.4367981c0,1.0276489,0.8438568,1.8715057,1.8715668,1.8715057h10.7611389
												c1.0276794,0,1.8715515-0.8438568,1.8715515-1.8715057c0-1.0360107-0.8438721-1.8715057-1.8715515-1.8715057h-10.7611389
												C255.0198669,231.5652924,254.1760101,232.4007874,254.1760101,233.4367981z"/>
										</g>
									</g>
								</g>
							</g>
							<g>
								<g>
									<g>
										<g>
											<path class="st2" d="M266.8087158,235.3083038h4.8208313c1.0276489,0,1.8714905-0.8438568,1.8714905-1.8715057
												c0-1.0360107-0.8438416-1.8715057-1.8714905-1.8715057h-4.8208313c1.0276794,0,1.8715515,0.835495,1.8715515,1.8715057
												C268.6802673,234.464447,267.8363953,235.3083038,266.8087158,235.3083038z"/>
										</g>
									</g>
								</g>
							</g>
						</g>
						<g>
							<g>
								<g>
									<g>
										<g>
											<polygon class="st5" points="238.039444,231.9746857 254.4485931,231.9746857 254.4485931,224.0040588 
												244.4226379,224.0040588 											"/>
										</g>
									</g>
								</g>
							</g>
							<g>
								<g>
									<g>
										<path class="st50" d="M249.3521729,230.9584961v0.8126221h-12.351944v-0.8126221
											c0-1.3893738,1.1263275-2.5157013,2.5157013-2.5157013h7.3205414
											C248.2258606,228.4427948,249.3521729,229.5691223,249.3521729,230.9584961z"/>
									</g>
								</g>
							</g>
							<g>
								<g>
									<g>
										<g>
											<path class="st16" d="M235.9256134,233.4367981c0,1.0276489,0.8438568,1.8715057,1.8715515,1.8715057h10.7611389
												c1.0276947,0,1.8715515-0.8438568,1.8715515-1.8715057c0-1.0360107-0.8438568-1.8715057-1.8715515-1.8715057h-10.7611389
												C236.7694702,231.5652924,235.9256134,232.4007874,235.9256134,233.4367981z"/>
										</g>
									</g>
								</g>
							</g>
							<g>
								<g>
									<g>
										<g>
											<path class="st2" d="M248.5583038,235.3083038h4.8208313c1.0276489,0,1.8715057-0.8438568,1.8715057-1.8715057
												c0-1.0360107-0.8438568-1.8715057-1.8715057-1.8715057h-4.8208313c1.0276947,0,1.8715515,0.835495,1.8715515,1.8715057
												C250.4298553,234.464447,249.5859985,235.3083038,248.5583038,235.3083038z"/>
										</g>
									</g>
								</g>
							</g>
						</g>
						<g>
							<g>
								<g>
									<polygon class="st22" points="274.9568176,170.9786987 274.4743042,184.9527283 273.1698608,222.3895111 
										262.8858948,222.3895111 258.9725647,180.896347 258.9725647,180.8695221 258.0343628,170.9786987 									"/>
								</g>
							</g>
						</g>
						<g>
							<g>
								<path class="st28" d="M274.9568176,170.9786987l-0.4825134,13.9740295h-0.9291382
									c-2.9396057,0-5.3162842-2.3766327-5.3162842-5.3162079v-8.6578217H274.9568176z"/>
							</g>
						</g>
						<g>
							<g>
								<g>
									<polygon class="st22" points="259.9017029,170.9786987 258.9725647,180.8695221 255.0500793,222.3895111 
										244.7750702,222.3895111 243.4706268,184.9527283 242.9881134,170.9786987 									"/>
								</g>
							</g>
						</g>
						<g>
							<g>
								<path class="st28" d="M250.4755707,170.9786987v8.6578217c0,2.9395752-2.3767853,5.3162079-5.3162689,5.3162079h-1.6886749
									l-0.4825134-13.9740295H250.4755707z"/>
							</g>
						</g>
						<g>
							<g>
								<g>
									<path class="st28" d="M262.036377,213.3499451l0.8538208,9.0439606h10.2797546l0.3143311-9.0439606
										C270.5681763,215.5580292,266.577179,215.1287384,262.036377,213.3499451z"/>
								</g>
							</g>
						</g>
						<g>
							<g>
								<g>
									<path class="st28" d="M244.4572449,213.3499451l0.31427,9.0439606h10.2797546l0.8538971-9.0439606
										C252.1356812,214.9007721,248.3296814,215.2338409,244.4572449,213.3499451z"/>
								</g>
							</g>
						</g>
						<g>
							<g>
								<g>
									<path class="st51" d="M256.2073364,223.466156v-5.5297699c0-0.2970886-0.2408295-0.5379181-0.5379028-0.5379181
										h-12.0092621c-0.2970886,0-0.5379181,0.2408295-0.5379181,0.5379181v5.5297699
										c0,0.2970734,0.2408295,0.5379028,0.5379181,0.5379028h12.0092621
										C255.966507,224.0040588,256.2073364,223.7632294,256.2073364,223.466156z"/>
								</g>
							</g>
						</g>
						<g>
							<g>
								<g>
									<path class="st51" d="M274.230835,223.466156v-5.5297699c0-0.2970886-0.2408447-0.5379181-0.5379333-0.5379181h-12.0092468
										c-0.2970886,0-0.5379333,0.2408295-0.5379333,0.5379181v5.5297699c0,0.2970734,0.2408447,0.5379028,0.5379333,0.5379028
										h12.0092468C273.9899902,224.0040588,274.230835,223.7632294,274.230835,223.466156z"/>
								</g>
							</g>
						</g>
						<g>
							<g>
								<g>
									<path class="st3" d="M227.8704224,160.6893005l2.5216827,5.8560638l-1.6779785,1.4826508
										c-0.3051453,0.2696228-0.6511841,0.4890594-1.025177,0.6501007l-2.8487854,1.2227631
										c-0.2499847,0.1076355-0.5206604,0.1051788-0.7560425,0.0097961
										c-0.236557-0.092453-0.4348907-0.2766724-0.5425262-0.5266418
										c-0.2161713-0.5019989,0.0148163-1.0823975,0.5168304-1.2985687l-1.0839081,0.4667511
										c-0.5142822,0.2214508-1.088913-0.0299377-1.2985687-0.5168457
										c-0.2161713-0.5019989,0.0148163-1.0823975,0.5168304-1.2985687
										c-0.2636414,0.0810242-0.6543579,0.4119873-1.1857147,0.1966705
										c-0.8113708-0.3171082-0.8415375-1.4738922,0.0144196-1.8424835l-0.0386963,0.014801
										c-0.5248108,0.2259979-1.1388855-0.0378265-1.3275299-0.5921631
										c-0.1683655-0.4947052,0.105957-1.033844,0.5859222-1.2405243l2.0946655-0.8980103L227.8704224,160.6893005z"/>
								</g>
							</g>
							<g>
								<path class="st4" d="M228.7170715,168.0306549l1.6783905-1.4836121l-2.5245056-5.861908l-1.1251068-0.1150665
									l1.7511902,4.0785065c0.3525696,0.8210907,0.1384125,1.7757568-0.5311127,2.367569l-0.5565033,0.4919281
									c-0.3088989,0.2730408-0.6592407,0.495224-1.0379181,0.6582184l-2.8352814,1.2162628
									c0.1121216,0.2518616,0.3124542,0.4333649,0.5438538,0.5265045
									c0.2365417,0.1009369,0.5067596,0.1004486,0.7585449-0.0116882l2.8455658-1.2207031
									C228.0606232,168.5149994,228.4083862,168.2935944,228.7170715,168.0306549z"/>
							</g>
							<g>
								<g>
									<path class="st25" d="M206.9199982,156.6188507l7.321228,15.569046
										c0.2068481,0.4398956,0.7311401,0.6287994,1.1710358,0.4219513l11.3071289-5.3170929
										c0.4398804-0.2068634,0.6287994-0.7311554,0.421936-1.171051l-7.321228-15.5690308
										c-0.2068481-0.4398956-0.7311401-0.6288147-1.1710358-0.4219513l-11.3071289,5.3170929
										C206.9020538,155.6546631,206.7131348,156.1789551,206.9199982,156.6188507z"/>
								</g>
								<g>
									<g>
										<path class="st2" d="M218.7439728,168.1248016c-0.1181641-0.25-0.0107422-0.5478516,0.2392578-0.6650391
											l4.8066406-2.2597656c0.2519531-0.1171875,0.5478516-0.0097656,0.6650391,0.2392578
											c0.1181641,0.25,0.0107422,0.5478516-0.2392578,0.6650391l-4.8066406,2.2597656
											C219.1515198,168.4837494,218.8588715,168.3691406,218.7439728,168.1248016z"/>
									</g>
								</g>
								<g>
									<g>
										<path class="st2" d="M211.8279572,156.7566376c-0.1875,0-0.3671875-0.1064453-0.4521484-0.2871094
											c-0.1181641-0.25-0.0107422-0.5478516,0.2392578-0.6650391l4.5830078-2.1552734
											c0.2519531-0.1162109,0.546875-0.0107422,0.6650391,0.2392578s0.0107422,0.5478516-0.2392578,0.6650391
											l-4.5830078,2.1552734C211.9715118,156.7410126,211.8992462,156.7566376,211.8279572,156.7566376z"/>
									</g>
								</g>
								<g>
									<g>
										<path class="st2" d="M211.223465,160.0642548c-0.1875,0-0.3671875-0.1064453-0.4521484-0.2871094
											c-0.1181641-0.25-0.0107422-0.5478516,0.2392578-0.6650391l8.1210938-3.8183594
											c0.2519531-0.1171875,0.5478516-0.0107422,0.6650391,0.2392578c0.1181641,0.25,0.0107422,0.5478516-0.2392578,0.6650391
											l-8.1210938,3.8183594C211.3670197,160.0486298,211.294754,160.0642548,211.223465,160.0642548z"/>
									</g>
								</g>
								<g>
									<g>
										<path class="st2" d="M212.3875275,162.5417938c-0.1875,0-0.3671875-0.1064453-0.4521484-0.2871094
											c-0.1181641-0.25-0.0107422-0.5478516,0.2392578-0.6650391l8.1210938-3.8193359
											c0.2519531-0.1162109,0.5478516-0.0097656,0.6650391,0.2392578c0.1181641,0.25,0.0107422,0.5478516-0.2392578,0.6650391
											l-8.1210938,3.8193359C212.5310822,162.5261688,212.4588165,162.5417938,212.3875275,162.5417938z"/>
									</g>
								</g>
								<g>
									<g>
										<path class="st2" d="M213.1004181,164.7312469c-0.1181641-0.25-0.0107422-0.5478516,0.2392578-0.6650391
											l8.1210938-3.8193359c0.2519531-0.1162109,0.5478516-0.0107422,0.6650391,0.2392578
											c0.1181641,0.25,0.0107422,0.5478516-0.2392578,0.6650391l-8.1210938,3.8193359
											C213.5079651,165.0901947,213.2153168,164.9755859,213.1004181,164.7312469z"/>
									</g>
								</g>
								<g>
									<g>
										<path class="st2" d="M214.2644806,167.2078094c-0.1181641-0.25-0.0107422-0.5478516,0.2392578-0.6650391
											l8.1210938-3.8193359c0.2519531-0.1171875,0.5478516-0.0097656,0.6650391,0.2392578
											c0.1181641,0.25,0.0107422,0.5478516-0.2392578,0.6650391l-8.1210938,3.8193359
											C214.6720276,167.5667572,214.3793793,167.4521484,214.2644806,167.2078094z"/>
									</g>
								</g>
								<g>
									<path class="st3" d="M221.0718231,161.5288849l0.0451508,0.0451508l0.3161163,0.3010101
										c0.5493774,0.5418701,1.3621674,0.7300262,2.0996857,0.4891815l0.9256592-0.3085785l1.4901428,0.9557953
										l1.3470917-1.6556854l-0.4139099-1.0310364l-2.4534149-0.9934082
										c-0.4214478-0.1429901-0.8805084-0.0978394-1.264328,0.1204376l-0.3462067,0.1956787l-1.6255493,0.9256592
										C220.8460541,160.7687683,220.7858429,161.2503815,221.0718231,161.5288849z"/>
								</g>
							</g>
							<g>
								<path class="st0" d="M221.4700928,161.3761902l0.0336304,0.0336304
									c0.1345978,0.067276,0.2859497,0.1065369,0.4429474,0.1065369c0.5494385,0,0.9923401-0.4429474,0.9923401-0.9923859
									c0-0.201828-0.0616608-0.3924713-0.1681824-0.5494385l-1.2110138,0.6896057
									C221.3018951,160.8099213,221.2570343,161.1687164,221.4700928,161.3761902z"/>
							</g>
							<g>
								<path class="st36" d="M249.1414337,136.5126343v17.4720154c0,2.837677-0.5675507,4.9213409-5.140274,7.0617218
									l-3.0971222,1.2080383l-7.3061981,3.1451263l-3.2023773-7.0840607l2.0755615-1.2729034l0.1621094-0.09729
									l6.2278137-3.7227631l0.7702332-14.7478027c-0.0162354-3.0403595,0.8755951-6.2752991,3.8754272-6.7455597
									c1.3215485-0.2108154,3.3322296,0.4702606,4.2159882,1.3458405
									C248.5982361,133.9587555,249.1414337,135.1667938,249.1414337,136.5126343z"/>
							</g>
							<g>
								<g>
									<path class="st21" d="M240.9040375,162.2544098l-7.3061981,3.1451263l-3.2023773-7.0840607l2.0755615-1.2729034
										l0.1621094-0.09729C234.0600891,160.1315765,237.6853333,161.7760773,240.9040375,162.2544098z"/>
								</g>
							</g>
							<g>
								<g>
									<g>
										<path class="st36" d="M231.7146454,157.6825867l3.2992401,7.3384857
											c0.1040497,0.2314148,0.0007935,0.5033569-0.2306366,0.6074066l-4.2458344,1.908844
											c-0.2314301,0.1040344-0.5033722,0.0007782-0.6074066-0.2306366l-3.2992401-7.3384857
											c-0.1040497-0.2314301-0.0007782-0.5033722,0.2306366-0.6074066l4.2458344-1.9088593
											C231.3386688,157.3479004,231.610611,157.4511566,231.7146454,157.6825867z"/>
									</g>
								</g>
							</g>
						</g>
						<g>
							<g>
								<g>
									<path class="st5" d="M242.97966,131.8468933v39.129715h31.9793243v-38.9133453l-5.5415649-3.1141968l-2.8037109-1.5806046
										l-3.2459106-1.8252411h-9.9917603c-0.1017303,0.0616608-9.0137329,5.4634781-8.9098206,5.4004288l-1.4018555,0.8562012
										L242.97966,131.8468933z"/>
								</g>
							</g>
						</g>
						<g>
							<g>
								<g>
									<path class="st50" d="M263.3678284,125.5432053h-0.5927734l-0.0021973,0.1347046
										c1.2397461,2.9950485,1.9850464,6.2495041,2.1365967,9.6324997
										c0.5645142,12.6044312-9.9263458,23.5193481-21.9203644,25.5448608v10.1213379h31.9699249v-38.9133911
										L263.3678284,125.5432053z"/>
								</g>
							</g>
						</g>
						<g>
							<g>
								<g>
									<rect x="242.9845734" y="166.9406433" class="st11" width="31.9723568" height="4.041625"/>
								</g>
							</g>
						</g>
						<g>
							<g>
								<g>
									<path class="st12" d="M259.9689941,166.036377h-4.1826019v5.8523254h4.1826019
										c0.818573,0,1.4815674-0.6629639,1.4815674-1.4815216v-2.8892975
										C261.4505615,166.6993408,260.7875671,166.036377,259.9689941,166.036377z"/>
								</g>
							</g>
						</g>
						<g>
							<g>
								<g>
									<path class="st12" d="M255.9863129,171.88797h-2.1050415c-0.8181152,0-1.483963-0.6658478-1.483963-1.4843597v-2.8843842
										c0-0.8181152,0.6658478-1.483963,1.483963-1.483963h2.1050415c0.2262115,0,0.409256,0.1830444,0.409256,0.409256v5.0341949
										C256.3955688,171.7049255,256.2125244,171.88797,255.9863129,171.88797z M253.8812714,166.853775
										c-0.3668976,0-0.665451,0.2985535-0.665451,0.665451v2.8843842c0,0.3672943,0.2985535,0.6658478,0.665451,0.6658478
										h1.6957703v-4.215683H253.8812714z"/>
								</g>
							</g>
						</g>
						<g>
							<g>
								<path class="st12" d="M256.3952637,169.3041382h-1.9799347c-0.2262115,0-0.409256-0.1830597-0.409256-0.409256
									c0-0.2262115,0.1830444-0.4092712,0.409256-0.4092712h1.9799347c0.2262268,0,0.4092712,0.1830597,0.4092712,0.4092712
									C256.8045349,169.1210785,256.6214905,169.3041382,256.3952637,169.3041382z"/>
							</g>
						</g>
						<g>
							<g>
								<path class="st3" d="M267.8778992,172.1780243c-0.1448059,1.9261017-0.0229492,2.4839478-0.3717957,3.3809052
									l-1.242981,3.1529083c-0.0974426,0.2505646-0.2867432,0.4394226-0.5169983,0.539032
									c-0.7781677,0.3481598-1.6217957-0.4262848-1.3027039-1.2467346
									c-0.3860474,0.8304596-0.3606873,1.3750916-0.9395752,1.6255188
									c-0.7887878,0.3470001-1.6196899-0.4317169-1.3027039-1.2467346
									c-0.1292725,0.2486572-0.1625671,0.7457581-0.6832275,0.970993
									c-0.7854919,0.3514557-1.6207581-0.4289398-1.2870789-1.2869415l-0.0163879,0.0374908
									c-0.2045898,0.526062-0.8158569,0.7755432-1.3368225,0.5242157
									c-0.4649353-0.2243042-0.6543884-0.7910309-0.4672546-1.2721405l0.9489746-2.3969727
									c-0.6318054,0.4328918-1.4975281,0.287735-1.9532471-0.3340302l-0.260376-0.3518982
									c-0.0974426-0.1324921-0.0681152-0.3173218,0.0635681-0.4127197l4.7986145-3.9657898L267.8778992,172.1780243z"/>
							</g>
							<g>
								<path class="st4" d="M267.8814392,172.1768188l-5.8760986-2.2849579l-0.8606567,0.7123108l4.0846863,1.5935059
									c0.8223572,0.3208008,1.3460083,1.1331177,1.2986755,2.0145569c-0.0414429,0.7718964-0.030365,1.2388-0.2952271,1.9194641
									l-1.2381592,3.1388855c0.2550049,0.0956268,0.5215759,0.080368,0.7475281-0.0179901
									c0.2349548-0.0965729,0.421875-0.2871399,0.5174255-0.542099l1.2421875-3.1492157
									C267.8680725,174.6220398,267.7427673,173.969635,267.8814392,172.1768188z"/>
							</g>
						</g>
						<g>
							<g>
								<rect x="253.2934875" y="120.288887" class="st3" width="10.0090065" height="9.4679241"/>
							</g>
						</g>
						<g>
							<g>
								<path class="st4" d="M253.2934875,120.2846069v5.1198349h4.4199219c2.0678711,0,3.7442322,1.6763458,3.7442322,3.7442245
									v-0.1567841h1.8448486v-8.7072754H253.2934875z"/>
							</g>
						</g>
						<g>
							<g>
								<path class="st21" d="M252.6192169,125.3652878c0.399353-0.2287979,0.901886-0.1658936,1.2325134,0.1542892
									l3.7717438,3.6525421c0.294342,0.3618164,0.2652283,0.8881531-0.0672607,1.215271l-2.4798889,2.4399109
									c-0.3760986,0.3700409-0.9878235,0.3408203-1.3269501-0.0633698l-3.7651062-4.4874878
									c-0.4138336-0.4932175-0.2807312-1.2406921,0.2779083-1.5607529L252.6192169,125.3652878z"/>
							</g>
						</g>
						<g>
							<g>
								<path class="st21" d="M263.9306946,125.3708344c-0.3755493-0.2342758-0.8586426-0.2033005-1.2012329,0.0770111
									l-4.6501465,3.8049164c-0.3388977,0.3167114-0.3832092,0.8384857-0.1025696,1.2077942l1.7214661,2.2653503
									c0.3215942,0.4232025,0.9370728,0.4790955,1.3296204,0.1207428l5.0371704-4.5980225
									c0.5054321-0.4613724,0.4308777-1.2777328-0.1497498-1.6399155L263.9306946,125.3708344z"/>
							</g>
						</g>
						<g>
							<polygon class="st21" points="238.8516846,153.2399139 242.047821,153.2399139 238.9415436,150.6040192 							"/>
						</g>
						<g>
							<g>
								<g>
									<g>
										<path class="st36" d="M269.8098755,168.6508331l-6.5563354-3.2205811l6.0793457-16.1111298l-1.0710144-13.7620544
											c0.0256653-0.1408844,0.0491638-0.2731628,0.0834961-0.411911
											c0.5726624-2.3158112,2.8007202-3.8817902,5.2132874-3.5888672
											c2.6185913,0.3162384,4.486145,2.7016449,4.1612244,5.3180542l0.2609558,14.2340698
											c0.0178223,0.9723663-0.2137451,1.933075-0.6726685,2.7905121L269.8098755,168.6508331z"/>
									</g>
								</g>
							</g>
							<g>
								<g>
									<g>
										<path class="st21" d="M272.5093689,163.3399048l-2.6994934,5.3109131l-6.556366-3.2205505l0.7887878-2.0903625
											C266.6526489,164.614624,269.3846436,165.1579437,272.5093689,163.3399048z"/>
									</g>
								</g>
							</g>
							<g>
								<g>
									<g>
										<path class="st36" d="M263.517334,164.9426575l6.6158447,2.5943909
											c0.3457642,0.1355896,0.5161133,0.5257874,0.3805542,0.8715363l-1.4274292,3.6399384
											c-0.1355591,0.3457489-0.5257568,0.5161133-0.871521,0.3805389l-6.6158447-2.5944061
											c-0.3457642-0.1355896-0.5161133-0.5257874-0.3805237-0.871521l1.4273987-3.6399536
											C262.7813721,164.9774323,263.1715698,164.8070679,263.517334,164.9426575z"/>
									</g>
								</g>
							</g>
						</g>
						<g>
							<polygon class="st21" points="269.3132324,149.3429871 272.5093689,149.3429871 269.1383057,146.8187714 							"/>
						</g>
						<g>
							<path class="st7" d="M246.5202332,105.3811264v5.4742508h23.0695496v-5.5089188
								c0-0.6801147-0.4075012-1.3058243-1.0410461-1.5531311c-6.7025452-2.6163025-13.6835022-2.6098328-20.9425354,0.0167618
								C246.9504395,104.0473709,246.5202332,104.6837463,246.5202332,105.3811264z"/>
						</g>
						<g>
							<path class="st3" d="M267.0892029,108.8275528c0.0603027-0.0055237,0.1180725-0.0211945,0.179657-0.0211945
								c1.2810669,0,2.3236694,0.4971619,2.3236694,1.9944839s-1.0426025,3.4291534-2.3236694,3.4291534
								c-0.0615845,0-0.1193542-0.0156708-0.179657-0.0211868V108.8275528z"/>
						</g>
						<g>
							<path class="st3" d="M249.0235443,108.8275528c-0.060318-0.0055237-0.1180573-0.0211945-0.179657-0.0211945
								c-1.2810822,0-2.3236542,0.4971619-2.3236542,1.9944839s1.042572,3.4291534,2.3236542,3.4291534
								c0.0615997,0,0.119339-0.0156708,0.179657-0.0211868V108.8275528z"/>
						</g>
						<g>
							<path class="st3" d="M262.1547241,106.0210724c0.6721191,1.6486053,2.1402283,2.8876724,3.9288635,3.2300873
								c0.5733337,0.1097565,1.0054016,0.5798721,1.0054016,1.16362l0.0000305,4.7245636
								c0,2.0282822-0.7973633,3.9752655-2.2200317,5.4209137l-2.1692505,2.2042618
								c-1.2583923,1.2787323-2.977417,1.9988556-4.7715149,1.9988556h-0.3422241
								c-1.7900238,0-3.5098877-0.7195892-4.7734528-1.9918747l-2.1769562-2.2210388
								c-1.4168091-1.445488-2.2103882-3.3888626-2.2103882-5.4129105v-5.9687424
								c0-2.1465302,1.740097-3.8866272,3.8866272-3.8866272l8.7561035,0.0000076
								C261.5479431,105.2821884,261.9735107,105.5765839,262.1547241,106.0210724z"/>
						</g>
						<g>
							<g>
								<path class="st7" d="M267.085907,107.9553986v5.0914078c-1.0296326,0-1.8642883-0.8347321-1.8642883-1.8643036v-3.2271042
									H267.085907z"/>
							</g>
						</g>
						<g>
							<g>
								<g>
									<path class="st7" d="M254.2594147,111.1896973c-0.1146545,0-0.2293243-0.0434952-0.3171997-0.1309204
										c-0.642746-0.6392288-1.688797-0.6383514-2.3306732,0c-0.1766052,0.175293-0.4612885,0.1739731-0.6361542-0.0017548
										c-0.175293-0.176178-0.174408-0.4613037,0.0017548-0.6361618c0.9911499-0.9867401,2.6065826-0.9876251,3.599472,0
										c0.176178,0.1748581,0.177063,0.4599838,0.0017548,0.6361618
										C254.490509,111.1453247,254.3749695,111.1896973,254.2594147,111.1896973z"/>
								</g>
							</g>
							<g>
								<g>
									<path class="st7" d="M261.887207,111.0587769c-0.6427307-0.6392288-1.6887817-0.6383514-2.330658,0
										c-0.1766052,0.175293-0.4613037,0.1739731-0.6361694-0.0017548c-0.175293-0.176178-0.174408-0.4613037,0.00177-0.6361618
										c0.9911499-0.9867401,2.6065674-0.9876251,3.5994568,0c0.176178,0.1748581,0.177063,0.4599838,0.00177,0.6361618
										C262.3483887,111.2328644,262.0637207,111.2343903,261.887207,111.0587769z"/>
								</g>
							</g>
							<g>
								<path class="st7" d="M253.5726318,112.5853195c0,0.4168167-0.3410339,0.7705688-0.7705688,0.7705688
									c-0.4295502,0-0.7705688-0.3537521-0.7705688-0.7705688c0-0.4295425,0.3410187-0.7832108,0.7705688-0.7832108
									C253.2315979,111.8021088,253.5726318,112.155777,253.5726318,112.5853195z"/>
							</g>
							<g>
								<path class="st7" d="M261.4924622,112.5853195c0,0.4168167-0.3410339,0.7705688-0.7705688,0.7705688
									c-0.4295654,0-0.7705688-0.3537521-0.7705688-0.7705688c0-0.4295425,0.3410034-0.7832108,0.7705688-0.7832108
									C261.1514282,111.8021088,261.4924622,112.155777,261.4924622,112.5853195z"/>
							</g>
						</g>
						<g>
							<g>
								<path class="st4" d="M256.6289978,116.9365845c0.9201965,0,1.6690063-0.7529449,1.6690063-1.6781693
									c0-0.2600174-0.2104187-0.4704208-0.4704285-0.4704208s-0.4704285,0.2104034-0.4704285,0.4704208
									c0,0.4065628-0.3266296,0.7373276-0.7281494,0.7373276c-0.401947,0-0.7285919-0.3307648-0.7285919-0.7373276
									c0-0.2600174-0.2104034-0.4704208-0.4704285-0.4704208c-0.2600098,0-0.4704132,0.2104034-0.4704132,0.4704208
									C254.9595642,116.1836395,255.708374,116.9365845,256.6289978,116.9365845z"/>
							</g>
						</g>
						<g>
							<g>
								<path class="st4" d="M258.0521851,118.8150177c0.2650452,0,0.4759216,0.246315,0.4136353,0.5039368
									c-0.2264404,0.9365463-1.0702209,1.6317444-2.0801392,1.6317444c-1.0061951,0-1.8524628-0.6950531-2.0798492-1.6314468
									c-0.062561-0.2576828,0.148407-0.5042343,0.4135742-0.5042343H258.0521851z"/>
							</g>
						</g>
						<g>
							<path class="st7" d="M247.3271332,106.5787506v4.6238022c0,0.4274445,0.3465118,0.7739639,0.7739716,0.7739639h0.3240967
								v-5.3977661H247.3271332z"/>
						</g>
					</g>
				</g>
				<g>
					<g>
						<path class="st2" d="M126.6428604,169.5389709v37.9639282c0,1.1045685,0.8954315,2,1.9999924,2h28.1279755
							c0.5522919,0,1-0.4477081,1-1v-39.9639282c0-0.5522919-0.4477081-1-1-1h-28.1279755
							C127.5382919,167.5389709,126.6428604,168.4344025,126.6428604,169.5389709z"/>
					</g>
					<g>
						<path class="st16" d="M156.1932068,170.5844727v7.9700317c0,0.5522766-0.4477234,1-1,1h-20.6899414
							c-0.5522919,0-1-0.4477234-1-1v-7.9700317c0-0.5522919,0.4477081-1,1-1h20.6899414
							C155.7454834,169.5844727,156.1932068,170.0321808,156.1932068,170.5844727z"/>
					</g>
					<g>
						<path class="st16" d="M156.1932068,184.6845093v7.6799927c0,0.5522766-0.4477234,1-1,1h-20.6899414
							c-0.5522919,0-1-0.4477234-1-1v-7.6799927c0-0.5522919,0.4477081-1,1-1h20.6899414
							C155.7454834,183.6845093,156.1932068,184.1322174,156.1932068,184.6845093z"/>
					</g>
					<g>
						<path class="st16" d="M134.5032654,197.4844971h20.6899414c0.5522766,0,1,0.4477081,1,1v7.9699707
							c0,0.5522766-0.4477234,1-1,1h-20.6899414c-0.5522919,0-1-0.4477234-1-1v-7.9699707
							C133.5032654,197.9322052,133.9509735,197.4844971,134.5032654,197.4844971z"/>
					</g>
					<g>
						<rect x="138.1735535" y="167.5389709" class="st19" width="1.5599509" height="41.9639359"/>
					</g>
					<g>
						<rect x="144.0732574" y="167.5389709" class="st19" width="1.5599509" height="41.9639359"/>
					</g>
					<g>
						<rect x="149.9729614" y="167.5389709" class="st19" width="1.5599509" height="41.9639359"/>
					</g>
					<g>
						<path class="st16" d="M131.9332581,167.5389709v41.9639282H59.7549515c-0.5522842,0-1-0.4477081-1-1v-39.9639282
							c0-0.5522919,0.4477158-1,1-1H131.9332581z"/>
					</g>
					<g>
						<path class="st2" d="M64.7544785,172.5394287h2.3973389c0.5522842,0,1,0.4477081,1,1v29.9638672c0,0.5522766-0.4477158,1-1,1
							h-2.3973389c-0.5522842,0-0.9999962-0.4477234-0.9999962-1v-29.9638672
							C63.7544823,172.9871368,64.2021942,172.5394287,64.7544785,172.5394287z"/>
					</g>
					<g>
						<path class="st2" d="M73.1518173,172.5394287h2.3973389c0.5522842,0,1,0.4477081,1,1v29.9638672c0,0.5522766-0.4477158,1-1,1
							h-2.3973389c-0.5522842,0-1-0.4477234-1-1v-29.9638672C72.1518173,172.9871368,72.5995331,172.5394287,73.1518173,172.5394287
							z"/>
					</g>
					<g>
						<path class="st2" d="M81.5491562,172.5394287h2.3973389c0.5522842,0,1,0.4477081,1,1v29.9638672c0,0.5522766-0.4477158,1-1,1
							h-2.3973389c-0.5522842,0-1-0.4477234-1-1v-29.9638672C80.5491562,172.9871368,80.9968719,172.5394287,81.5491562,172.5394287
							z"/>
					</g>
					<g>
						<path class="st2" d="M89.9464951,172.5394287h2.3973389c0.5522842,0,1,0.4477081,1,1v29.9638672c0,0.5522766-0.4477158,1-1,1
							h-2.3973389c-0.5522842,0-1-0.4477234-1-1v-29.9638672C88.9464951,172.9871368,89.3942108,172.5394287,89.9464951,172.5394287
							z"/>
					</g>
					<g>
						<path class="st2" d="M98.3438339,172.5394287h2.3973389c0.5522842,0,1,0.4477081,1,1v29.9638672c0,0.5522766-0.4477158,1-1,1
							h-2.3973389c-0.5522842,0-1-0.4477234-1-1v-29.9638672C97.3438339,172.9871368,97.7915497,172.5394287,98.3438339,172.5394287
							z"/>
					</g>
					<g>
						<path class="st2" d="M106.7411728,172.5394287h2.3973389c0.5522842,0,1,0.4477081,1,1v29.9638672c0,0.5522766-0.4477158,1-1,1
							h-2.3973389c-0.5522842,0-1-0.4477234-1-1v-29.9638672
							C105.7411728,172.9871368,106.1888885,172.5394287,106.7411728,172.5394287z"/>
					</g>
					<g>
						<path class="st2" d="M115.1385117,172.5394287h2.3973389c0.5522842,0,1,0.4477081,1,1v29.9638672c0,0.5522766-0.4477158,1-1,1
							h-2.3973389c-0.5522842,0-1-0.4477234-1-1v-29.9638672
							C114.1385117,172.9871368,114.5862274,172.5394287,115.1385117,172.5394287z"/>
					</g>
					<g>
						<path class="st2" d="M123.5358505,172.5394287h2.3973389c0.5522842,0,1,0.4477081,1,1v29.9638672c0,0.5522766-0.4477158,1-1,1
							h-2.3973389c-0.5522842,0-1-0.4477234-1-1v-29.9638672
							C122.5358505,172.9871368,122.9835663,172.5394287,123.5358505,172.5394287z"/>
					</g>
					<g>
						<path class="st19" d="M125.9331894,172.5394287h-0.3935547v31.9638672h0.3935547c0.5523071,0,1-0.4477539,1-1v-29.9638672
							C126.9331894,172.9871216,126.4854965,172.5394287,125.9331894,172.5394287z"/>
					</g>
					<g>
						<path class="st19" d="M117.5358505,172.5394287h-0.3935547v31.9638672h0.3935547c0.5523071,0,1-0.4477539,1-1v-29.9638672
							C118.5358505,172.9871216,118.0881577,172.5394287,117.5358505,172.5394287z"/>
					</g>
					<g>
						<path class="st19" d="M109.1385117,172.5394287h-0.3935547v31.9638672h0.3935547c0.5523071,0,1-0.4477539,1-1v-29.9638672
							C110.1385117,172.9871216,109.6908188,172.5394287,109.1385117,172.5394287z"/>
					</g>
					<g>
						<path class="st19" d="M100.7411728,172.5394287h-0.3935547v31.9638672h0.3935547c0.5523071,0,1-0.4477539,1-1v-29.9638672
							C101.7411728,172.9871216,101.2934799,172.5394287,100.7411728,172.5394287z"/>
					</g>
					<g>
						<path class="st19" d="M92.3438339,172.5394287h-0.3935547v31.9638672h0.3935547c0.5523071,0,1-0.4477539,1-1v-29.9638672
							C93.3438339,172.9871216,92.8961411,172.5394287,92.3438339,172.5394287z"/>
					</g>
					<g>
						<path class="st19" d="M83.9464951,172.5394287h-0.3935547v31.9638672h0.3935547c0.5523071,0,1-0.4477539,1-1v-29.9638672
							C84.9464951,172.9871216,84.4988022,172.5394287,83.9464951,172.5394287z"/>
					</g>
					<g>
						<path class="st19" d="M75.5491562,172.5394287h-0.3935547v31.9638672h0.3935547c0.5523071,0,1-0.4477539,1-1v-29.9638672
							C76.5491562,172.9871216,76.1014633,172.5394287,75.5491562,172.5394287z"/>
					</g>
					<g>
						<path class="st19" d="M67.1518173,172.5394287h-0.3935547v31.9638672h0.3935547c0.5523071,0,1-0.4477539,1-1v-29.9638672
							C68.1518173,172.9871216,67.7041245,172.5394287,67.1518173,172.5394287z"/>
					</g>
				</g>
			</g>
			<g>
				<g>
					<path class="st46" d="M100.6582184,75.4169846l-6.1600342,7.6400146
						c-0.5700073-0.4800415-1.289978-0.8200073-2.1699829-0.9400024c-0.3900146-0.0599976-0.6799927-0.3900146-0.6799927-0.7900391
						v-0.0999756l5.8599854-7.2700195h1.960022c0.2999878,0,0.5799561,0.1799927,0.7099609,0.4500122L100.6582184,75.4169846z"/>
				</g>
				<g>
					<path class="st46" d="M101.9181671,78.0369797l-5.9899902,7.4199829
						c-0.1099854-0.4699707-0.2799683-0.9099731-0.5299683-1.3200073l5.9199829-7.3499756L101.9181671,78.0369797z"/>
				</g>
			</g>
		</g>
	</g>
</g>
</svg>
