<svg xmlns="http://www.w3.org/2000/svg" xmlns:xlink="http://www.w3.org/1999/xlink" viewBox="0 0 206 128"><defs><style>.cls-1,.cls-21,.cls-22{fill:none;}.cls-2{fill:#9edcf3;}.cls-3{fill:#21b1e7;}.cls-4{fill:#e0e0e0;}.cls-5{fill:#fff;}.cls-6{fill:#e7515b;}.cls-7{clip-path:url(#clip-path);}.cls-8{opacity:0.3;}.cls-9{fill:#fbbd9d;}.cls-10{fill:#ec996f;}.cls-11{fill:#263238;}.cls-12{fill:#455b64;}.cls-13{fill:#ffcd2e;}.cls-14{fill:#fafbfb;}.cls-15{fill:#ee9724;}.cls-16{fill:#a4d3a1;}.cls-17{fill:#0c9447;}.cls-18{fill:#23b352;}.cls-19{fill:#88b586;}.cls-20{fill:#ffc829;}.cls-21,.cls-22{stroke:#fff;stroke-miterlimit:10;}.cls-22{stroke-width:0.5px;}</style><clipPath id="clip-path"><path id="SVGID" class="cls-1" d="M189.28,79.52c-.05,21.52-15.36,44.85-44.24,44.86-27.25,0-52-25.87-67.71-18.77C25.69,129,5.62,92.52,5.62,62.66S27.44,9.5,64.27,9.5c41.26,0,55.9,25,67.79,27.46C145.43,39.71,189.4,21.86,189.28,79.52Z"/></clipPath></defs><g id="Layer_2" data-name="Layer 2"><path class="cls-2" d="M189.28,79.52c-.05,21.52-15.36,44.85-44.24,44.86-27.25,0-52-25.87-67.71-18.77C25.69,129,5.62,92.52,5.62,62.66s24.2-55.74,61-54.53C108.34,9.5,120.17,34.52,132.06,37,145.43,39.71,189.4,21.86,189.28,79.52Z"/><ellipse class="cls-3" cx="134.29" cy="79.49" rx="30.33" ry="32.59"/><path class="cls-4" d="M82.78,122.32a46.74,46.74,0,0,1-.14-5.15,46.74,46.74,0,0,1,.14-5.15c.07,0,.13,2.31.13,5.15S82.85,122.32,82.78,122.32Z"/><path class="cls-4" d="M87.73,117.17a41.74,41.74,0,0,1-5,.15,41.84,41.84,0,0,1-5-.15,43.3,43.3,0,0,1,5-.14A43.19,43.19,0,0,1,87.73,117.17Z"/><path class="cls-4" d="M197.51,28.09c-.07,0-.13-2.3-.13-5.15s.06-5.15.13-5.15a46.74,46.74,0,0,1,.14,5.15A46.59,46.59,0,0,1,197.51,28.09Z"/><path class="cls-4" d="M202.47,22.94a41.84,41.84,0,0,1-5,.15,41.74,41.74,0,0,1-4.95-.15,43.19,43.19,0,0,1,4.95-.14A43.3,43.3,0,0,1,202.47,22.94Z"/><path class="cls-5" d="M144.85,65.2a2.94,2.94,0,1,1-2.93-3.15A3,3,0,0,1,144.85,65.2Z"/><path class="cls-4" d="M140.28,99.91a1.47,1.47,0,1,1-2.93,0,1.47,1.47,0,1,1,2.93,0Z"/><path class="cls-4" d="M178.94,110.42s0-.07-.08-.22l-.21-.64c-.17-.55-.41-1.36-.69-2.36-.56-2-1.25-4.81-2-7.91s-1.39-5.91-1.91-7.93L173.44,89c-.06-.27-.12-.48-.16-.66a1.93,1.93,0,0,1-.05-.23.73.73,0,0,1,.09.22c.06.17.12.38.21.64.17.55.41,1.36.69,2.36.56,2,1.25,4.81,2,7.92s1.39,5.9,1.91,7.92l.63,2.39c.06.26.12.47.16.65S179,110.42,178.94,110.42Z"/><ellipse class="cls-6" cx="58.61" cy="67.97" rx="0.41" ry="0.44"/><g class="cls-7"><polyline class="cls-6" points="76.77 112.46 95.39 116.89 98.23 112.46 97.77 106.76 94.94 103.98 85.19 103.98 76.08 112.79"/><g class="cls-8"><polyline points="76.77 112.46 95.39 116.89 98.23 112.46 97.77 106.76 94.94 103.98 85.19 103.98 76.08 112.79"/></g><path class="cls-9" d="M105.16,71.27l23.5-3.4,3.7-1.12s8.47-2,9.26-2.3,1.29,0,1.39.4c.15.58-.36,1.23-1.14,1.56l-4.56,1.71a9.44,9.44,0,0,1,1.45.45c1,.37,2,1.8,2.5,3.45s.5,2.18-.09,2.41a.72.72,0,0,1-.68-.1,1.67,1.67,0,0,1-.71-1c-.82-2.64-2.36-2.85-2.36-2.85l-.49.14s1.59,1.2,1.56,2.64a1.71,1.71,0,0,1-.12.62A2.35,2.35,0,0,1,138,76a2,2,0,0,1-1.93.78.87.87,0,0,1-.75-.64,1.38,1.38,0,0,1,.11-.57,1.38,1.38,0,0,0,.08-.29l-1.4.2s-3.19.29-4.57.58l-22,7.12a5.65,5.65,0,0,1-7.12-4.2h0A6.1,6.1,0,0,1,105.16,71.27Z"/><path class="cls-9" d="M129.2,68.51a1.23,1.23,0,0,0,1,1c.48.11,1,0,1.47.11,1.47.21,2.61,1.64,4.08,1.78.2,0,.46,0,.52-.24s-.1-.38-.24-.52l-3.67-3.48"/><path class="cls-10" d="M132.38,67.17s.17.1.44.33l1.11,1,1.62,1.5.47.44c.13.15.38.28.42.64a.44.44,0,0,1-.25.42,1,1,0,0,1-.4.07,3.36,3.36,0,0,1-.7-.15,19.41,19.41,0,0,1-2.35-1.28,3.62,3.62,0,0,0-1.05-.38c-.34,0-.68,0-1-.06a1.67,1.67,0,0,1-1.34-.63.77.77,0,0,1-.17-.55,1.78,1.78,0,0,0,.25.48,1.61,1.61,0,0,0,1.26.48,9.14,9.14,0,0,1,1,0,3.65,3.65,0,0,1,1.13.37,19.51,19.51,0,0,0,2.32,1.24,2.45,2.45,0,0,0,.64.14c.2,0,.38-.06.36-.18s-.17-.29-.33-.44l-.46-.44-1.58-1.55c-.45-.44-.81-.8-1.06-1.06A2.38,2.38,0,0,1,132.38,67.17Z"/><path class="cls-10" d="M136.89,70.62a1.81,1.81,0,0,1,.92,0,1.52,1.52,0,0,1,.81.59,4.48,4.48,0,0,1,.58,1.18,7.23,7.23,0,0,0,.53,1.26,2.09,2.09,0,0,0,.77.79.73.73,0,0,0,.72,0,.77.77,0,0,0,.21-.17s-.09,0-.24.1a.7.7,0,0,1-.63-.07,2,2,0,0,1-.69-.77,8,8,0,0,1-.51-1.23,4.36,4.36,0,0,0-.61-1.22,1.65,1.65,0,0,0-.91-.62,1.38,1.38,0,0,0-.72,0C137,70.55,136.88,70.61,136.89,70.62Z"/><path class="cls-10" d="M142.17,66.27a5.9,5.9,0,0,0-.86.32l-2,.8-2.05.78a4.25,4.25,0,0,0-.85.34,3.39,3.39,0,0,0,.88-.21c.54-.16,1.28-.42,2.08-.72s1.52-.62,2-.87A3.55,3.55,0,0,0,142.17,66.27Z"/><path class="cls-10" d="M136.27,72s.06.09.18.23a1,1,0,0,1,.27.69.51.51,0,0,1-.28.38,2.14,2.14,0,0,1-.57.16.89.89,0,0,0-.74,1.2,1,1,0,0,0,.53.61,1.18,1.18,0,0,0,.71.11,3.93,3.93,0,0,0,1.09-.43,2.8,2.8,0,0,0,.63-.51c.12-.15.15-.26.14-.26s-.06.08-.19.21a2.92,2.92,0,0,1-.64.43,4,4,0,0,1-1.06.39,1,1,0,0,1-1-.61.79.79,0,0,1,.08-.66.89.89,0,0,1,.53-.3,2.12,2.12,0,0,0,.6-.2.62.62,0,0,0,.33-.5,1,1,0,0,0-.34-.77C136.36,72.07,136.27,72,136.27,72Z"/><path class="cls-10" d="M135.76,75.17a.38.38,0,0,0-.23.12.88.88,0,0,0-.26.7,1.12,1.12,0,0,0,.62.9,1.62,1.62,0,0,0,1.28,0,2.14,2.14,0,0,0,1-.83,2.19,2.19,0,0,0,.34-1,2.53,2.53,0,0,0-.07-.75.85.85,0,0,0-.11-.25,4.29,4.29,0,0,1,0,1,2.09,2.09,0,0,1-.35,1,2,2,0,0,1-.93.75,1.52,1.52,0,0,1-1.15,0,1,1,0,0,1-.57-.75.83.83,0,0,1,.19-.63C135.68,75.22,135.77,75.19,135.76,75.17Z"/><path class="cls-10" d="M131.85,73.1s0-.18-.15-.44a1.71,1.71,0,0,0-.86-.75v.17a3.82,3.82,0,0,0,.54-.32,4.1,4.1,0,0,0,1.48-1.63,10.79,10.79,0,0,1-1.58,1.47,5.81,5.81,0,0,1-.51.31l-.18.1.19.07a1.81,1.81,0,0,1,.82.65C131.77,73,131.83,73.11,131.85,73.1Z"/><path class="cls-10" d="M139.17,70.4s-.28.26-.31.73.18.79.22.76-.07-.34,0-.75S139.22,70.43,139.17,70.4Z"/><path class="cls-9" d="M29.51,79.19s-3.43-6-4-6.49-6-2.64-6.51-2.48-7,1.36-6.29,2.2S18,72.35,18,72.35l.61.33a26.64,26.64,0,0,0-4.8,1.2c-.77.48-.5,1.49.22,1.41a43.29,43.29,0,0,1,4.38-.65c.21.15-3.75,1-4.17,1.27-.58.36-.63,1.46.09,1.41.42,0,4.15-1.07,4.15-1.07a30.92,30.92,0,0,0-3.23,1.5.58.58,0,0,0,.55,1c.44-.11,2.53-1.18,3.12-1.32,0,0,.55.16,1,1.36.23.56,1.3,4,3.24,4a5.86,5.86,0,0,1,3.4,1.49Z"/><path class="cls-10" d="M12.68,72.44a2.91,2.91,0,0,0,1.2.36,7.19,7.19,0,0,0,1.36.06c.5-.06,1-.15,1.63-.23l1.23-.19H18a18.6,18.6,0,0,0,2.83,1,16.2,16.2,0,0,0-2.73-1.26h-.08l-1.22.18-1.61.25a7.32,7.32,0,0,1-1.32,0C13.15,72.51,12.69,72.39,12.68,72.44Z"/><path class="cls-9" d="M26.94,78.48a1.25,1.25,0,0,1-1.53,0c-.47-.31-.83-.77-1.28-1.11-1.34-1-3.27-.77-4.56-1.85-.18-.15-.36-.4-.26-.62s.35-.23.56-.23l5.42.14"/><path class="cls-10" d="M25.29,74.81a2.1,2.1,0,0,0-.58-.08l-1.6-.09-2.37-.1-.69,0a1,1,0,0,0-.79.18.51.51,0,0,0-.09.54,1,1,0,0,0,.27.38,4.21,4.21,0,0,0,.68.45,20.86,20.86,0,0,0,2.81.86,3.9,3.9,0,0,1,1.12.55c.31.23.57.51.84.74a1.85,1.85,0,0,0,1.53.58.73.73,0,0,0,.52-.32,1.87,1.87,0,0,1-.54.19A1.81,1.81,0,0,1,25,78a9.4,9.4,0,0,0-.84-.79A4.06,4.06,0,0,0,23,76.64a23.71,23.71,0,0,1-2.77-.87,3.25,3.25,0,0,1-.61-.41c-.18-.15-.26-.35-.17-.43s.34-.1.58-.09h.68l2.38,0,1.6,0A1.71,1.71,0,0,0,25.29,74.81Z"/><path class="cls-11" d="M68.93,220.22l10.32-87.83L76,112l-19.47,1.11L54.06,218.59a1.59,1.59,0,0,0,1.21,1.63l11.34,1.88A2.06,2.06,0,0,0,68.93,220.22Z"/><path class="cls-11" d="M79,135.33l18.78,20-27,7.06L72.64,177l36.57-5.35a11.39,11.39,0,0,0,7.79-5h0a13.11,13.11,0,0,0,.17-14.19L88.68,107.51,76,112Z"/><path class="cls-12" d="M75.91,121a7.79,7.79,0,0,1,.43,1.36c.23.85.52,2,.79,3.36s.47,2.54.59,3.41a6.82,6.82,0,0,1,.13,1.44,8.11,8.11,0,0,1-.32-1.4c-.19-1-.42-2.12-.67-3.38s-.5-2.41-.7-3.38A6.93,6.93,0,0,1,75.91,121Z"/><path class="cls-12" d="M77.12,119.24s.26-.28.76-.09a1,1,0,0,1,.57.72,1.07,1.07,0,0,1-.43,1.07.91.91,0,0,1-1.08-.11.93.93,0,0,1-.24-.92.84.84,0,0,1,.35-.5c.12-.07.2-.07.21-.06a1.13,1.13,0,0,0-.37.61.7.7,0,0,0,.21.66.68.68,0,0,0,.78.07.81.81,0,0,0,.32-.78.77.77,0,0,0-.4-.57A1.27,1.27,0,0,0,77.12,119.24Z"/><path class="cls-13" d="M62.68,52.1,51.9,57.69l4.64,34.85-1.82,15.64a6.35,6.35,0,0,0,1.9,5.36h0L74,113.17l12.2-7.2,5.6-1-2.3-11.9,1-16.89,12.75,7.31a4.17,4.17,0,0,0,3.2.41l23.36-6.49-1.21-9.67-21.15,2.57L91.4,55l-12-2.9-2.14-3.79H65l-.86.69a2.75,2.75,0,0,0-.88,1.3Z"/><path class="cls-13" d="M51.9,57.69A13.73,13.73,0,0,0,47,64.5c-1.23,4.11-4,20.73-4,20.73L30.78,77.07l-7.06,8,16.33,15.47a7.87,7.87,0,0,0,9.09,1.35h0A8.93,8.93,0,0,0,53.77,95l2-15.77Z"/><polygon class="cls-9" points="88.68 107.51 87.92 106.31 79.86 107.92 78.38 111.61 88.68 107.51"/><path class="cls-13" d="M56.62,113.54c7.2,3.12,14.9,2,21.76-1.93,2.07-1.18,4-2.65,6.07-3.81A12.27,12.27,0,0,1,91.18,106a6.61,6.61,0,0,1,5.63,3.87c.93,2.31,0,5.46-2.2,6.32l.78.75c3.23-1.62,4.77-6.3,3.19-9.74-1.21-2.63-3.76-4.2-5.62-6.36-2.74-3.16-3-9.29-3-14.06"/><path class="cls-11" d="M72.42,58.84l-.53,0a1.92,1.92,0,0,0-1.27.63A3.37,3.37,0,0,0,70,61.71a7.94,7.94,0,0,0,.58,3l.21.49-.4-.32a22.26,22.26,0,0,1-6.89-9.44A16.09,16.09,0,0,1,62.8,53a5,5,0,0,1-.12-.91,26.07,26.07,0,0,0,1,3.22,23,23,0,0,0,4.19,6.74,22.61,22.61,0,0,0,2.67,2.56l-.19.17a7.38,7.38,0,0,1-.45-1.58,7.84,7.84,0,0,1-.12-1.5,3.57,3.57,0,0,1,.74-2.33,2,2,0,0,1,1.39-.6A1.76,1.76,0,0,1,72.42,58.84Z"/><path class="cls-13" d="M73.07,58.84a2.71,2.71,0,0,1,2.84,1c.42.52.66,1.23,1.21,1.57s2.31.6,2.82.19c0,0,.31-1.61.48-2.28a54.69,54.69,0,0,0,1.19-7.73c-1.69-.88-1.23-2-4.28-1.82a8.91,8.91,0,0,1,.11,4.62"/><path class="cls-11" d="M77.44,54.36s.11-.44.18-1.24a10,10,0,0,0-.38-3.35l0-.13h.13a4.84,4.84,0,0,1,2.25.22,3.49,3.49,0,0,1,1,.8,4,4,0,0,0,1,.78l.08,0v.1c-.13,1.37-.29,2.87-.53,4.41-.16,1-.35,2-.57,2.93s-.39,1.82-.58,2.67v.06l0,0a1.67,1.67,0,0,1-.9.24,4.66,4.66,0,0,1-.85-.06,5.32,5.32,0,0,1-.79-.18,1.63,1.63,0,0,1-.69-.41A8.39,8.39,0,0,1,76,60.07a2.77,2.77,0,0,0-.83-.81,2.8,2.8,0,0,0-1.51-.51,2.4,2.4,0,0,0-.57.09,1.18,1.18,0,0,1,.57-.18,2.71,2.71,0,0,1,1.59.46,3,3,0,0,1,.9.83,8.16,8.16,0,0,0,.8,1.15,2.52,2.52,0,0,0,1.37.5,4.35,4.35,0,0,0,.81,0,1.39,1.39,0,0,0,.75-.19l0,.08c.18-.85.35-1.77.56-2.69s.4-1.9.56-2.91c.24-1.53.4-3,.54-4.39l.08.14a4.45,4.45,0,0,1-1.11-.84,3.35,3.35,0,0,0-1-.77,4.9,4.9,0,0,0-2.15-.23l.09-.15a9.41,9.41,0,0,1,.3,3.43,5.7,5.7,0,0,1-.18.92A1.19,1.19,0,0,1,77.44,54.36Z"/><path class="cls-11" d="M95.41,107.71s0-.23,0-.65a3.93,3.93,0,0,0-.52-1.74,5.53,5.53,0,0,0-1.93-2,7.74,7.74,0,0,0-3.45-1c-1.34-.13-2.82-.05-4.41-.16a15.49,15.49,0,0,1-5-1.14,10.26,10.26,0,0,1-4.48-3.6,8.55,8.55,0,0,1-1.29-2.9A11.67,11.67,0,0,1,74,91.2a59.8,59.8,0,0,1,.85-6.41,51.26,51.26,0,0,0-.17-16.09,51.3,51.3,0,0,0-1.55-6.65c-.22-.77-.43-1.36-.56-1.77l-.14-.46a.67.67,0,0,1,0-.16s0,.05.07.15l.17.45c.15.4.37,1,.61,1.75a48.56,48.56,0,0,1,1.64,6.65,52.12,52.12,0,0,1,.76,10.16,51.13,51.13,0,0,1-.51,6,58.75,58.75,0,0,0-.84,6.38,9.66,9.66,0,0,0,1.52,6,10.14,10.14,0,0,0,4.37,3.52,15.39,15.39,0,0,0,4.9,1.14c1.57.13,3.06.06,4.41.21A7.81,7.81,0,0,1,93,103.17a5.76,5.76,0,0,1,2,2.09,4.19,4.19,0,0,1,.48,1.8,2,2,0,0,1,0,.48C95.42,107.65,95.41,107.71,95.41,107.71Z"/><path class="cls-11" d="M87.54,97.4a4.75,4.75,0,0,1-.61.68c-.2.21-.45.46-.75.74s-.65.61-1.05.93a27.2,27.2,0,0,1-2.91,2.16A31,31,0,0,1,78.36,104a30.29,30.29,0,0,1-4.11,1.48,26.92,26.92,0,0,1-3.48.71c-.5.08-1,.11-1.35.15s-.74,0-1,.06a5.42,5.42,0,0,1-.88,0,4.9,4.9,0,0,1,.87-.11c.28,0,.62,0,1-.11s.84-.09,1.34-.19a30.92,30.92,0,0,0,3.43-.76,32.94,32.94,0,0,0,4.07-1.49,33.43,33.43,0,0,0,3.84-2.07A30.88,30.88,0,0,0,85,99.59c.41-.31.76-.63,1.07-.9s.57-.5.78-.7A7.72,7.72,0,0,1,87.54,97.4Z"/><path class="cls-11" d="M84.15,78.84a1.81,1.81,0,0,1,0,.32l-.19.88a13.32,13.32,0,0,1-.35,1.38c-.15.53-.31,1.14-.56,1.79-.11.33-.24.67-.36,1s-.3.71-.46,1.09c-.3.76-.7,1.53-1.11,2.35a35.38,35.38,0,0,1-3.19,5,34.39,34.39,0,0,1-4,4.25c-.68.57-1.32,1.13-2,1.58-.32.23-.62.47-.93.67l-.88.57c-.55.38-1.09.64-1.54.9a11.44,11.44,0,0,1-1.21.61l-.77.35a.92.92,0,0,1-.28.1,1.16,1.16,0,0,1,.25-.15l.76-.4c.33-.17.73-.37,1.18-.65s1-.55,1.51-.94l.87-.58c.3-.2.59-.44.91-.68.63-.45,1.26-1,1.93-1.59a36.24,36.24,0,0,0,4-4.23,37,37,0,0,0,3.18-4.91c.41-.81.82-1.57,1.13-2.32.16-.37.33-.73.46-1.08l.38-1c.26-.64.43-1.25.6-1.77s.3-1,.39-1.36l.23-.87A1.61,1.61,0,0,1,84.15,78.84Z"/><path class="cls-11" d="M62,116.38a3.28,3.28,0,0,1-1-.77A7.8,7.8,0,0,1,59.39,113a8.14,8.14,0,0,1-.57-3,3.55,3.55,0,0,1,.16-1.27s0,.49,0,1.27a9.8,9.8,0,0,0,.63,2.93,9.13,9.13,0,0,0,1.51,2.54C61.64,116,62,116.34,62,116.38Z"/><path class="cls-11" d="M61.59,112c.08,0-.07.75,0,1.64s.32,1.58.25,1.61a3.51,3.51,0,0,1-.26-3.25Z"/><path class="cls-11" d="M56.4,91.75a1.23,1.23,0,0,1-.07-.26c0-.21-.07-.47-.13-.77-.11-.72-.26-1.67-.44-2.83-.37-2.39-.89-5.69-1.52-9.33S53,71.65,52.53,69.28L52,66.46l-.13-.76a.93.93,0,0,1,0-.27s0,.08.08.25.11.46.19.76c.16.66.37,1.61.62,2.79.51,2.36,1.16,5.64,1.79,9.28s1.12,6.94,1.44,9.34c.16,1.2.29,2.18.36,2.85l.08.78A1.37,1.37,0,0,1,56.4,91.75Z"/><path class="cls-11" d="M90.06,91.75a1.07,1.07,0,0,1,0-.28c0-.22,0-.48,0-.8,0-.7,0-1.71,0-3,0-2.49.12-5.94.39-9.73s.63-7.21.9-9.69c.14-1.2.26-2.19.35-2.92,0-.32.07-.58.1-.8a1,1,0,0,1,.06-.27,1,1,0,0,1,0,.28c0,.22,0,.48-.06.8-.06.74-.15,1.73-.26,2.94-.22,2.47-.55,5.9-.81,9.68s-.4,7.22-.48,9.71c0,1.21,0,2.21-.07,3l0,.8A1.07,1.07,0,0,1,90.06,91.75Z"/><path class="cls-11" d="M48,93.21c-.1,0-.79-2-2.13-4.26A33.77,33.77,0,0,0,43,85.23a5.63,5.63,0,0,1,1,.91,14.66,14.66,0,0,1,2,2.65,20.16,20.16,0,0,1,1.48,3.06A6.79,6.79,0,0,1,48,93.21Z"/><path class="cls-11" d="M48.91,90.75a11.61,11.61,0,0,1-.59-1.1,8.74,8.74,0,0,0-1.82-2.29,11.66,11.66,0,0,0-2.4-1.57A6.22,6.22,0,0,1,43,85.23a4,4,0,0,1,1.14.37,9.18,9.18,0,0,1,2.51,1.54,7.51,7.51,0,0,1,1.81,2.41A4,4,0,0,1,48.91,90.75Z"/><path class="cls-14" d="M91.67,99.66A4,4,0,0,1,91,101c-.41.67-.8,1.18-.86,1.13a3.75,3.75,0,0,1,.63-1.3C91.22,100.12,91.61,99.61,91.67,99.66Z"/><path class="cls-14" d="M98.35,107.75s-.12-.2-.3-.5a2.89,2.89,0,0,0-.93-.91,2.56,2.56,0,0,0-1.21-.36c-.33,0-.54,0-.55,0s.19-.15.54-.19a2.15,2.15,0,0,1,1.35.32,2.38,2.38,0,0,1,1,1.06C98.37,107.5,98.38,107.74,98.35,107.75Z"/><path class="cls-14" d="M76.62,104.87s-.63.39-1.65,1a14.54,14.54,0,0,0-3.57,3,8.49,8.49,0,0,0-1.9,4.32,10.91,10.91,0,0,0,0,2,2.08,2.08,0,0,1-.15-.53,5.63,5.63,0,0,1-.07-1.51,8.22,8.22,0,0,1,1.88-4.49,12.89,12.89,0,0,1,3.69-3c.52-.3,1-.51,1.26-.65A1.42,1.42,0,0,1,76.62,104.87Z"/><path class="cls-14" d="M84.35,107.63s-.3-.19-.57-.68a4,4,0,0,1,.32-4.22c.35-.44.66-.6.67-.57s-.22.25-.51.69a4.22,4.22,0,0,0-.65,2,4.31,4.31,0,0,0,.34,2C84.16,107.33,84.38,107.59,84.35,107.63Z"/><g class="cls-8"><path d="M69,106.72c-.51.23-.46,1.09,0,1.47a2.18,2.18,0,0,0,1.56.36,20,20,0,0,0,15.58-9.41c-4.75,4.2-11,5.78-17,7.24"/></g><g class="cls-8"><path class="cls-15" d="M68,101a2.43,2.43,0,0,1,.5-2.77,8.63,8.63,0,0,1,2.43-1.56A16,16,0,0,0,78,88.82c1-2.23,1.68-5,3.8-5.87-1.08,7.84-6.52,14.81-13.52,17.32"/></g><g class="cls-8"><path class="cls-15" d="M53.08,71.67a61.51,61.51,0,0,1-1.21,18.46A16.57,16.57,0,0,0,51.28,94,5.27,5.27,0,0,0,53,97.67c.87-2.15.89-4.24,1.25-6.57.34-2.1.89-7,.89-7.07a29.44,29.44,0,0,0-2.39-11.81"/></g><g class="cls-8"><path class="cls-15" d="M63,53.12a23.12,23.12,0,0,0,5.95,12c1.16,1.21,2.61,2.34,4.23,2.28a11.33,11.33,0,0,1-.81-6.66,24.23,24.23,0,0,0,4.33,2.53,8.11,8.11,0,0,0,4.84.6q.51-4.69,1-9.39a1.86,1.86,0,0,0-.09-1c-.16-.31-.6-.48-.83-.22a.86.86,0,0,0-.16.42c-.6,2.74-.93,5.19-1.52,7.94-.42.45-1.74.26-2.6-.08s-1-1-1.54-1.64-.4-.56-1.14-.89c-1.36-.62-4-.13-4.53,1.18s-.14,3,.24,4.31A19.56,19.56,0,0,1,62.7,53"/></g><g class="cls-8"><path class="cls-15" d="M91.67,66.37c-.11.23,3.27,12.47,3.27,12.47l-4.38-2.68Z"/></g><path class="cls-9" d="M64.44,30.83v19.5a4.93,4.93,0,0,0,1,3.05h0a13.52,13.52,0,0,0,3.64,3.24l3.67,2.22,3-2.91a4.84,4.84,0,0,0,1.47-3.34c0-1.42,0-2.85,0-2.85A6.25,6.25,0,0,0,83,43.91c.22-2.56.3-7.81.31-12.64,0-5.51-3.92-10.11-9-10.56l-.14,0C68.78,20.56,64.43,25.14,64.44,30.83Z"/><path class="cls-10" d="M77.33,49.74a11.79,11.79,0,0,1-6.43-2.68,6.46,6.46,0,0,0,6.42,4.08Z"/><path class="cls-11" d="M81.76,34.77a.75.75,0,0,1-.76.72.72.72,0,0,1-.69-.77.75.75,0,0,1,.76-.72A.72.72,0,0,1,81.76,34.77Z"/><path class="cls-11" d="M82,33.46c-.09.1-.61-.39-1.39-.45s-1.38.3-1.45.19.06-.23.33-.4a1.87,1.87,0,0,1,2.27.21C82,33.23,82,33.42,82,33.46Z"/><path class="cls-11" d="M74.42,34.37a.75.75,0,0,1-.76.72.72.72,0,0,1-.69-.77.74.74,0,0,1,.75-.72A.72.72,0,0,1,74.42,34.37Z"/><path class="cls-11" d="M74.3,32.94c-.1.09-.61-.39-1.39-.46s-1.38.3-1.46.19.07-.22.33-.39a1.89,1.89,0,0,1,2.28.21C74.28,32.71,74.35,32.9,74.3,32.94Z"/><path class="cls-11" d="M76.65,39.39a5.48,5.48,0,0,1,1.28-.13c.2,0,.39,0,.44-.17a1.16,1.16,0,0,0-.09-.65c-.14-.53-.3-1.09-.46-1.68a28.92,28.92,0,0,1-1-4.37,30.09,30.09,0,0,1,1.32,4.28c.15.59.3,1.15.43,1.68a1.29,1.29,0,0,1,0,.85.5.5,0,0,1-.35.29,1.37,1.37,0,0,1-.34,0A4.68,4.68,0,0,1,76.65,39.39Z"/><path class="cls-11" d="M74.31,39.77c.13,0,.06.91.73,1.62s1.59.69,1.58.81-.21.16-.59.14a2,2,0,0,1-1.88-2C74.14,40,74.25,39.76,74.31,39.77Z"/><path class="cls-11" d="M74.75,29.68c-.09.22-.86,0-1.78.08s-1.68.24-1.79,0,.1-.31.41-.5A2.81,2.81,0,0,1,73,28.91a2.73,2.73,0,0,1,1.37.3C74.64,29.38,74.8,29.58,74.75,29.68Z"/><path class="cls-11" d="M81.87,31c-.16.18-.68-.07-1.32-.13s-1.2,0-1.31-.19.05-.29.3-.45a1.84,1.84,0,0,1,2.12.26C81.87,30.73,81.93,30.93,81.87,31Z"/><path class="cls-11" d="M70.4,25.35l0,0A4.35,4.35,0,0,0,68.68,28l0,.11c-.32,1.53-.41,3.12-.74,4.65s-.27,2.7-1.7,3a1.84,1.84,0,0,1-2-.86,1.4,1.4,0,0,1-.13-.73c0-3.77-.69-5.24-.38-9.16a3.38,3.38,0,0,1,1.48-2.57C66,22,67,21.44,67.82,22S69.6,24.26,70.21,25"/><path class="cls-9" d="M66,33.45c-.08-.05-3.39-1.42-3.57,2.31a2.66,2.66,0,0,0,3.36,3.05C65.76,38.7,66,33.45,66,33.45Z"/><path class="cls-10" d="M64.75,37.33s-.06.05-.16.09a.61.61,0,0,1-.46,0,1.65,1.65,0,0,1-.62-1.48,2.49,2.49,0,0,1,.21-.93.74.74,0,0,1,.48-.47.31.31,0,0,1,.35.2.74.74,0,0,1,0,.19s.08-.06.06-.22a.49.49,0,0,0-.12-.24.44.44,0,0,0-.34-.11.83.83,0,0,0-.65.54,2.27,2.27,0,0,0-.26,1,1.71,1.71,0,0,0,.8,1.66.63.63,0,0,0,.56-.07C64.74,37.42,64.77,37.34,64.75,37.33Z"/><path class="cls-11" d="M67.66,22.51C66.92,21,69.42,19,71.17,18.59s3.94.67,5.6,1.43A9.15,9.15,0,0,0,80,21.18a7.2,7.2,0,0,0,2.24-.41,5.14,5.14,0,0,1,2.26-.27,2.11,2.11,0,0,1,1.72,1.4c.23.78-.26,1.78-1,1.82a1.8,1.8,0,0,1,2.4,1.56,1.84,1.84,0,0,1-2.21,1.87c.53-.36,1.23.37,1.12,1a1.88,1.88,0,0,1-1.29,1.3A6.13,6.13,0,0,1,80.57,29c-1.45-.67-2.78-1.64-4.21-2.35s-3.84-2-5.37-1.54c-1.13.31-2,1.66-2.6,1.3a2.33,2.33,0,0,1-1-1.77,6.94,6.94,0,0,1,.23-2.12"/><path class="cls-12" d="M85.6,23.66s-.2.26-.61.66a4.72,4.72,0,0,1-2,1.16A4.12,4.12,0,0,1,79.67,25,16.37,16.37,0,0,1,76.54,22a7.07,7.07,0,0,0-3.74-2.35,3.8,3.8,0,0,0-3.4.93,3.41,3.41,0,0,0-1,2.34,3.21,3.21,0,0,0,.1.7.6.6,0,0,0,.1.22,5.85,5.85,0,0,1-.06-.92,3.25,3.25,0,0,1,1-2.14,3.6,3.6,0,0,1,3.19-.8,7,7,0,0,1,3.55,2.28,15.43,15.43,0,0,0,3.22,3.11,4.33,4.33,0,0,0,3.51.39,4.5,4.5,0,0,0,2-1.31,3.18,3.18,0,0,0,.41-.55A.73.73,0,0,0,85.6,23.66Z"/><path class="cls-12" d="M65.09,33.21s.16-.09.31-.38a2.58,2.58,0,0,0,.28-1.33c0-1.21-.87-2.58-.87-4.25a4,4,0,0,1,.55-2.18A2.62,2.62,0,0,1,66.74,24a2.11,2.11,0,0,1,1.17-.07,4.43,4.43,0,0,0,.44.13s-.12-.15-.4-.27a2.08,2.08,0,0,0-1.27-.05,2.78,2.78,0,0,0-1.57,1.14,4.08,4.08,0,0,0-.64,2.39,7.31,7.31,0,0,0,.48,2.4,7.4,7.4,0,0,1,.49,1.85A3.07,3.07,0,0,1,65.09,33.21Z"/></g><path class="cls-6" d="M187.17,16.4c-18.68-6.11-34.44-11.33-55.6-11.19l-3.24,35.73c22,2.09,29.33,3.63,49.63,11.52Z"/><path class="cls-16" d="M187.17,16.4c-18.68-6.11-34.44-11.33-55.6-11.19l-3.24,35.73c22,2.09,29.33,3.63,49.63,11.52Z"/><path class="cls-17" d="M144.88,22.55,145.7,15a7.85,7.85,0,0,0-5.76,1.71,9.56,9.56,0,0,0-3.54,7.49c0,.37,0,.74,0,1.13v0h0l8.25-1Z"/><path class="cls-6" d="M153.4,21.31a8.27,8.27,0,0,0-5.87-6l-.25-.06-.16,0-.48-.08h0l-.82,7.58-.2,1.78,7.79,3.05h0a10.28,10.28,0,0,0,.41-1.94A11.26,11.26,0,0,0,153.4,21.31Z"/><path class="cls-18" d="M153.4,21.31a8.27,8.27,0,0,0-5.87-6l-.25-.06-.16,0-.48-.08h0l-.82,7.58-.2,1.78,7.79,3.05h0a10.28,10.28,0,0,0,.41-1.94A11.26,11.26,0,0,0,153.4,21.31Z"/><path class="cls-17" d="M145,25.33l-8.25,1c.35,4.29,3.26,7.85,7.17,8.37s7.58-2.2,8.87-6.31L145,25.33"/><path class="cls-17" d="M180,23.21a3.6,3.6,0,0,1-.73-.31c-.46-.23-1.12-.54-1.95-.91a57.27,57.27,0,0,0-6.63-2.5,57.93,57.93,0,0,0-6.87-1.64c-.89-.15-1.61-.26-2.11-.33a4.31,4.31,0,0,1-.77-.15,4.56,4.56,0,0,1,.78,0c.51,0,1.24.11,2.13.24a47.26,47.26,0,0,1,13.54,4.15c.82.4,1.48.74,1.93,1A5,5,0,0,1,180,23.21Z"/><path class="cls-17" d="M179.39,26.94a3.6,3.6,0,0,1-.73-.31c-.46-.23-1.13-.54-2-.91a56.18,56.18,0,0,0-13.49-4.14c-.89-.15-1.61-.26-2.11-.33a4.6,4.6,0,0,1-.78-.15,3.94,3.94,0,0,1,.79,0c.5,0,1.23.12,2.13.25a47.67,47.67,0,0,1,6.9,1.56,46.27,46.27,0,0,1,6.63,2.59c.83.4,1.49.74,1.93,1A7.06,7.06,0,0,1,179.39,26.94Z"/><path class="cls-17" d="M178.82,30.67a3.6,3.6,0,0,1-.73-.31c-.46-.23-1.13-.54-2-.91a56.18,56.18,0,0,0-13.49-4.14c-.89-.15-1.61-.26-2.11-.33a4.31,4.31,0,0,1-.77-.15,3.84,3.84,0,0,1,.78,0c.51,0,1.23.12,2.13.25a48.05,48.05,0,0,1,6.91,1.56,47.24,47.24,0,0,1,6.63,2.59c.82.4,1.48.74,1.93,1A6,6,0,0,1,178.82,30.67Z"/><path class="cls-17" d="M177.69,34.4a3.51,3.51,0,0,1-.71-.31c-.44-.23-1.09-.54-1.89-.91A53.21,53.21,0,0,0,162,29l-2.06-.34a3.88,3.88,0,0,1-.75-.14,3.74,3.74,0,0,1,.77,0c.49,0,1.19.12,2.06.25a45.18,45.18,0,0,1,6.72,1.56A46.74,46.74,0,0,1,175.16,33c.8.4,1.44.74,1.87,1A4.23,4.23,0,0,1,177.69,34.4Z"/><path class="cls-17" d="M175.23,37.38a3,3,0,0,1-.64-.27l-1.7-.82A44,44,0,0,0,167.14,34a43.41,43.41,0,0,0-6-1.34l-1.84-.27a3.21,3.21,0,0,1-.67-.13,3.19,3.19,0,0,1,.68,0c.44,0,1.08.09,1.86.18A33.7,33.7,0,0,1,173,36.11c.71.36,1.28.67,1.67.9A2.9,2.9,0,0,1,175.23,37.38Z"/><path class="cls-17" d="M166.93,37.8a7.22,7.22,0,0,1-1.33-.3c-.82-.2-1.94-.46-3.2-.69s-2.4-.41-3.23-.53a7.7,7.7,0,0,1-1.34-.25,5.48,5.48,0,0,1,1.36,0c.84.07,2,.21,3.26.44a28.2,28.2,0,0,1,3.2.79A5.34,5.34,0,0,1,166.93,37.8Z"/><path class="cls-17" d="M134.81,9.44l.43,0,1.29-.05c1.13,0,2.77,0,4.88.12a72.34,72.34,0,0,1,17.13,3.3l.1,0,0,.1-4.46,27.41c-.06.41-.13.82-.19,1.22l0,.15-.14,0a109.35,109.35,0,0,0-11.44-2.54c-3.69-.6-7.22-1-10.49-1.26h-.13l0-.13c.9-8.45,1.65-15.53,2.18-20.51.27-2.46.49-4.41.63-5.75.08-.65.13-1.15.17-1.51l0-.38a1.11,1.11,0,0,1,0-.13,1.25,1.25,0,0,1,0,.14l0,.4c0,.36-.08.87-.14,1.54-.14,1.35-.33,3.3-.57,5.78-.5,5-1.22,12-2.07,20.45l-.11-.14c3.29.21,6.82.64,10.52,1.24a107.24,107.24,0,0,1,11.47,2.53l-.17.12c.07-.4.13-.81.2-1.22,1.65-10.07,3.2-19.48,4.49-27.4l.08.14A74.76,74.76,0,0,0,141.4,9.63c-2.09-.15-3.75-.19-4.86-.18h-1.73Z"/><path class="cls-6" d="M148.21,117.53c-20.34,3.75-39.46,1.49-59.91-5.73l1-41.23c21.2,6.57,42.91,8.07,62.43,5Z"/><path class="cls-16" d="M148.21,117.53c-20.34,3.75-39.46,1.49-59.91-5.73l1-41.23c21.2,6.57,42.91,8.07,62.43,5Z"/><path class="cls-17" d="M145.64,111l-.13.06-.39.13c-.34.11-.84.3-1.5.48A52.58,52.58,0,0,1,138,113a67.24,67.24,0,0,1-19,.51,104.72,104.72,0,0,1-18.72-4c-2.35-.72-4.23-1.35-5.53-1.81l-1.49-.54-.39-.15c-.08,0-.13,0-.13-.06l.14,0,.39.12,1.51.49c1.31.43,3.2,1,5.55,1.72a109.72,109.72,0,0,0,18.69,3.89,69.65,69.65,0,0,0,19-.42,56.55,56.55,0,0,0,5.66-1.24c.66-.17,1.17-.33,1.52-.43l.4-.1Z"/><path class="cls-17" d="M116.31,109.88a12.28,12.28,0,0,1-7.63-1l1.21-14.59a18.06,18.06,0,0,1,7.65.73Z"/><path class="cls-17" d="M128.73,110.19v-.43c0-.3,0-.71.07-1.22.07-1.08.17-2.62.29-4.54.27-3.88.64-9.3,1.08-15.6l.09.15a19.15,19.15,0,0,0-7.92-.75l.12-.14,0,.29c-.63,8.64-1.21,16.43-1.62,22l-.06-.11a16.22,16.22,0,0,0,3.3.76,11.32,11.32,0,0,0,2.53,0,10.14,10.14,0,0,0,1.58-.29l.4-.11.15,0-.13,0-.4.15a10.77,10.77,0,0,1-1.58.34,11.33,11.33,0,0,1-2.57,0,17.1,17.1,0,0,1-3.34-.72l-.07,0v-.08c.39-5.57.93-13.36,1.53-22l0-.29v-.12h.11a19.29,19.29,0,0,1,8,.77l.1,0v.11c-.48,6.31-.89,11.76-1.18,15.65-.16,1.91-.28,3.44-.37,4.51,0,.51-.08.91-.1,1.2l0,.3A.65.65,0,0,1,128.73,110.19Z"/><path class="cls-17" d="M140.63,109.6c-2.15,1-4.85.89-7.75.44l2-24.1a15.19,15.19,0,0,1,7.65.73Z"/><path class="cls-17" d="M104.26,107.52a5.73,5.73,0,0,1,0-.62c0-.42.07-1,.11-1.69.11-1.46.26-3.5.43-5.92l.07.12a16.29,16.29,0,0,0-7.26-2h0l.13-.14c-.26,3-.5,5.83-.7,8.22l-.06-.12a13.77,13.77,0,0,0,2.88,1.19c.89.26,1.68.44,2.33.57l1.52.29.54.11a3.32,3.32,0,0,1-.55,0c-.35,0-.87-.1-1.53-.22s-1.46-.27-2.36-.51a13.91,13.91,0,0,1-2.94-1.17l-.07,0v-.08c.19-2.4.42-5.21.66-8.22v-.13h.14A16.14,16.14,0,0,1,105,99.19l.07,0v.08c-.22,2.46-.41,4.51-.55,6-.07.68-.13,1.23-.17,1.65S104.26,107.53,104.26,107.52Z"/><path class="cls-17" d="M109.62,86.54a6.92,6.92,0,0,1-1.5,0c-.93-.07-2.21-.22-3.61-.44s-2.66-.49-3.57-.71a6.76,6.76,0,0,1-1.45-.43,8.68,8.68,0,0,1,1.49.23c.91.17,2.17.4,3.57.63s2.67.39,3.59.52A8.42,8.42,0,0,1,109.62,86.54Z"/><path class="cls-17" d="M108.34,88.23A6.56,6.56,0,0,1,107,88.1c-.8-.12-1.92-.31-3.14-.53s-2.34-.43-3.13-.6a6.5,6.5,0,0,1-1.29-.33,5.75,5.75,0,0,1,1.32.13c.81.12,1.92.3,3.14.52s2.33.43,3.13.6A6,6,0,0,1,108.34,88.23Z"/><path class="cls-17" d="M110.94,90.85a3.55,3.55,0,0,1,0-.51c0-.35.1-.83.17-1.42.16-1.24.38-3,.65-5.12l.09.12a104.46,104.46,0,0,1-14.09-2.2L98,81.6h0v.22l0,.23-.06.46c0,.31-.08.61-.13.91q-.12.91-.24,1.8c-.17,1.17-.33,2.31-.48,3.4l-.1-.15c4,.93,7.57,1.5,10.07,1.84l2.93.38.77.1.28,0h-.26l-.8,0c-.68-.05-1.68-.15-2.94-.3a99.75,99.75,0,0,1-10.1-1.74l-.12,0,0-.13c.15-1.09.31-2.23.47-3.41.08-.58.16-1.18.24-1.79l.13-.91.06-.46,0-.23,0-.12v-.09h0l.16-.12a114.66,114.66,0,0,0,14.06,2.27h.1l0,.11c-.31,2.16-.57,3.92-.76,5.17q-.13.87-.21,1.38A2.73,2.73,0,0,1,110.94,90.85Z"/><path class="cls-17" d="M112.43,94.11a6.63,6.63,0,0,1-.86-1.57,5.42,5.42,0,0,1-.63-1.69,6.19,6.19,0,0,1,.86,1.56A5.34,5.34,0,0,1,112.43,94.11Z"/><path class="cls-6" d="M195.25,54.22,192,97.28s-9.54,18.42-35.81,19.12L159.42,73S182.34,72,195.25,54.22Z"/><path class="cls-19" d="M194.77,52c-.86-3-2.94-7.23-7.88-8.11l-5.84,57.92s11-2.35,11.26-8.81c0-.55,2.22-29.34,2.77-36.47A12.54,12.54,0,0,0,194.77,52Z"/><path class="cls-16" d="M195.25,54.22,192,97.28s-9.54,18.42-35.81,19.12L159.42,73S182.34,72,195.25,54.22Z"/><path class="cls-17" d="M194.47,65.2a26.82,26.82,0,0,0-4.19,13.92,12.43,12.43,0,0,1-.45,4.23c-.51,1.32-1.83,2.43-3.11,2.05s-1.94-2.1-3.11-2.9a3.31,3.31,0,0,0-3.53.08,6.24,6.24,0,0,0-2.31,3c-1,2.36-1,5-1.73,7.48s-2.43,5-4.82,5.06c-.87,0-1.74-.24-2.61-.22a5.41,5.41,0,0,0-4.32,3.3,18.2,18.2,0,0,0-1.37,5.74s14,1.44,29.73-18.51Z"/><path class="cls-17" d="M172.2,91.32c0,.53-.24,1-.55,1s-.55-.43-.55-1,.25-1,.55-1S172.2,90.78,172.2,91.32Z"/><path class="cls-17" d="M178.8,73.41c0,.54-.25,1-.55,1s-.55-.43-.55-1,.25-1,.55-1S178.8,72.88,178.8,73.41Z"/><path class="cls-17" d="M194.15,67.27s0,.09-.09.25l-.29.7c-.28.62-.67,1.51-1.16,2.63-1,2.28-2.45,5.49-4.17,9.34l-.06.13-.11-.08-9.91-6.73.2-.07-.41,1.09c-2.46,6.45-4.7,12.35-6.4,16.83l-.05.11-.1-.06c-2.47-1.49-4.48-2.69-5.88-3.51-.71-.4-1.25-.72-1.63-.92l-.43-.23-.15-.07a11.86,11.86,0,0,1,2.26,1.11c1.42.79,3.45,2,5.93,3.43l-.14.06,6.34-16.86.41-1.09.06-.16.13.1L188.39,80l-.16,0,4.26-9.3c.52-1.1.92-2,1.21-2.6l.33-.68Z"/><path class="cls-5" d="M100.41,49.47a46.59,46.59,0,0,1-.14-5.15,46.48,46.48,0,0,1,.14-5.14c.07,0,.13,2.3.13,5.14S100.48,49.47,100.41,49.47Z"/><path class="cls-5" d="M105.36,44.32a41.74,41.74,0,0,1-5,.15,41.84,41.84,0,0,1-5-.15,43.3,43.3,0,0,1,5-.14A43.19,43.19,0,0,1,105.36,44.32Z"/><path class="cls-5" d="M17.09,62.41c-.07,0-.13-2.3-.13-5.14s.06-5.15.13-5.15.13,2.3.13,5.15S17.16,62.41,17.09,62.41Z"/><path class="cls-5" d="M22.05,57.27a43.3,43.3,0,0,1-5,.14,43,43,0,0,1-4.95-.14,41.6,41.6,0,0,1,4.95-.15A41.84,41.84,0,0,1,22.05,57.27Z"/><g id="Layer_3" data-name="Layer 3"><path class="cls-20" d="M47.05,35.17c.76,5.85-2.51,7.83-2.72,9.51a29.31,29.31,0,0,0,0,3.1L38.57,49.3a27.43,27.43,0,0,0-1.45-2.71c-1-1.36-4.75-1.47-6.8-7-1.35-3.63-.1-10.25,6-11.86S46.54,31.32,47.05,35.17Z"/><line class="cls-21" x1="40.13" y1="49.3" x2="36.09" y2="40.31"/><line class="cls-21" x1="42.95" y1="48.55" x2="42.31" y2="38.65"/><path class="cls-22" d="M36.32,40.63s.8,1.76,1.61,1.54.88-3.17-.18-2.89.86,3.62,2.21,3.27,1.23-4.18.29-3.93.06,3.05,1.36,2.71c.7-.19.74-2.18.74-2.18"/><polygon class="cls-11" points="45.28 48.78 38.2 50.66 37.84 49.22 44.92 47.35 45.28 48.78"/><polygon class="cls-11" points="45.69 50.44 38.61 52.32 38.25 50.89 45.34 49.01 45.69 50.44"/><polygon class="cls-11" points="46.1 52.11 39.02 53.98 38.67 52.55 45.75 50.67 46.1 52.11"/><path class="cls-5" d="M36,26.76a4.59,4.59,0,0,1-.41-1,4.51,4.51,0,0,1-.16-1.11,5.15,5.15,0,0,1,.4,1.05A5,5,0,0,1,36,26.76Z"/><path class="cls-5" d="M31.53,29.39a4.08,4.08,0,0,1-.85-.69,4.15,4.15,0,0,1-.68-.87,4.87,4.87,0,0,1,.86.7A4.72,4.72,0,0,1,31.53,29.39Z"/><path class="cls-5" d="M29,34a4.26,4.26,0,0,1-1.07-.16,4.62,4.62,0,0,1-1-.4,4.26,4.26,0,0,1,1.07.16A4.62,4.62,0,0,1,29,34Z"/><path class="cls-5" d="M29,39.23a4.8,4.8,0,0,1-2.08.6,4.23,4.23,0,0,1,1-.42A4.69,4.69,0,0,1,29,39.23Z"/><path class="cls-5" d="M31.52,43.8a4.5,4.5,0,0,1-.66.88,4.17,4.17,0,0,1-.85.71,4.54,4.54,0,0,1,.67-.88A5.26,5.26,0,0,1,31.52,43.8Z"/><path class="cls-5" d="M48,39.25a4.26,4.26,0,0,1,1.07.16,3.94,3.94,0,0,1,1,.4A4.19,4.19,0,0,1,49,39.65,4.62,4.62,0,0,1,48,39.25Z"/><path class="cls-5" d="M48,34a4.79,4.79,0,0,1,1-.41,4.28,4.28,0,0,1,1.07-.18,4.16,4.16,0,0,1-1,.42A4.78,4.78,0,0,1,48,34Z"/><path class="cls-5" d="M45.46,29.4a4.34,4.34,0,0,1,.66-.87,4.17,4.17,0,0,1,.85-.71,5.24,5.24,0,0,1-.67.88A4.73,4.73,0,0,1,45.46,29.4Z"/><path class="cls-5" d="M41,26.76a5,5,0,0,1,.15-1.1,4.46,4.46,0,0,1,.4-1.05,5.2,5.2,0,0,1-.15,1.11A5.07,5.07,0,0,1,41,26.76Z"/><path class="cls-5" d="M35.65,67.89c-1.13.06-2.65-1.78-3.6-4.43-1-2.89-1-5.5.17-5.94s2.85,1.48,3.89,4.37a11.19,11.19,0,0,1,.73,3.82c0,1.15-.34,1.9-.9,2.12A1.36,1.36,0,0,1,35.65,67.89ZM32.52,57.7a.54.54,0,0,0-.22,0c-1,.38-1,3,0,5.63s2.62,4.6,3.6,4.22c.46-.18.73-.86.75-1.89A10.93,10.93,0,0,0,35.89,62C35,59.49,33.51,57.65,32.52,57.7Z"/><path class="cls-5" d="M31.51,67.16a1.11,1.11,0,0,1-.81-.24c-.47-.39-.53-1.21-.19-2.3a10.88,10.88,0,0,1,1.89-3.37,10.57,10.57,0,0,1,2.84-2.57c1-.56,1.76-.65,2.22-.25s.53,1.21.19,2.3a10.84,10.84,0,0,1-1.9,3.37C34.29,66,32.62,67.1,31.51,67.16Zm5.15-8.73a3.08,3.08,0,0,0-1.31.46,10.38,10.38,0,0,0-2.77,2.51,10.82,10.82,0,0,0-1.85,3.29c-.31,1-.26,1.72.11,2,.81.69,3-.59,4.73-2.79a10.66,10.66,0,0,0,1.86-3.29c.3-1,.26-1.72-.12-2A1,1,0,0,0,36.66,58.43Z"/><path class="cls-5" d="M36.27,65.06a11.92,11.92,0,0,1-2.55-.17h0a10.34,10.34,0,0,1-3.57-1.26c-.95-.59-1.42-1.25-1.32-1.86.2-1.24,2.66-1.82,5.61-1.31A10.2,10.2,0,0,1,38,61.72c1,.59,1.42,1.25,1.32,1.86s-.75,1.08-1.83,1.32A7.36,7.36,0,0,1,36.27,65.06Zm-4.36-4.53c-1.58.09-2.73.55-2.85,1.28-.08.5.36,1.09,1.21,1.62a10,10,0,0,0,3.49,1.22,9.89,9.89,0,0,0,3.68,0c1-.22,1.57-.63,1.65-1.13s-.36-1.09-1.21-1.62A10,10,0,0,0,34.4,60.7,12.17,12.17,0,0,0,31.91,60.53Z"/><path class="cls-5" d="M35,62.33a1,1,0,0,1-.56,1.27A1,1,0,0,1,33.18,63a1,1,0,0,1,.56-1.27A1,1,0,0,1,35,62.33Z"/></g></g></svg>